<svg width="133" height="133" viewBox="0 0 133 133" fill="none" xmlns="http://www.w3.org/2000/svg">
<g filter="url(#filter0_iii_918_1680)">
<rect x="0.937866" y="0.505859" width="131.835" height="131.835" rx="4" fill="url(#paint0_linear_918_1680)"/>
</g>
<g filter="url(#filter1_i_918_1680)">
<path d="M76.6909 97.5082C76.6909 96.7466 76.3884 96.0163 75.8499 95.4778C75.3114 94.9392 74.581 94.6367 73.8194 94.6367H56.5905C55.8289 94.6367 55.0985 94.9392 54.56 95.4778C54.0215 96.0163 53.719 96.7466 53.719 97.5082C53.719 98.2698 54.0215 99.0002 54.56 99.5387C55.0985 100.077 55.8289 100.38 56.5905 100.38H73.8194C74.581 100.38 75.3114 100.077 75.8499 99.5387C76.3884 99.0002 76.6909 98.2698 76.6909 97.5082Z" fill="white"/>
<path d="M79.3901 83.1514H62.1612C61.3996 83.1514 60.6692 83.4539 60.1307 83.9924C59.5922 84.5309 59.2897 85.2613 59.2897 86.0229C59.2897 86.7844 59.5922 87.5148 60.1307 88.0533C60.6692 88.5918 61.3996 88.8944 62.1612 88.8944H79.3901C80.1517 88.8944 80.8821 88.5918 81.4206 88.0533C81.9591 87.5148 82.2616 86.7844 82.2616 86.0229C82.2616 85.2613 81.9591 84.5309 81.4206 83.9924C80.8821 83.4539 80.1517 83.1514 79.3901 83.1514Z" fill="white"/>
<path d="M77.8395 106.123H60.6105C59.8489 106.123 59.1186 106.426 58.5801 106.964C58.0415 107.503 57.739 108.233 57.739 108.995C57.739 109.756 58.0415 110.486 58.5801 111.025C59.1186 111.564 59.8489 111.866 60.6105 111.866H77.8395C78.601 111.866 79.3314 111.564 79.8699 111.025C80.4084 110.486 80.711 109.756 80.711 108.995C80.711 108.233 80.4084 107.503 79.8699 106.964C79.3314 106.426 78.601 106.123 77.8395 106.123Z" fill="white"/>
<path d="M108.564 106.123H88.464C87.7025 106.123 86.9721 106.426 86.4336 106.964C85.8951 107.503 85.5925 108.233 85.5925 108.995C85.5925 109.756 85.8951 110.486 86.4336 111.025C86.9721 111.564 87.7025 111.866 88.464 111.866H108.564C109.326 111.866 110.056 111.564 110.595 111.025C111.133 110.486 111.436 109.756 111.436 108.995C111.436 108.233 111.133 107.503 110.595 106.964C110.056 106.426 109.326 106.123 108.564 106.123Z" fill="white"/>
<path d="M111.436 94.6367H91.3355C90.5739 94.6367 89.8435 94.9392 89.305 95.4778C88.7665 96.0163 88.464 96.7466 88.464 97.5082C88.464 98.2698 88.7665 99.0002 89.305 99.5387C89.8435 100.077 90.5739 100.38 91.3355 100.38H111.436C112.198 100.38 112.928 100.077 113.466 99.5387C114.005 99.0002 114.307 98.2698 114.307 97.5082C114.307 96.7466 114.005 96.0163 113.466 95.4778C112.928 94.9392 112.198 94.6367 111.436 94.6367Z" fill="white"/>
<path d="M111.551 88.8944C110.709 78.7837 107.962 68.9237 103.453 59.8349C99.1343 51.6216 92.9115 44.5619 85.3054 39.2462L92.197 24.056C92.4191 23.6021 92.5175 23.0975 92.4822 22.5933C92.447 22.0891 92.2792 21.6032 91.9959 21.1846C91.7346 20.8173 91.3904 20.5168 90.9913 20.3073C90.5922 20.0978 90.1494 19.9851 89.6987 19.9785H42.8073C42.3245 19.9773 41.8493 20.0978 41.4255 20.3289C41.0017 20.56 40.643 20.8942 40.3825 21.3007C40.122 21.7071 39.9682 22.1726 39.9353 22.6542C39.9024 23.1358 39.9915 23.618 40.1942 24.056L47.2294 39.3037C39.6787 44.6244 33.4984 51.6608 29.1964 59.8349C23.0227 71.3208 21.0988 85.3624 20.5819 95.0968C20.4973 96.5219 20.7087 97.949 21.2029 99.2883C21.6971 100.628 22.4634 101.85 23.4534 102.879C24.4939 103.889 25.726 104.682 27.0771 105.209C28.4283 105.737 29.8713 105.989 31.3213 105.951H49.1245V100.38H31.0916C30.4417 100.378 29.799 100.245 29.2019 99.9884C28.6048 99.7318 28.0658 99.3572 27.6171 98.8872C27.1677 98.4208 26.8206 97.8658 26.5981 97.2576C26.3756 96.6494 26.2826 96.0015 26.3249 95.3552C26.7269 87.8606 28.3062 73.5893 34.2502 62.4766C38.4404 54.5143 44.6365 47.7837 52.2258 42.9505H55.0973C53.1514 45.6424 51.3586 48.4417 49.7276 51.3352C48.0663 54.4141 46.6548 57.6214 45.5065 60.926L49.4404 63.5678C50.6027 60.1392 52.0333 56.8075 53.7189 53.6037C55.7889 49.8784 58.1408 46.317 60.7541 42.9505H63.6256C65.5519 47.5546 66.9115 52.3758 67.6744 57.3079C68.2981 60.9694 68.6056 64.6777 68.5933 68.3919L73.1302 65.2045C73.0038 62.3167 72.6969 59.4396 72.2114 56.5901C71.4409 51.933 70.2097 47.3641 68.5358 42.9505H70.7756L73.3887 37.2075H52.5991L47.2868 25.7215H85.2192L78.0405 41.4286C79.271 42.0877 80.4515 42.8363 81.5724 43.6683C88.608 48.5223 94.3781 54.9915 98.3994 62.5341C102.427 70.8045 104.927 79.7348 105.779 88.8944H111.551Z" fill="white"/>
</g>
<defs>
<filter id="filter0_iii_918_1680" x="-0.0621338" y="-0.494141" width="135.835" height="135.835" filterUnits="userSpaceOnUse" color-interpolation-filters="sRGB">
<feFlood flood-opacity="0" result="BackgroundImageFix"/>
<feBlend mode="normal" in="SourceGraphic" in2="BackgroundImageFix" result="shape"/>
<feColorMatrix in="SourceAlpha" type="matrix" values="0 0 0 0 0 0 0 0 0 0 0 0 0 0 0 0 0 0 127 0" result="hardAlpha"/>
<feOffset dx="1" dy="1"/>
<feGaussianBlur stdDeviation="1.5"/>
<feComposite in2="hardAlpha" operator="arithmetic" k2="-1" k3="1"/>
<feColorMatrix type="matrix" values="0 0 0 0 0.884722 0 0 0 0 0.931382 0 0 0 0 1 0 0 0 1 0"/>
<feBlend mode="normal" in2="shape" result="effect1_innerShadow_918_1680"/>
<feColorMatrix in="SourceAlpha" type="matrix" values="0 0 0 0 0 0 0 0 0 0 0 0 0 0 0 0 0 0 127 0" result="hardAlpha"/>
<feOffset dx="-1" dy="-1"/>
<feGaussianBlur stdDeviation="2.4"/>
<feComposite in2="hardAlpha" operator="arithmetic" k2="-1" k3="1"/>
<feColorMatrix type="matrix" values="0 0 0 0 0.196078 0 0 0 0 0.329412 0 0 0 0 0.52549 0 0 0 0.2 0"/>
<feBlend mode="normal" in2="effect1_innerShadow_918_1680" result="effect2_innerShadow_918_1680"/>
<feColorMatrix in="SourceAlpha" type="matrix" values="0 0 0 0 0 0 0 0 0 0 0 0 0 0 0 0 0 0 127 0" result="hardAlpha"/>
<feOffset dx="3" dy="3"/>
<feGaussianBlur stdDeviation="4.25"/>
<feComposite in2="hardAlpha" operator="arithmetic" k2="-1" k3="1"/>
<feColorMatrix type="matrix" values="0 0 0 0 0.223529 0 0 0 0 0.341176 0 0 0 0 0.513726 0 0 0 0.17 0"/>
<feBlend mode="normal" in2="effect2_innerShadow_918_1680" result="effect3_innerShadow_918_1680"/>
</filter>
<filter id="filter1_i_918_1680" x="14.6666" y="14.2354" width="103.374" height="107.374" filterUnits="userSpaceOnUse" color-interpolation-filters="sRGB">
<feFlood flood-opacity="0" result="BackgroundImageFix"/>
<feBlend mode="normal" in="SourceGraphic" in2="BackgroundImageFix" result="shape"/>
<feColorMatrix in="SourceAlpha" type="matrix" values="0 0 0 0 0 0 0 0 0 0 0 0 0 0 0 0 0 0 127 0" result="hardAlpha"/>
<feOffset dy="4"/>
<feGaussianBlur stdDeviation="2"/>
<feComposite in2="hardAlpha" operator="arithmetic" k2="-1" k3="1"/>
<feColorMatrix type="matrix" values="0 0 0 0 0.223529 0 0 0 0 0.341176 0 0 0 0 0.513726 0 0 0 0.25 0"/>
<feBlend mode="normal" in2="shape" result="effect1_innerShadow_918_1680"/>
</filter>
<linearGradient id="paint0_linear_918_1680" x1="-4.81354" y1="-7.71617" x2="132.597" y2="145.503" gradientUnits="userSpaceOnUse">
<stop stop-color="white"/>
<stop offset="1" stop-color="#F3F5FA" stop-opacity="0.7"/>
</linearGradient>
</defs>
</svg>
