<svg width="144" height="145" viewBox="0 0 144 145" fill="none" xmlns="http://www.w3.org/2000/svg">
<g filter="url(#filter0_ddii_918_1676)">
<rect x="5.93787" y="6.64746" width="131.835" height="131.835" rx="4" fill="url(#paint0_linear_918_1676)" shape-rendering="crispEdges"/>
</g>
<path d="M81.6908 104.663C81.6908 103.902 81.3883 103.172 80.8497 102.633C80.3112 102.095 79.5809 101.792 78.8193 101.792H61.5903C60.8288 101.792 60.0984 102.095 59.5599 102.633C59.0214 103.172 58.7188 103.902 58.7188 104.663C58.7188 105.425 59.0214 106.155 59.5599 106.694C60.0984 107.232 60.8288 107.535 61.5903 107.535H78.8193C79.5809 107.535 80.3112 107.232 80.8497 106.694C81.3883 106.155 81.6908 105.425 81.6908 104.663Z" fill="#C0D1FF"/>
<path d="M84.39 90.3066H67.161C66.3995 90.3066 65.6691 90.6092 65.1306 91.1477C64.5921 91.6862 64.2896 92.4166 64.2896 93.1781C64.2896 93.9397 64.5921 94.6701 65.1306 95.2086C65.6691 95.7471 66.3995 96.0496 67.161 96.0496H84.39C85.1516 96.0496 85.8819 95.7471 86.4205 95.2086C86.959 94.6701 87.2615 93.9397 87.2615 93.1781C87.2615 92.4166 86.959 91.6862 86.4205 91.1477C85.8819 90.6092 85.1516 90.3066 84.39 90.3066Z" fill="#C0D1FF"/>
<path d="M82.8394 113.278H65.6104C64.8488 113.278 64.1185 113.581 63.58 114.119C63.0415 114.658 62.7389 115.388 62.7389 116.15C62.7389 116.911 63.0415 117.642 63.58 118.18C64.1185 118.719 64.8488 119.021 65.6104 119.021H82.8394C83.6009 119.021 84.3313 118.719 84.8698 118.18C85.4083 117.642 85.7109 116.911 85.7109 116.15C85.7109 115.388 85.4083 114.658 84.8698 114.119C84.3313 113.581 83.6009 113.278 82.8394 113.278Z" fill="#C0D1FF"/>
<path d="M113.564 113.278H93.4639C92.7023 113.278 91.972 113.581 91.4334 114.119C90.8949 114.658 90.5924 115.388 90.5924 116.15C90.5924 116.911 90.8949 117.642 91.4334 118.18C91.972 118.719 92.7023 119.021 93.4639 119.021H113.564C114.326 119.021 115.056 118.719 115.595 118.18C116.133 117.642 116.436 116.911 116.436 116.15C116.436 115.388 116.133 114.658 115.595 114.119C115.056 113.581 114.326 113.278 113.564 113.278Z" fill="#C0D1FF"/>
<path d="M116.436 101.792H96.3354C95.5739 101.792 94.8435 102.095 94.305 102.633C93.7665 103.172 93.4639 103.902 93.4639 104.663C93.4639 105.425 93.7665 106.155 94.305 106.694C94.8435 107.232 95.5739 107.535 96.3354 107.535H116.436C117.197 107.535 117.928 107.232 118.466 106.694C119.005 106.155 119.307 105.425 119.307 104.663C119.307 103.902 119.005 103.172 118.466 102.633C117.928 102.095 117.197 101.792 116.436 101.792Z" fill="#C0D1FF"/>
<path d="M116.551 96.0496C115.709 85.939 112.962 76.079 108.453 66.9901C104.134 58.7769 97.9114 51.7172 90.3053 46.4015L97.1969 31.2113C97.419 30.7573 97.5174 30.2528 97.4822 29.7486C97.4469 29.2444 97.2791 28.7584 96.9959 28.3398C96.7345 27.9726 96.3903 27.6721 95.9912 27.4626C95.5922 27.253 95.1493 27.1404 94.6987 27.1338H47.8072C47.3244 27.1326 46.8492 27.2531 46.4254 27.4842C46.0016 27.7153 45.6429 28.0495 45.3824 28.4559C45.122 28.8624 44.9682 29.3279 44.9352 29.8095C44.9023 30.2911 44.9914 30.7732 45.1941 31.2113L52.2293 46.4589C44.6786 51.7796 38.4983 58.8161 34.1963 66.9901C28.0226 78.4761 26.0987 92.5177 25.5818 102.252C25.4972 103.677 25.7086 105.104 26.2028 106.444C26.697 107.783 27.4633 109.005 28.4533 110.034C29.4938 111.044 30.7259 111.837 32.077 112.364C33.4282 112.892 34.8712 113.144 36.3212 113.106H54.1245V107.536H36.0915C35.4416 107.534 34.7989 107.4 34.2018 107.144C33.6047 106.887 33.0657 106.513 32.617 106.042C32.1676 105.576 31.8205 105.021 31.598 104.413C31.3755 103.805 31.2825 103.157 31.3248 102.51C31.7268 95.0159 33.3061 80.7446 39.2501 69.6319C43.4403 61.6695 49.6364 54.9389 57.2257 50.1057H60.0972C58.1513 52.7976 56.3585 55.597 54.7275 58.4905C53.0662 61.5694 51.6547 64.7766 50.5064 68.0813L54.4403 70.7231C55.6026 67.2945 57.0332 63.9628 58.7188 60.759C60.7888 57.0337 63.1407 53.4722 65.754 50.1057H68.6255C70.5518 54.7099 71.9114 59.531 72.6743 64.4632C73.2981 68.1247 73.6055 71.833 73.5932 75.5472L78.1301 72.3598C78.0037 69.472 77.6968 66.5949 77.2113 63.7453C76.4408 59.0883 75.2096 54.5193 73.5358 50.1057H75.7755L78.3886 44.3628H57.599L52.2867 32.8768H90.2191L83.0404 48.5839C84.2709 49.243 85.4514 49.9916 86.5723 50.8236C93.6079 55.6776 99.378 62.1468 103.399 69.6893C107.427 77.9598 109.927 86.89 110.779 96.0496H116.551Z" fill="#C0D1FF"/>
<defs>
<filter id="filter0_ddii_918_1676" x="0.137866" y="0.847461" width="143.635" height="143.635" filterUnits="userSpaceOnUse" color-interpolation-filters="sRGB">
<feFlood flood-opacity="0" result="BackgroundImageFix"/>
<feColorMatrix in="SourceAlpha" type="matrix" values="0 0 0 0 0 0 0 0 0 0 0 0 0 0 0 0 0 0 127 0" result="hardAlpha"/>
<feOffset dx="-1" dy="-1"/>
<feGaussianBlur stdDeviation="2.4"/>
<feComposite in2="hardAlpha" operator="out"/>
<feColorMatrix type="matrix" values="0 0 0 0 0.890278 0 0 0 0 0.934689 0 0 0 0 1 0 0 0 1 0"/>
<feBlend mode="normal" in2="BackgroundImageFix" result="effect1_dropShadow_918_1676"/>
<feColorMatrix in="SourceAlpha" type="matrix" values="0 0 0 0 0 0 0 0 0 0 0 0 0 0 0 0 0 0 127 0" result="hardAlpha"/>
<feOffset dx="1" dy="1"/>
<feGaussianBlur stdDeviation="2.5"/>
<feComposite in2="hardAlpha" operator="out"/>
<feColorMatrix type="matrix" values="0 0 0 0 0.875 0 0 0 0 0.925596 0 0 0 0 1 0 0 0 0.22 0"/>
<feBlend mode="normal" in2="effect1_dropShadow_918_1676" result="effect2_dropShadow_918_1676"/>
<feBlend mode="normal" in="SourceGraphic" in2="effect2_dropShadow_918_1676" result="shape"/>
<feColorMatrix in="SourceAlpha" type="matrix" values="0 0 0 0 0 0 0 0 0 0 0 0 0 0 0 0 0 0 127 0" result="hardAlpha"/>
<feOffset dx="1" dy="1"/>
<feGaussianBlur stdDeviation="1.5"/>
<feComposite in2="hardAlpha" operator="arithmetic" k2="-1" k3="1"/>
<feColorMatrix type="matrix" values="0 0 0 0 0.884722 0 0 0 0 0.931382 0 0 0 0 1 0 0 0 1 0"/>
<feBlend mode="normal" in2="shape" result="effect3_innerShadow_918_1676"/>
<feColorMatrix in="SourceAlpha" type="matrix" values="0 0 0 0 0 0 0 0 0 0 0 0 0 0 0 0 0 0 127 0" result="hardAlpha"/>
<feOffset dx="-1" dy="-1"/>
<feGaussianBlur stdDeviation="1.9"/>
<feComposite in2="hardAlpha" operator="arithmetic" k2="-1" k3="1"/>
<feColorMatrix type="matrix" values="0 0 0 0 0.196078 0 0 0 0 0.329412 0 0 0 0 0.52549 0 0 0 0.4 0"/>
<feBlend mode="normal" in2="effect3_innerShadow_918_1676" result="effect4_innerShadow_918_1676"/>
</filter>
<linearGradient id="paint0_linear_918_1676" x1="0.186461" y1="-1.57457" x2="137.597" y2="151.645" gradientUnits="userSpaceOnUse">
<stop stop-color="white"/>
<stop offset="1" stop-color="#F3F5FA" stop-opacity="0.7"/>
</linearGradient>
</defs>
</svg>
