<svg width="145" height="145" viewBox="0 0 145 145" fill="none" xmlns="http://www.w3.org/2000/svg">
<g filter="url(#filter0_ddii_918_1678)">
<rect x="6.51721" y="6.64746" width="131.835" height="131.835" rx="4" fill="url(#paint0_linear_918_1678)" shape-rendering="crispEdges"/>
</g>
<path d="M91.1887 117.417H53.6904C52.8616 117.417 52.0668 117.087 51.4808 116.501C50.8948 115.915 50.5655 115.121 50.5655 114.292C50.5655 113.463 50.8948 112.668 51.4808 112.082C52.0668 111.496 52.8616 111.167 53.6904 111.167H91.1887C92.0175 111.167 92.8123 111.496 93.3983 112.082C93.9844 112.668 94.3136 113.463 94.3136 114.292C94.3136 115.121 93.9844 115.915 93.3983 116.501C92.8123 117.087 92.0175 117.417 91.1887 117.417Z" fill="#C0D1FF"/>
<path d="M69.3147 42.4199H75.5644V112.729H69.3147V42.4199Z" fill="#C0D1FF"/>
<path d="M103.688 36.1696H41.191C40.3622 36.1696 39.5674 35.8404 38.9814 35.2544C38.3953 34.6684 38.0661 33.8735 38.0661 33.0448C38.0661 32.216 38.3953 31.4212 38.9814 30.8352C39.5674 30.2491 40.3622 29.9199 41.191 29.9199H103.688C104.517 29.9199 105.312 30.2491 105.898 30.8352C106.484 31.4212 106.813 32.216 106.813 33.0448C106.813 33.8735 106.484 34.6684 105.898 35.2544C105.312 35.8404 104.517 36.1696 103.688 36.1696Z" fill="#C0D1FF"/>
<path d="M100.345 91.761C96.824 91.7744 93.349 90.9648 90.1968 89.3969C87.0446 87.8289 84.3024 85.546 82.1891 82.7302L80.3142 80.2303L85.2827 76.4492L87.1576 78.9491C88.6961 80.9817 90.6846 82.6301 92.9671 83.7651C95.2497 84.9001 97.7642 85.4907 100.313 85.4907C102.862 85.4907 105.377 84.9001 107.659 83.7651C109.942 82.6301 111.931 80.9817 113.469 78.9491L115.344 76.4492L120.312 80.2303L118.438 82.7302C116.331 85.5375 113.598 87.8153 110.458 89.3828C107.317 90.9504 103.855 91.7647 100.345 91.761Z" fill="#C0D1FF"/>
<path d="M111.532 74.4499C111.047 74.448 110.573 74.3052 110.168 74.0389C109.763 73.7725 109.444 73.3942 109.25 72.95L100.345 52.4197L91.4387 72.95C91.1735 73.5591 90.6772 74.038 90.0589 74.2812C89.4407 74.5244 88.7511 74.512 88.142 74.2468C87.5328 73.9816 87.054 73.4853 86.8108 72.867C86.5676 72.2488 86.58 71.5592 86.8452 70.9501L98.0634 45.1387C98.2832 44.7198 98.6134 44.369 99.0182 44.1242C99.423 43.8794 99.8871 43.75 100.36 43.75C100.833 43.75 101.297 43.8794 101.702 44.1242C102.107 44.369 102.437 44.7198 102.657 45.1387L113.844 70.9501C114.01 71.3297 114.078 71.7446 114.044 72.1574C114.01 72.5703 113.873 72.9681 113.647 73.3151C113.421 73.6621 113.112 73.9475 112.748 74.1456C112.384 74.3437 111.977 74.4483 111.563 74.4499H111.532Z" fill="#C0D1FF"/>
<path d="M46.4407 91.761C42.9254 91.7695 39.4566 90.9576 36.3102 89.3899C33.1638 87.8221 30.4267 85.5417 28.3165 82.7302L26.4416 80.2303L31.3789 76.4805L33.2538 78.9804C34.7923 81.0129 36.7808 82.6614 39.0633 83.7963C41.3458 84.9313 43.8603 85.522 46.4095 85.522C48.9586 85.522 51.4731 84.9313 53.7556 83.7963C56.0382 82.6614 58.0267 81.0129 59.5651 78.9804L61.4401 76.4805L66.4086 80.2616L64.5337 82.7614C62.4234 85.563 59.6898 87.8348 56.5495 89.3968C53.4091 90.9589 49.9481 91.7683 46.4407 91.761Z" fill="#C0D1FF"/>
<path d="M57.6277 74.4499C57.143 74.448 56.6693 74.3052 56.2643 74.0389C55.8593 73.7725 55.5405 73.3942 55.3466 72.95L46.4407 52.4197L37.5661 72.95C37.3009 73.5591 36.8046 74.038 36.1863 74.2812C35.5681 74.5244 34.8785 74.512 34.2694 74.2468C33.6602 73.9816 33.1814 73.4853 32.9382 72.867C32.695 72.2488 32.7074 71.5592 32.9726 70.9501L44.1596 45.1387C44.3793 44.7198 44.7095 44.369 45.1144 44.1242C45.5192 43.8794 45.9833 43.75 46.4563 43.75C46.9294 43.75 47.3935 43.8794 47.7983 44.1242C48.2032 44.369 48.5333 44.7198 48.7531 45.1387L59.9401 70.9501C60.1058 71.3297 60.1746 71.7446 60.1402 72.1574C60.1059 72.5703 59.9694 72.9681 59.7432 73.3151C59.5171 73.6621 59.2082 73.9475 58.8444 74.1456C58.4805 74.3437 58.0732 74.4483 57.659 74.4499H57.6277Z" fill="#C0D1FF"/>
<defs>
<filter id="filter0_ddii_918_1678" x="0.717212" y="0.847461" width="143.635" height="143.635" filterUnits="userSpaceOnUse" color-interpolation-filters="sRGB">
<feFlood flood-opacity="0" result="BackgroundImageFix"/>
<feColorMatrix in="SourceAlpha" type="matrix" values="0 0 0 0 0 0 0 0 0 0 0 0 0 0 0 0 0 0 127 0" result="hardAlpha"/>
<feOffset dx="-1" dy="-1"/>
<feGaussianBlur stdDeviation="2.4"/>
<feComposite in2="hardAlpha" operator="out"/>
<feColorMatrix type="matrix" values="0 0 0 0 0.890278 0 0 0 0 0.934689 0 0 0 0 1 0 0 0 1 0"/>
<feBlend mode="normal" in2="BackgroundImageFix" result="effect1_dropShadow_918_1678"/>
<feColorMatrix in="SourceAlpha" type="matrix" values="0 0 0 0 0 0 0 0 0 0 0 0 0 0 0 0 0 0 127 0" result="hardAlpha"/>
<feOffset dx="1" dy="1"/>
<feGaussianBlur stdDeviation="2.5"/>
<feComposite in2="hardAlpha" operator="out"/>
<feColorMatrix type="matrix" values="0 0 0 0 0.875 0 0 0 0 0.925596 0 0 0 0 1 0 0 0 0.22 0"/>
<feBlend mode="normal" in2="effect1_dropShadow_918_1678" result="effect2_dropShadow_918_1678"/>
<feBlend mode="normal" in="SourceGraphic" in2="effect2_dropShadow_918_1678" result="shape"/>
<feColorMatrix in="SourceAlpha" type="matrix" values="0 0 0 0 0 0 0 0 0 0 0 0 0 0 0 0 0 0 127 0" result="hardAlpha"/>
<feOffset dx="1" dy="1"/>
<feGaussianBlur stdDeviation="1.5"/>
<feComposite in2="hardAlpha" operator="arithmetic" k2="-1" k3="1"/>
<feColorMatrix type="matrix" values="0 0 0 0 0.884722 0 0 0 0 0.931382 0 0 0 0 1 0 0 0 1 0"/>
<feBlend mode="normal" in2="shape" result="effect3_innerShadow_918_1678"/>
<feColorMatrix in="SourceAlpha" type="matrix" values="0 0 0 0 0 0 0 0 0 0 0 0 0 0 0 0 0 0 127 0" result="hardAlpha"/>
<feOffset dx="-1" dy="-1"/>
<feGaussianBlur stdDeviation="1.9"/>
<feComposite in2="hardAlpha" operator="arithmetic" k2="-1" k3="1"/>
<feColorMatrix type="matrix" values="0 0 0 0 0.196078 0 0 0 0 0.329412 0 0 0 0 0.52549 0 0 0 0.4 0"/>
<feBlend mode="normal" in2="effect3_innerShadow_918_1678" result="effect4_innerShadow_918_1678"/>
</filter>
<linearGradient id="paint0_linear_918_1678" x1="0.765807" y1="-1.57457" x2="138.176" y2="151.645" gradientUnits="userSpaceOnUse">
<stop stop-color="white"/>
<stop offset="1" stop-color="#F3F5FA" stop-opacity="0.7"/>
</linearGradient>
</defs>
</svg>
