<svg width="133" height="133" viewBox="0 0 133 133" fill="none" xmlns="http://www.w3.org/2000/svg">
<g filter="url(#filter0_iii_918_1682)">
<rect x="0.517212" y="0.505859" width="131.835" height="131.835" rx="4" fill="url(#paint0_linear_918_1682)"/>
</g>
<g filter="url(#filter1_i_918_1682)">
<path d="M85.1887 113.302H47.6904C46.8616 113.302 46.0668 112.973 45.4808 112.387C44.8948 111.801 44.5656 111.006 44.5656 110.178C44.5656 109.349 44.8948 108.554 45.4808 107.968C46.0668 107.382 46.8616 107.053 47.6904 107.053H85.1887C86.0175 107.053 86.8123 107.382 87.3984 107.968C87.9844 108.554 88.3136 109.349 88.3136 110.178C88.3136 111.006 87.9844 111.801 87.3984 112.387C86.8123 112.973 86.0175 113.302 85.1887 113.302Z" fill="white"/>
<path d="M63.3148 38.3057H69.5645V108.615H63.3148V38.3057Z" fill="white"/>
<path d="M97.6882 32.0554H35.191C34.3623 32.0554 33.5674 31.7262 32.9814 31.1401C32.3954 30.5541 32.0662 29.7593 32.0662 28.9305C32.0662 28.1018 32.3954 27.3069 32.9814 26.7209C33.5674 26.1349 34.3623 25.8057 35.191 25.8057H97.6882C98.517 25.8057 99.3118 26.1349 99.8978 26.7209C100.484 27.3069 100.813 28.1018 100.813 28.9305C100.813 29.7593 100.484 30.5541 99.8978 31.1401C99.3118 31.7262 98.517 32.0554 97.6882 32.0554Z" fill="white"/>
<path d="M94.3447 87.6468C90.8241 87.6602 87.3491 86.8506 84.1969 85.2826C81.0447 83.7147 78.3026 81.4317 76.1892 78.6159L74.3143 76.116L79.2829 72.335L81.1578 74.8349C82.6962 76.8674 84.6847 78.5159 86.9673 79.6508C89.2498 80.7858 91.7643 81.3765 94.3134 81.3765C96.8626 81.3765 99.3771 80.7858 101.66 79.6508C103.942 78.5159 105.931 76.8674 107.469 74.8349L109.344 72.335L114.313 76.116L112.438 78.6159C110.331 81.4232 107.598 83.701 104.458 85.2686C101.317 86.8362 97.8547 87.6504 94.3447 87.6468Z" fill="white"/>
<path d="M105.532 70.3357C105.047 70.3337 104.573 70.1909 104.168 69.9246C103.763 69.6583 103.444 69.28 103.25 68.8357L94.3446 48.3054L85.4387 68.8357C85.1735 69.4449 84.6772 69.9237 84.059 70.1669C83.4407 70.4101 82.7512 70.3978 82.142 70.1326C81.5329 69.8674 81.054 69.371 80.8108 68.7528C80.5676 68.1345 80.58 67.445 80.8452 66.8358L92.0634 41.0245C92.2832 40.6055 92.6134 40.2547 93.0182 40.0099C93.4231 39.7651 93.8871 39.6357 94.3602 39.6357C94.8333 39.6357 95.2974 39.7651 95.7022 40.0099C96.107 40.2547 96.4372 40.6055 96.657 41.0245L107.844 66.8358C108.01 67.2155 108.078 67.6304 108.044 68.0432C108.01 68.456 107.873 68.8538 107.647 69.2008C107.421 69.5479 107.112 69.8333 106.748 70.0314C106.384 70.2294 105.977 70.334 105.563 70.3357H105.532Z" fill="white"/>
<path d="M40.4408 87.6468C36.9254 87.6553 33.4566 86.8434 30.3102 85.2756C27.1639 83.7078 24.4267 81.4275 22.3166 78.6159L20.4417 76.116L25.3789 72.3662L27.2538 74.8661C28.7923 76.8987 30.7808 78.5471 33.0633 79.6821C35.3459 80.8171 37.8604 81.4077 40.4095 81.4077C42.9587 81.4077 45.4731 80.8171 47.7557 79.6821C50.0382 78.5471 52.0267 76.8987 53.5652 74.8661L55.4401 72.3662L60.4086 76.1473L58.5337 78.6472C56.4234 81.4487 53.6899 83.7205 50.5495 85.2826C47.4091 86.8446 43.9482 87.6541 40.4408 87.6468Z" fill="white"/>
<path d="M51.6278 70.3357C51.1431 70.3337 50.6694 70.1909 50.2644 69.9246C49.8594 69.6583 49.5405 69.28 49.3466 68.8357L40.4408 48.3054L31.5662 68.8357C31.301 69.4449 30.8047 69.9237 30.1864 70.1669C29.5681 70.4101 28.8786 70.3978 28.2695 70.1326C27.6603 69.8674 27.1815 69.371 26.9383 68.7528C26.6951 68.1345 26.7074 67.445 26.9726 66.8358L38.1596 41.0245C38.3794 40.6055 38.7096 40.2547 39.1144 40.0099C39.5193 39.7651 39.9833 39.6357 40.4564 39.6357C40.9295 39.6357 41.3936 39.7651 41.7984 40.0099C42.2032 40.2547 42.5334 40.6055 42.7532 41.0245L53.9402 66.8358C54.1059 67.2155 54.1746 67.6304 54.1403 68.0432C54.1059 68.456 53.9695 68.8538 53.7433 69.2008C53.5171 69.5479 53.2082 69.8333 52.8444 70.0314C52.4806 70.2294 52.0733 70.334 51.659 70.3357H51.6278Z" fill="white"/>
</g>
<defs>
<filter id="filter0_iii_918_1682" x="-0.482788" y="-0.494141" width="135.835" height="135.835" filterUnits="userSpaceOnUse" color-interpolation-filters="sRGB">
<feFlood flood-opacity="0" result="BackgroundImageFix"/>
<feBlend mode="normal" in="SourceGraphic" in2="BackgroundImageFix" result="shape"/>
<feColorMatrix in="SourceAlpha" type="matrix" values="0 0 0 0 0 0 0 0 0 0 0 0 0 0 0 0 0 0 127 0" result="hardAlpha"/>
<feOffset dx="1" dy="1"/>
<feGaussianBlur stdDeviation="1.5"/>
<feComposite in2="hardAlpha" operator="arithmetic" k2="-1" k3="1"/>
<feColorMatrix type="matrix" values="0 0 0 0 0.884722 0 0 0 0 0.931382 0 0 0 0 1 0 0 0 1 0"/>
<feBlend mode="normal" in2="shape" result="effect1_innerShadow_918_1682"/>
<feColorMatrix in="SourceAlpha" type="matrix" values="0 0 0 0 0 0 0 0 0 0 0 0 0 0 0 0 0 0 127 0" result="hardAlpha"/>
<feOffset dx="-1" dy="-1"/>
<feGaussianBlur stdDeviation="2.4"/>
<feComposite in2="hardAlpha" operator="arithmetic" k2="-1" k3="1"/>
<feColorMatrix type="matrix" values="0 0 0 0 0.196078 0 0 0 0 0.329412 0 0 0 0 0.52549 0 0 0 0.2 0"/>
<feBlend mode="normal" in2="effect1_innerShadow_918_1682" result="effect2_innerShadow_918_1682"/>
<feColorMatrix in="SourceAlpha" type="matrix" values="0 0 0 0 0 0 0 0 0 0 0 0 0 0 0 0 0 0 127 0" result="hardAlpha"/>
<feOffset dx="3" dy="3"/>
<feGaussianBlur stdDeviation="4.25"/>
<feComposite in2="hardAlpha" operator="arithmetic" k2="-1" k3="1"/>
<feColorMatrix type="matrix" values="0 0 0 0 0.223529 0 0 0 0 0.341176 0 0 0 0 0.513726 0 0 0 0.17 0"/>
<feBlend mode="normal" in2="effect2_innerShadow_918_1682" result="effect3_innerShadow_918_1682"/>
</filter>
<filter id="filter1_i_918_1682" x="10.1921" y="10.1816" width="112.495" height="116.495" filterUnits="userSpaceOnUse" color-interpolation-filters="sRGB">
<feFlood flood-opacity="0" result="BackgroundImageFix"/>
<feBlend mode="normal" in="SourceGraphic" in2="BackgroundImageFix" result="shape"/>
<feColorMatrix in="SourceAlpha" type="matrix" values="0 0 0 0 0 0 0 0 0 0 0 0 0 0 0 0 0 0 127 0" result="hardAlpha"/>
<feOffset dy="4"/>
<feGaussianBlur stdDeviation="2"/>
<feComposite in2="hardAlpha" operator="arithmetic" k2="-1" k3="1"/>
<feColorMatrix type="matrix" values="0 0 0 0 0.223529 0 0 0 0 0.341176 0 0 0 0 0.513726 0 0 0 0.25 0"/>
<feBlend mode="normal" in2="shape" result="effect1_innerShadow_918_1682"/>
</filter>
<linearGradient id="paint0_linear_918_1682" x1="-5.23419" y1="-7.71617" x2="132.176" y2="145.503" gradientUnits="userSpaceOnUse">
<stop stop-color="white"/>
<stop offset="1" stop-color="#F3F5FA" stop-opacity="0.7"/>
</linearGradient>
</defs>
</svg>
