<svg width="339" height="37" viewBox="0 0 339 37" fill="none" xmlns="http://www.w3.org/2000/svg">
<path d="M11.2886 29.1313C10.8279 29.1313 10.4439 28.9778 10.1367 28.6706C9.82952 28.3634 9.67593 27.9922 9.67593 27.557L9.67593 3.8271H12.9398L12.9398 27.557C12.9398 27.9922 12.7862 28.3634 12.479 28.6706C12.1718 28.9778 11.775 29.1313 11.2886 29.1313ZM2.38032 5.17103C1.94514 5.17103 1.57396 5.04304 1.26678 4.78705C0.985195 4.50547 0.844403 4.14709 0.844403 3.71191C0.844403 3.27673 0.985195 2.93115 1.26678 2.67517C1.57396 2.39358 1.94514 2.25279 2.38032 2.25279H20.2354C20.6705 2.25279 21.0417 2.39358 21.3489 2.67517C21.6561 2.93115 21.8097 3.27673 21.8097 3.71191C21.8097 4.17268 21.6561 4.53107 21.3489 4.78705C21.0417 5.04304 20.6705 5.17103 20.2354 5.17103H2.38032ZM40.1336 19.1479C40.1336 21.1446 39.6856 22.9237 38.7897 24.4852C37.9193 26.0467 36.729 27.2754 35.2187 28.1714C33.7339 29.0674 32.0572 29.5153 30.1885 29.5153C28.3198 29.5153 26.6303 29.0674 25.12 28.1714C23.6097 27.2754 22.4065 26.0467 21.5106 24.4852C20.6402 22.9237 20.2051 21.1446 20.2051 19.1479C20.2051 17.1512 20.6402 15.3721 21.5106 13.8106C22.4065 12.2491 23.6097 11.0203 25.12 10.1244C26.6303 9.22841 28.3198 8.78044 30.1885 8.78044C32.0572 8.78044 33.7339 9.22841 35.2187 10.1244C36.729 11.0203 37.9193 12.2491 38.7897 13.8106C39.6856 15.3721 40.1336 17.1512 40.1336 19.1479ZM37.0618 19.1479C37.0618 17.6632 36.7546 16.3576 36.1402 15.2313C35.5514 14.105 34.7323 13.2218 33.6827 12.5818C32.6588 11.9419 31.4941 11.6219 30.1885 11.6219C28.883 11.6219 27.7055 11.9419 26.6559 12.5818C25.632 13.2218 24.8128 14.105 24.1985 15.2313C23.5841 16.3576 23.2769 17.6632 23.2769 19.1479C23.2769 20.607 23.5841 21.8997 24.1985 23.0261C24.8128 24.1524 25.632 25.0484 26.6559 25.7139C27.7055 26.3539 28.883 26.6739 30.1885 26.6739C31.4941 26.6739 32.6588 26.3539 33.6827 25.7139C34.7323 25.0484 35.5514 24.1524 36.1402 23.0261C36.7546 21.8997 37.0618 20.607 37.0618 19.1479ZM61.1115 0.716871C61.5466 0.716871 61.905 0.870462 62.1866 1.17764C62.4938 1.45923 62.6474 1.81761 62.6474 2.25279V27.557C62.6474 27.9922 62.4938 28.3634 62.1866 28.6706C61.905 28.9778 61.5466 29.1313 61.1115 29.1313C60.6507 29.1313 60.2795 28.9778 59.9979 28.6706C59.7163 28.3634 59.5756 27.9922 59.5756 27.557V23.9092L60.3051 23.6404C60.3051 24.2548 60.1131 24.9076 59.7291 25.5987C59.3452 26.2643 58.8204 26.8915 58.1548 27.4802C57.4893 28.069 56.6957 28.5554 55.7742 28.9394C54.8782 29.3233 53.9055 29.5153 52.8559 29.5153C51.1408 29.5153 49.5793 29.0674 48.1714 28.1714C46.789 27.2754 45.6883 26.0467 44.8691 24.4852C44.0756 22.9237 43.6788 21.1446 43.6788 19.1479C43.6788 17.1256 44.0756 15.3337 44.8691 13.7722C45.6883 12.2107 46.789 10.9947 48.1714 10.1244C49.5537 9.22841 51.0896 8.78044 52.7791 8.78044C53.8543 8.78044 54.8654 8.95963 55.8126 9.31801C56.7597 9.67639 57.5789 10.1628 58.27 10.7771C58.9868 11.3915 59.55 12.0699 59.9595 12.8122C60.3691 13.5546 60.5739 14.2969 60.5739 15.0393L59.5756 14.8089V2.25279C59.5756 1.81761 59.7163 1.45923 59.9979 1.17764C60.2795 0.870462 60.6507 0.716871 61.1115 0.716871ZM53.2015 26.6739C54.4814 26.6739 55.6078 26.3539 56.5805 25.7139C57.5789 25.0484 58.3468 24.1524 58.8844 23.0261C59.4476 21.8741 59.7291 20.5814 59.7291 19.1479C59.7291 17.6888 59.4476 16.396 58.8844 15.2697C58.3468 14.1433 57.5789 13.2602 56.5805 12.6202C55.6078 11.9547 54.4814 11.6219 53.2015 11.6219C51.9472 11.6219 50.8208 11.9547 49.8225 12.6202C48.8497 13.2602 48.0818 14.1433 47.5186 15.2697C46.9554 16.396 46.6738 17.6888 46.6738 19.1479C46.6738 20.5558 46.9554 21.8357 47.5186 22.9877C48.0818 24.114 48.8497 25.01 49.8225 25.6755C50.8208 26.3411 51.9472 26.6739 53.2015 26.6739ZM84.6977 9.08762C85.1329 9.08762 85.4913 9.24121 85.7728 9.5484C86.08 9.82998 86.2336 10.1884 86.2336 10.6235V27.557C86.2336 27.9922 86.08 28.3634 85.7728 28.6706C85.4913 28.9778 85.1329 29.1313 84.6977 29.1313C84.2369 29.1313 83.8657 28.9778 83.5842 28.6706C83.3026 28.3634 83.1618 27.9922 83.1618 27.557V23.9092L83.8913 23.8324C83.8913 24.3956 83.6994 25.01 83.3154 25.6755C82.9314 26.3411 82.4066 26.9683 81.7411 27.557C81.0755 28.1202 80.2819 28.5938 79.3604 28.9778C78.4644 29.3361 77.4917 29.5153 76.4421 29.5153C74.7014 29.5153 73.1399 29.0674 71.7576 28.1714C70.3753 27.2498 69.2745 26.0083 68.4554 24.4468C67.6618 22.8853 67.265 21.1062 67.265 19.1095C67.265 17.0872 67.6618 15.3081 68.4554 13.7722C69.2745 12.2107 70.3753 10.9947 71.7576 10.1244C73.1399 9.22841 74.6758 8.78044 76.3654 8.78044C77.4661 8.78044 78.49 8.95963 79.4372 9.31801C80.3843 9.67639 81.2035 10.1628 81.8947 10.7771C82.6114 11.3915 83.1618 12.0699 83.5458 12.8122C83.9553 13.5546 84.1601 14.2969 84.1601 15.0393L83.1618 14.8089V10.6235C83.1618 10.1884 83.3026 9.82998 83.5842 9.5484C83.8657 9.24121 84.2369 9.08762 84.6977 9.08762ZM76.7877 26.6739C78.0677 26.6739 79.194 26.3411 80.1667 25.6755C81.1651 25.01 81.9331 24.114 82.4706 22.9877C83.0338 21.8357 83.3154 20.543 83.3154 19.1095C83.3154 17.7016 83.0338 16.4344 82.4706 15.3081C81.9331 14.1561 81.1651 13.2602 80.1667 12.6202C79.194 11.9547 78.0677 11.6219 76.7877 11.6219C75.5334 11.6219 74.4071 11.9419 73.4087 12.5818C72.436 13.2218 71.668 14.105 71.1048 15.2313C70.5417 16.3576 70.2601 17.6504 70.2601 19.1095C70.2601 20.543 70.5289 21.8357 71.0664 22.9877C71.6296 24.114 72.3976 25.01 73.3703 25.6755C74.3687 26.3411 75.5078 26.6739 76.7877 26.6739ZM106.786 8.97243C107.222 8.97243 107.58 9.12602 107.862 9.4332C108.169 9.71479 108.322 10.0732 108.322 10.5083V27.2498C108.322 29.4001 107.9 31.1792 107.055 32.5872C106.21 34.0207 105.071 35.083 103.638 35.7742C102.23 36.4654 100.63 36.8109 98.838 36.8109C97.8397 36.8109 96.8798 36.7085 95.9582 36.5038C95.0366 36.299 94.2815 36.0302 93.6927 35.6974C93.2063 35.467 92.8608 35.1726 92.656 34.8142C92.4768 34.4815 92.4512 34.1231 92.5792 33.7391C92.7584 33.2783 93.0144 32.9583 93.3471 32.7792C93.7055 32.6 94.0767 32.6 94.4607 32.7792C94.8703 32.9583 95.459 33.2015 96.227 33.5087C97.0205 33.8415 97.9037 34.0079 98.8764 34.0079C100.208 34.0079 101.347 33.7519 102.294 33.2399C103.241 32.728 103.971 31.9728 104.483 30.9744C104.995 30.0017 105.251 28.7858 105.251 27.3266V24.6004L105.711 25.5603C105.302 26.3539 104.751 27.0451 104.06 27.6338C103.369 28.2226 102.575 28.6834 101.679 29.0162C100.784 29.3489 99.798 29.5153 98.7229 29.5153C97.2637 29.5153 96.0222 29.2081 94.9983 28.5938C93.9999 27.9538 93.2319 27.0835 92.6944 25.9827C92.1824 24.8564 91.9264 23.5636 91.9264 22.1045V10.5083C91.9264 10.0732 92.0672 9.71479 92.3488 9.4332C92.656 9.12602 93.0272 8.97243 93.4623 8.97243C93.9231 8.97243 94.2943 9.12602 94.5759 9.4332C94.8575 9.71479 94.9983 10.0732 94.9983 10.5083V21.4134C94.9983 23.1541 95.3822 24.4724 96.1502 25.3683C96.9181 26.2387 98.1085 26.6739 99.7212 26.6739C100.745 26.6739 101.667 26.4435 102.486 25.9827C103.331 25.5219 103.996 24.8948 104.483 24.1012C104.995 23.2821 105.251 22.3861 105.251 21.4134V10.5083C105.251 10.0732 105.391 9.71479 105.673 9.4332C105.954 9.12602 106.326 8.97243 106.786 8.97243ZM113.59 3.51992C113.693 2.67516 114.166 2.25279 115.011 2.25279H116.24C116.701 2.25279 117.008 2.39358 117.161 2.67517C117.341 2.93115 117.353 3.27673 117.2 3.71191L114.704 11.8907C114.499 12.5306 114.077 12.8506 113.437 12.8506C112.899 12.8506 112.669 12.4538 112.746 11.6603L113.59 3.51992ZM120.586 25.9827C120.356 25.6499 120.253 25.3044 120.279 24.946C120.305 24.562 120.522 24.2292 120.932 23.9476C121.188 23.7684 121.482 23.6916 121.815 23.7172C122.173 23.7428 122.493 23.9092 122.775 24.2164C123.492 25.0612 124.311 25.7395 125.232 26.2515C126.154 26.7379 127.28 26.9811 128.611 26.9811C129.226 26.9555 129.84 26.8531 130.455 26.6739C131.069 26.4947 131.581 26.1875 131.99 25.7523C132.426 25.2916 132.643 24.69 132.643 23.9476C132.643 23.2309 132.426 22.6677 131.99 22.2581C131.555 21.8229 130.992 21.4774 130.301 21.2214C129.61 20.9398 128.855 20.6966 128.035 20.4918C127.191 20.2614 126.359 20.0054 125.54 19.7239C124.72 19.4167 123.978 19.0455 123.313 18.6103C122.673 18.1495 122.148 17.5864 121.738 16.9208C121.354 16.2296 121.162 15.3977 121.162 14.4249C121.162 13.273 121.469 12.2747 122.084 11.4299C122.724 10.5851 123.569 9.93238 124.618 9.4716C125.693 9.01083 126.858 8.78044 128.112 8.78044C128.829 8.78044 129.571 8.87003 130.339 9.04922C131.133 9.20282 131.901 9.4844 132.643 9.89398C133.386 10.278 134.038 10.8155 134.602 11.5067C134.832 11.7627 134.96 12.0827 134.986 12.4666C135.011 12.8506 134.845 13.1962 134.486 13.5034C134.205 13.7082 133.885 13.7978 133.526 13.7722C133.194 13.7466 132.912 13.6186 132.682 13.3882C132.144 12.7482 131.466 12.2619 130.647 11.9291C129.853 11.5707 128.97 11.3915 127.997 11.3915C127.383 11.3915 126.781 11.4811 126.192 11.6603C125.604 11.8395 125.104 12.1467 124.695 12.5818C124.311 12.9914 124.119 13.5674 124.119 14.3097C124.144 15.0009 124.375 15.5641 124.81 15.9993C125.245 16.4344 125.834 16.7928 126.576 17.0744C127.319 17.3304 128.138 17.5864 129.034 17.8424C129.853 18.0471 130.634 18.2903 131.376 18.5719C132.144 18.8279 132.835 19.1735 133.45 19.6087C134.064 20.0438 134.55 20.607 134.909 21.2982C135.267 21.9637 135.446 22.8085 135.446 23.8324C135.446 25.01 135.113 26.0339 134.448 26.9043C133.782 27.749 132.899 28.4018 131.798 28.8626C130.723 29.2977 129.559 29.5153 128.304 29.5153C126.896 29.5153 125.501 29.2465 124.119 28.709C122.762 28.1714 121.585 27.2626 120.586 25.9827ZM170.888 2.25279C171.324 2.25279 171.669 2.39358 171.925 2.67517C172.181 2.93115 172.309 3.26393 172.309 3.67351V27.5186C172.309 28.005 172.156 28.4018 171.848 28.709C171.541 28.9906 171.17 29.1313 170.735 29.1313C170.505 29.1313 170.274 29.0929 170.044 29.0162C169.813 28.9138 169.634 28.7858 169.506 28.6322L153.072 6.89894L153.84 6.43816V27.7106C153.84 28.1202 153.699 28.4658 153.417 28.7474C153.161 29.0034 152.816 29.1313 152.381 29.1313C151.971 29.1313 151.638 29.0034 151.382 28.7474C151.126 28.4658 150.998 28.1202 150.998 27.7106V3.78871C150.998 3.32793 151.139 2.95675 151.421 2.67517C151.728 2.39358 152.086 2.25279 152.496 2.25279C152.726 2.25279 152.957 2.30398 153.187 2.40638C153.443 2.48318 153.635 2.61117 153.763 2.79036L169.967 24.2164L169.468 24.8308V3.67351C169.468 3.26393 169.596 2.93115 169.852 2.67517C170.133 2.39358 170.479 2.25279 170.888 2.25279ZM187.686 29.5153C185.638 29.5153 183.847 29.0802 182.311 28.2098C180.775 27.3394 179.572 26.1491 178.701 24.6388C177.857 23.1029 177.434 21.3366 177.434 19.3399C177.434 17.1128 177.869 15.2185 178.74 13.657C179.636 12.0699 180.788 10.8667 182.195 10.0476C183.629 9.20282 185.139 8.78044 186.726 8.78044C187.904 8.78044 189.043 8.99803 190.144 9.4332C191.245 9.86838 192.217 10.5083 193.062 11.3531C193.907 12.1723 194.585 13.1706 195.097 14.3481C195.609 15.5001 195.878 16.7928 195.904 18.2263C195.904 18.6359 195.75 18.9815 195.443 19.2631C195.136 19.5447 194.777 19.6855 194.368 19.6855H179.2L178.509 17.036H193.292L192.678 17.5736V16.7288C192.576 15.6793 192.217 14.7833 191.603 14.041C191.014 13.273 190.285 12.6842 189.414 12.2747C188.57 11.8651 187.674 11.6603 186.726 11.6603C185.958 11.6603 185.191 11.8011 184.423 12.0827C183.68 12.3386 183.002 12.7738 182.387 13.3882C181.799 13.977 181.312 14.7449 180.928 15.6921C180.57 16.6392 180.391 17.7784 180.391 19.1095C180.391 20.5942 180.685 21.8997 181.274 23.0261C181.888 24.1524 182.733 25.0484 183.808 25.7139C184.883 26.3539 186.138 26.6739 187.571 26.6739C188.467 26.6739 189.248 26.5587 189.913 26.3283C190.579 26.0979 191.155 25.8163 191.641 25.4835C192.128 25.1252 192.537 24.7668 192.87 24.4084C193.203 24.178 193.523 24.0628 193.83 24.0628C194.214 24.0628 194.521 24.1908 194.752 24.4468C195.008 24.7028 195.136 25.01 195.136 25.3683C195.136 25.8035 194.931 26.1875 194.521 26.5203C193.804 27.3138 192.832 28.0178 191.603 28.6322C190.374 29.2209 189.069 29.5153 187.686 29.5153ZM223.943 8.93403C224.353 8.93403 224.699 9.07482 224.98 9.35641C225.287 9.63799 225.441 10.0092 225.441 10.4699C225.441 10.5723 225.428 10.6875 225.402 10.8155C225.402 10.9179 225.377 11.0203 225.326 11.1227L219.412 28.133C219.284 28.4658 219.067 28.7218 218.76 28.901C218.478 29.0802 218.171 29.1569 217.838 29.1313C217.249 29.1057 216.801 28.773 216.494 28.133L211.656 15.9993L212.424 16.1144L208.047 28.133C207.765 28.773 207.317 29.1057 206.703 29.1313C206.37 29.1569 206.05 29.0802 205.743 28.901C205.436 28.7218 205.231 28.4658 205.128 28.133L199.1 11.1227C199.023 10.8923 198.985 10.6747 198.985 10.4699C198.985 10.0604 199.125 9.70199 199.407 9.39481C199.689 9.08762 200.073 8.93403 200.559 8.93403C200.866 8.93403 201.148 9.01083 201.404 9.16442C201.66 9.31801 201.839 9.5612 201.941 9.89398L207.125 25.0228L206.319 24.9844L210.811 13.465C211.067 12.825 211.541 12.505 212.232 12.505C212.59 12.505 212.872 12.5946 213.077 12.7738C213.307 12.9274 213.474 13.1578 213.576 13.465L218.26 24.9844L217.301 25.0612L222.484 9.89398C222.715 9.25401 223.201 8.93403 223.943 8.93403ZM228.281 25.9827C228.05 25.6499 227.948 25.3044 227.973 24.946C227.999 24.562 228.217 24.2292 228.626 23.9476C228.882 23.7684 229.176 23.6916 229.509 23.7172C229.868 23.7428 230.188 23.9092 230.469 24.2164C231.186 25.0612 232.005 25.7395 232.927 26.2515C233.848 26.7379 234.975 26.9811 236.306 26.9811C236.92 26.9555 237.534 26.8531 238.149 26.6739C238.763 26.4947 239.275 26.1875 239.685 25.7523C240.12 25.2916 240.337 24.69 240.337 23.9476C240.337 23.2309 240.12 22.6677 239.685 22.2581C239.25 21.8229 238.686 21.4774 237.995 21.2214C237.304 20.9398 236.549 20.6966 235.73 20.4918C234.885 20.2614 234.053 20.0054 233.234 19.7239C232.415 19.4167 231.672 19.0455 231.007 18.6103C230.367 18.1495 229.842 17.5864 229.432 16.9208C229.048 16.2296 228.856 15.3977 228.856 14.4249C228.856 13.273 229.164 12.2747 229.778 11.4299C230.418 10.5851 231.263 9.93238 232.312 9.4716C233.387 9.01083 234.552 8.78044 235.807 8.78044C236.523 8.78044 237.266 8.87003 238.034 9.04922C238.827 9.20282 239.595 9.4844 240.337 9.89398C241.08 10.278 241.733 10.8155 242.296 11.5067C242.526 11.7627 242.654 12.0827 242.68 12.4666C242.705 12.8506 242.539 13.1962 242.181 13.5034C241.899 13.7082 241.579 13.7978 241.221 13.7722C240.888 13.7466 240.606 13.6186 240.376 13.3882C239.838 12.7482 239.16 12.2619 238.341 11.9291C237.547 11.5707 236.664 11.3915 235.691 11.3915C235.077 11.3915 234.475 11.4811 233.887 11.6603C233.298 11.8395 232.799 12.1467 232.389 12.5818C232.005 12.9914 231.813 13.5674 231.813 14.3097C231.839 15.0009 232.069 15.5641 232.504 15.9993C232.939 16.4344 233.528 16.7928 234.271 17.0744C235.013 17.3304 235.832 17.5864 236.728 17.8424C237.547 18.0471 238.328 18.2903 239.07 18.5719C239.838 18.8279 240.529 19.1735 241.144 19.6087C241.758 20.0438 242.245 20.607 242.603 21.2982C242.961 21.9637 243.141 22.8085 243.141 23.8324C243.141 25.01 242.808 26.0339 242.142 26.9043C241.477 27.749 240.593 28.4018 239.493 28.8626C238.418 29.2977 237.253 29.5153 235.999 29.5153C234.591 29.5153 233.195 29.2465 231.813 28.709C230.456 28.1714 229.279 27.2626 228.281 25.9827ZM249.117 29.1313C248.681 29.1313 248.31 28.9778 248.003 28.6706C247.721 28.3634 247.581 27.9922 247.581 27.557V10.8155C247.581 10.3804 247.721 10.022 248.003 9.74039C248.31 9.4332 248.681 9.27961 249.117 9.27961C249.577 9.27961 249.948 9.4332 250.23 9.74039C250.512 10.022 250.652 10.3804 250.652 10.8155V15.8841L250.192 15.0777C250.345 14.2841 250.614 13.5162 250.998 12.7738C251.408 12.0059 251.92 11.3275 252.534 10.7387C253.148 10.1244 253.852 9.65079 254.646 9.31801C255.439 8.95963 256.31 8.78044 257.257 8.78044C257.82 8.78044 258.332 8.92123 258.793 9.20281C259.279 9.4588 259.522 9.82998 259.522 10.3164C259.522 10.8539 259.382 11.2507 259.1 11.5067C258.818 11.7627 258.498 11.8907 258.14 11.8907C257.807 11.8907 257.487 11.8267 257.18 11.6987C256.873 11.5451 256.489 11.4683 256.028 11.4683C255.388 11.4683 254.748 11.6475 254.108 12.0059C253.494 12.3386 252.918 12.825 252.38 13.465C251.868 14.105 251.446 14.8345 251.113 15.6537C250.806 16.4472 250.652 17.3048 250.652 18.2263V27.557C250.652 27.9922 250.499 28.3634 250.192 28.6706C249.91 28.9778 249.552 29.1313 249.117 29.1313ZM280.983 19.1479C280.983 21.1446 280.535 22.9237 279.639 24.4852C278.769 26.0467 277.579 27.2754 276.068 28.1714C274.584 29.0674 272.907 29.5153 271.038 29.5153C269.169 29.5153 267.48 29.0674 265.97 28.1714C264.459 27.2754 263.256 26.0467 262.36 24.4852C261.49 22.9237 261.055 21.1446 261.055 19.1479C261.055 17.1512 261.49 15.3721 262.36 13.8106C263.256 12.2491 264.459 11.0203 265.97 10.1244C267.48 9.22841 269.169 8.78044 271.038 8.78044C272.907 8.78044 274.584 9.22841 276.068 10.1244C277.579 11.0203 278.769 12.2491 279.639 13.8106C280.535 15.3721 280.983 17.1512 280.983 19.1479ZM277.911 19.1479C277.911 17.6632 277.604 16.3576 276.99 15.2313C276.401 14.105 275.582 13.2218 274.532 12.5818C273.508 11.9419 272.344 11.6219 271.038 11.6219C269.733 11.6219 268.555 11.9419 267.505 12.5818C266.482 13.2218 265.662 14.105 265.048 15.2313C264.434 16.3576 264.126 17.6632 264.126 19.1479C264.126 20.607 264.434 21.8997 265.048 23.0261C265.662 24.1524 266.482 25.0484 267.505 25.7139C268.555 26.3539 269.733 26.6739 271.038 26.6739C272.344 26.6739 273.508 26.3539 274.532 25.7139C275.582 25.0484 276.401 24.1524 276.99 23.0261C277.604 21.8997 277.911 20.607 277.911 19.1479ZM304.457 19.1479C304.457 21.1446 304.009 22.9237 303.113 24.4852C302.243 26.0467 301.052 27.2754 299.542 28.1714C298.057 29.0674 296.381 29.5153 294.512 29.5153C292.643 29.5153 290.954 29.0674 289.443 28.1714C287.933 27.2754 286.73 26.0467 285.834 24.4852C284.964 22.9237 284.528 21.1446 284.528 19.1479C284.528 17.1512 284.964 15.3721 285.834 13.8106C286.73 12.2491 287.933 11.0203 289.443 10.1244C290.954 9.22841 292.643 8.78044 294.512 8.78044C296.381 8.78044 298.057 9.22841 299.542 10.1244C301.052 11.0203 302.243 12.2491 303.113 13.8106C304.009 15.3721 304.457 17.1512 304.457 19.1479ZM301.385 19.1479C301.385 17.6632 301.078 16.3576 300.464 15.2313C299.875 14.105 299.056 13.2218 298.006 12.5818C296.982 11.9419 295.817 11.6219 294.512 11.6219C293.206 11.6219 292.029 11.9419 290.979 12.5818C289.955 13.2218 289.136 14.105 288.522 15.2313C287.907 16.3576 287.6 17.6632 287.6 19.1479C287.6 20.607 287.907 21.8997 288.522 23.0261C289.136 24.1524 289.955 25.0484 290.979 25.7139C292.029 26.3539 293.206 26.6739 294.512 26.6739C295.817 26.6739 296.982 26.3539 298.006 25.7139C299.056 25.0484 299.875 24.1524 300.464 23.0261C301.078 21.8997 301.385 20.607 301.385 19.1479ZM318.562 8.97243C320.302 8.97243 321.71 9.4204 322.785 10.3164C323.886 11.1867 324.616 12.4282 324.974 14.041H324.398L324.667 13.3498C324.974 12.633 325.499 11.9419 326.241 11.2763C326.984 10.6107 327.841 10.0604 328.814 9.62519C329.787 9.19002 330.798 8.97243 331.847 8.97243C333.537 8.97243 334.868 9.34361 335.841 10.086C336.813 10.8027 337.505 11.7755 337.914 13.0042C338.349 14.2073 338.567 15.5641 338.567 17.0744V27.557C338.567 27.9922 338.413 28.3634 338.106 28.6706C337.825 28.9778 337.466 29.1313 337.031 29.1313C336.57 29.1313 336.199 28.9778 335.917 28.6706C335.636 28.3634 335.495 27.9922 335.495 27.557V17.1512C335.495 16.1528 335.341 15.2569 335.034 14.4633C334.753 13.6442 334.279 13.0042 333.614 12.5434C332.974 12.0571 332.09 11.8139 330.964 11.8139C329.915 11.8139 328.955 12.0571 328.084 12.5434C327.214 13.0042 326.523 13.6442 326.011 14.4633C325.499 15.2569 325.243 16.1528 325.243 17.1512V27.557C325.243 27.9922 325.102 28.3634 324.82 28.6706C324.539 28.9778 324.168 29.1313 323.707 29.1313C323.272 29.1313 322.901 28.9778 322.593 28.6706C322.312 28.3634 322.171 27.9922 322.171 27.557V17.036C322.171 16.0632 322.03 15.1929 321.749 14.4249C321.493 13.6314 321.045 13.0042 320.405 12.5434C319.765 12.0571 318.882 11.8139 317.755 11.8139C316.731 11.8139 315.797 12.0571 314.952 12.5434C314.107 13.0042 313.429 13.6314 312.917 14.4249C312.405 15.1929 312.149 16.0632 312.149 17.036V27.557C312.149 27.9922 311.996 28.3634 311.688 28.6706C311.407 28.9778 311.048 29.1313 310.613 29.1313C310.178 29.1313 309.807 28.9778 309.5 28.6706C309.218 28.3634 309.077 27.9922 309.077 27.557V10.8155C309.077 10.3804 309.218 10.022 309.5 9.74039C309.807 9.4332 310.178 9.27961 310.613 9.27961C311.074 9.27961 311.445 9.4332 311.727 9.74039C312.008 10.022 312.149 10.3804 312.149 10.8155V13.7338L311.304 14.6553C311.407 13.9898 311.663 13.3242 312.072 12.6586C312.508 11.9931 313.058 11.3787 313.723 10.8155C314.389 10.2524 315.131 9.80438 315.951 9.4716C316.77 9.13882 317.64 8.97243 318.562 8.97243Z" fill="#4B5563"/>
</svg>
