<svg width="194" height="29" viewBox="0 0 194 29" fill="none" xmlns="http://www.w3.org/2000/svg">
<path d="M21.7316 2.88774C22.1668 3.11813 22.4099 3.46371 22.4611 3.92449C22.5379 4.38526 22.4227 4.80764 22.1156 5.19162C21.8852 5.5244 21.5908 5.70359 21.2324 5.72919C20.874 5.75479 20.5156 5.67799 20.1573 5.49881C19.3125 4.98683 18.4038 4.59005 17.431 4.30847C16.4583 4.00129 15.4343 3.84769 14.3592 3.84769C12.8489 3.84769 11.4665 4.11648 10.2122 4.65405C8.95787 5.16602 7.86993 5.89558 6.94837 6.84273C6.02682 7.78988 5.31006 8.91622 4.79809 10.2218C4.28612 11.5273 4.03013 12.9736 4.03013 14.5607C4.03013 16.2502 4.29892 17.7605 4.83649 19.0917C5.37406 20.4228 6.10362 21.5619 7.02517 22.5091C7.97232 23.4306 9.06026 24.1346 10.289 24.621C11.5433 25.1074 12.9001 25.3505 14.3592 25.3505C15.4087 25.3505 16.4199 25.2097 17.3926 24.9282C18.3654 24.6466 19.2869 24.237 20.1573 23.6994C20.5156 23.5202 20.874 23.4562 21.2324 23.5074C21.5908 23.5586 21.898 23.7378 22.154 24.045C22.4611 24.4546 22.5763 24.8898 22.4995 25.3505C22.4227 25.7857 22.1796 26.1057 21.77 26.3105C21.13 26.6945 20.4005 27.0529 19.5813 27.3856C18.7621 27.6928 17.9046 27.936 17.0086 28.1152C16.1383 28.2944 15.2551 28.384 14.3592 28.384C12.5161 28.384 10.7754 28.064 9.13706 27.424C7.49874 26.7841 6.05242 25.8625 4.79809 24.6594C3.54376 23.4562 2.54541 22.0099 1.80305 20.3204C1.08629 18.6053 0.727907 16.6854 0.727907 14.5607C0.727907 12.564 1.07349 10.7337 1.76465 9.06981C2.45581 7.4059 3.41576 5.95958 4.6445 4.73085C5.89883 3.50211 7.34515 2.54216 8.98347 1.851C10.6474 1.15984 12.4393 0.814257 14.3592 0.814257C15.6903 0.814257 16.983 0.993448 18.2374 1.35183C19.5173 1.71021 20.682 2.22218 21.7316 2.88774ZM45.4435 18.0165C45.4435 20.0132 44.9955 21.7923 44.0996 23.3538C43.2292 24.9154 42.0389 26.1441 40.5286 27.0401C39.0439 27.936 37.3671 28.384 35.4984 28.384C33.6297 28.384 31.9402 27.936 30.4299 27.0401C28.9196 26.1441 27.7165 24.9154 26.8205 23.3538C25.9502 21.7923 25.515 20.0132 25.515 18.0165C25.515 16.0198 25.9502 14.2407 26.8205 12.6792C27.7165 11.1177 28.9196 9.88897 30.4299 8.99302C31.9402 8.09707 33.6297 7.64909 35.4984 7.64909C37.3671 7.64909 39.0439 8.09707 40.5286 8.99302C42.0389 9.88897 43.2292 11.1177 44.0996 12.6792C44.9955 14.2407 45.4435 16.0198 45.4435 18.0165ZM42.3717 18.0165C42.3717 16.5318 42.0645 15.2263 41.4501 14.0999C40.8614 12.9736 40.0422 12.0905 38.9927 11.4505C37.9687 10.8105 36.804 10.4905 35.4984 10.4905C34.1929 10.4905 33.0154 10.8105 31.9658 11.4505C30.9419 12.0905 30.1227 12.9736 29.5084 14.0999C28.894 15.2263 28.5868 16.5318 28.5868 18.0165C28.5868 19.4757 28.894 20.7684 29.5084 21.8947C30.1227 23.0211 30.9419 23.917 31.9658 24.5826C33.0154 25.2225 34.1929 25.5425 35.4984 25.5425C36.804 25.5425 37.9687 25.2225 38.9927 24.5826C40.0422 23.917 40.8614 23.0211 41.4501 21.8947C42.0645 20.7684 42.3717 19.4757 42.3717 18.0165ZM59.5482 7.84108C61.2889 7.84108 62.6968 8.28906 63.7719 9.18501C64.8727 10.0554 65.6022 11.2969 65.9606 12.9096H65.3846L65.6534 12.2184C65.9606 11.5017 66.4854 10.8105 67.2277 10.145C67.9701 9.47939 68.8277 8.92902 69.8004 8.49385C70.7732 8.05867 71.7843 7.84108 72.8338 7.84108C74.5234 7.84108 75.8545 8.21226 76.8272 8.95462C77.8 9.67138 78.4911 10.6441 78.9007 11.8729C79.3359 13.076 79.5535 14.4327 79.5535 15.943V26.4257C79.5535 26.8609 79.3999 27.232 79.0927 27.5392C78.8111 27.8464 78.4527 28 78.0176 28C77.5568 28 77.1856 27.8464 76.904 27.5392C76.6224 27.232 76.4816 26.8609 76.4816 26.4257V16.0198C76.4816 15.0215 76.3281 14.1255 76.0209 13.332C75.7393 12.5128 75.2657 11.8729 74.6001 11.4121C73.9602 10.9257 73.077 10.6825 71.9507 10.6825C70.9011 10.6825 69.9412 10.9257 69.0708 11.4121C68.2005 11.8729 67.5093 12.5128 66.9974 13.332C66.4854 14.1255 66.2294 15.0215 66.2294 16.0198V26.4257C66.2294 26.8609 66.0886 27.232 65.807 27.5392C65.5254 27.8464 65.1543 28 64.6935 28C64.2583 28 63.8871 27.8464 63.5799 27.5392C63.2984 27.232 63.1576 26.8609 63.1576 26.4257V15.9046C63.1576 14.9319 63.0168 14.0615 62.7352 13.2936C62.4792 12.5 62.0312 11.8729 61.3913 11.4121C60.7513 10.9257 59.8681 10.6825 58.7418 10.6825C57.7179 10.6825 56.7835 10.9257 55.9387 11.4121C55.094 11.8729 54.4156 12.5 53.9037 13.2936C53.3917 14.0615 53.1357 14.9319 53.1357 15.9046L53.1357 26.4257C53.1357 26.8609 52.9821 27.232 52.6749 27.5392C52.3933 27.8464 52.035 28 51.5998 28C51.1646 28 50.7934 27.8464 50.4862 27.5392C50.2047 27.232 50.0639 26.8609 50.0639 26.4257L50.0639 9.68418C50.0639 9.249 50.2047 8.89062 50.4862 8.60904C50.7934 8.30186 51.1646 8.14826 51.5998 8.14826C52.0606 8.14826 52.4317 8.30186 52.7133 8.60904C52.9949 8.89062 53.1357 9.249 53.1357 9.68418V12.6024L52.2909 13.524C52.3933 12.8584 52.6493 12.1928 53.0589 11.5273C53.4941 10.8617 54.0444 10.2474 54.71 9.68418C55.3756 9.12101 56.1179 8.67304 56.9371 8.34025C57.7562 8.00747 58.6266 7.84108 59.5482 7.84108ZM94.7213 7.84108C96.462 7.84108 97.8699 8.28906 98.945 9.18501C100.046 10.0554 100.775 11.2969 101.134 12.9096H100.558L100.827 12.2184C101.134 11.5017 101.658 10.8105 102.401 10.145C103.143 9.47939 104.001 8.92902 104.974 8.49385C105.946 8.05867 106.957 7.84108 108.007 7.84108C109.696 7.84108 111.028 8.21226 112 8.95462C112.973 9.67138 113.664 10.6441 114.074 11.8729C114.509 13.076 114.727 14.4327 114.727 15.943V26.4257C114.727 26.8609 114.573 27.232 114.266 27.5392C113.984 27.8464 113.626 28 113.191 28C112.73 28 112.359 27.8464 112.077 27.5392C111.796 27.232 111.655 26.8609 111.655 26.4257V16.0198C111.655 15.0215 111.501 14.1255 111.194 13.332C110.912 12.5128 110.439 11.8729 109.773 11.4121C109.133 10.9257 108.25 10.6825 107.124 10.6825C106.074 10.6825 105.114 10.9257 104.244 11.4121C103.374 11.8729 102.682 12.5128 102.17 13.332C101.658 14.1255 101.403 15.0215 101.403 16.0198V26.4257C101.403 26.8609 101.262 27.232 100.98 27.5392C100.699 27.8464 100.327 28 99.8666 28C99.4314 28 99.0602 27.8464 98.7531 27.5392C98.4715 27.232 98.3307 26.8609 98.3307 26.4257V15.9046C98.3307 14.9319 98.1899 14.0615 97.9083 13.2936C97.6523 12.5 97.2043 11.8729 96.5644 11.4121C95.9244 10.9257 95.0413 10.6825 93.9149 10.6825C92.891 10.6825 91.9566 10.9257 91.1119 11.4121C90.2671 11.8729 89.5887 12.5 89.0768 13.2936C88.5648 14.0615 88.3088 14.9319 88.3088 15.9046V26.4257C88.3088 26.8609 88.1552 27.232 87.848 27.5392C87.5665 27.8464 87.2081 28 86.7729 28C86.3377 28 85.9665 27.8464 85.6594 27.5392C85.3778 27.232 85.237 26.8609 85.237 26.4257V9.68418C85.237 9.249 85.3778 8.89062 85.6594 8.60904C85.9665 8.30186 86.3377 8.14826 86.7729 8.14826C87.2337 8.14826 87.6049 8.30186 87.8864 8.60904C88.168 8.89062 88.3088 9.249 88.3088 9.68418V12.6024L87.4641 13.524C87.5665 12.8584 87.8224 12.1928 88.232 11.5273C88.6672 10.8617 89.2176 10.2474 89.8831 9.68418C90.5487 9.12101 91.2911 8.67304 92.1102 8.34025C92.9294 8.00747 93.7997 7.84108 94.7213 7.84108ZM129.587 28.384C127.539 28.384 125.747 27.9488 124.211 27.0784C122.676 26.2081 121.472 25.0178 120.602 23.5074C119.757 21.9715 119.335 20.2052 119.335 18.2085C119.335 15.9814 119.77 14.0871 120.64 12.5256C121.536 10.9385 122.688 9.73538 124.096 8.91622C125.53 8.07147 127.04 7.64909 128.627 7.64909C129.805 7.64909 130.944 7.86668 132.045 8.30186C133.145 8.73703 134.118 9.377 134.963 10.2218C135.808 11.0409 136.486 12.0393 136.998 13.2168C137.51 14.3687 137.779 15.6615 137.804 17.095C137.804 17.5046 137.651 17.8501 137.344 18.1317C137.036 18.4133 136.678 18.5541 136.268 18.5541H121.101L120.41 15.9046L135.193 15.9046L134.579 16.4422V15.5975C134.477 14.5479 134.118 13.652 133.504 12.9096C132.915 12.1416 132.185 11.5529 131.315 11.1433C130.47 10.7337 129.574 10.5289 128.627 10.5289C127.859 10.5289 127.091 10.6697 126.323 10.9513C125.581 11.2073 124.903 11.6425 124.288 12.2568C123.7 12.8456 123.213 13.6136 122.829 14.5607C122.471 15.5079 122.292 16.647 122.292 17.9781C122.292 19.4629 122.586 20.7684 123.175 21.8947C123.789 23.0211 124.634 23.917 125.709 24.5826C126.784 25.2225 128.038 25.5425 129.472 25.5425C130.368 25.5425 131.149 25.4273 131.814 25.197C132.48 24.9666 133.056 24.685 133.542 24.3522C134.029 23.9938 134.438 23.6354 134.771 23.2771C135.104 23.0467 135.424 22.9315 135.731 22.9315C136.115 22.9315 136.422 23.0595 136.652 23.3155C136.908 23.5714 137.036 23.8786 137.036 24.237C137.036 24.6722 136.832 25.0562 136.422 25.3889C135.705 26.1825 134.733 26.8865 133.504 27.5008C132.275 28.0896 130.97 28.384 129.587 28.384ZM152.29 7.64909C154.03 7.64909 155.4 8.00747 156.398 8.72423C157.397 9.44099 158.101 10.4009 158.51 11.6041C158.945 12.8072 159.163 14.1511 159.163 15.6359V26.4257C159.163 26.8609 159.009 27.232 158.702 27.5392C158.421 27.8464 158.062 28 157.627 28C157.192 28 156.821 27.8464 156.513 27.5392C156.232 27.232 156.091 26.8609 156.091 26.4257V15.7127C156.091 14.7399 155.937 13.8696 155.63 13.1016C155.349 12.308 154.862 11.6809 154.171 11.2201C153.506 10.7337 152.584 10.4905 151.407 10.4905C150.331 10.4905 149.346 10.7337 148.45 11.2201C147.554 11.6809 146.837 12.308 146.3 13.1016C145.762 13.8696 145.493 14.7399 145.493 15.7127V26.4257C145.493 26.8609 145.34 27.232 145.032 27.5392C144.751 27.8464 144.392 28 143.957 28C143.522 28 143.151 27.8464 142.844 27.5392C142.562 27.232 142.421 26.8609 142.421 26.4257V9.68418C142.421 9.249 142.562 8.89062 142.844 8.60904C143.151 8.30186 143.522 8.14826 143.957 8.14826C144.418 8.14826 144.789 8.30186 145.071 8.60904C145.352 8.89062 145.493 9.249 145.493 9.68418V12.4104L144.725 13.2552C144.853 12.5896 145.148 11.9241 145.608 11.2585C146.069 10.5673 146.645 9.95297 147.336 9.4154C148.028 8.87782 148.795 8.45545 149.64 8.14826C150.485 7.81548 151.368 7.64909 152.29 7.64909ZM164.077 8.26346L173.101 8.26346C173.51 8.26346 173.843 8.40425 174.099 8.68583C174.381 8.96742 174.521 9.3002 174.521 9.68418C174.521 10.0938 174.381 10.4393 174.099 10.7209C173.843 10.9769 173.51 11.1049 173.101 11.1049L164.077 11.1049C163.693 11.1049 163.36 10.9641 163.079 10.6825C162.797 10.4009 162.657 10.0554 162.657 9.64578C162.657 9.2618 162.797 8.94182 163.079 8.68583C163.36 8.40425 163.693 8.26346 164.077 8.26346ZM168.109 3.04134C168.544 3.04134 168.903 3.19493 169.184 3.50211C169.466 3.7837 169.607 4.14208 169.607 4.57726V23.1235C169.607 23.7378 169.696 24.1986 169.875 24.5058C170.055 24.813 170.285 25.0306 170.566 25.1586C170.874 25.2609 171.168 25.3121 171.45 25.3121C171.706 25.3121 171.923 25.2737 172.102 25.197C172.307 25.0946 172.538 25.0434 172.794 25.0434C173.05 25.0434 173.28 25.1714 173.485 25.4273C173.715 25.6577 173.83 25.9649 173.83 26.3489C173.83 26.8097 173.562 27.2064 173.024 27.5392C172.486 27.8464 171.885 28 171.219 28C170.861 28 170.413 27.9744 169.875 27.9232C169.363 27.872 168.851 27.7056 168.339 27.424C167.827 27.1424 167.392 26.6817 167.034 26.0417C166.701 25.3761 166.535 24.4546 166.535 23.2771V4.57726C166.535 4.14208 166.688 3.7837 166.995 3.50211C167.303 3.19493 167.674 3.04134 168.109 3.04134ZM178.431 24.8514C178.2 24.5186 178.098 24.173 178.124 23.8146C178.149 23.4306 178.367 23.0979 178.776 22.8163C179.032 22.6371 179.327 22.5603 179.66 22.5859C180.018 22.6115 180.338 22.7779 180.62 23.0851C181.336 23.9298 182.155 24.6082 183.077 25.1202C183.999 25.6065 185.125 25.8497 186.456 25.8497C187.07 25.8241 187.685 25.7217 188.299 25.5425C188.914 25.3633 189.425 25.0562 189.835 24.621C190.27 24.1602 190.488 23.5586 190.488 22.8163C190.488 22.0995 190.27 21.5363 189.835 21.1268C189.4 20.6916 188.837 20.346 188.146 20.09C187.454 19.8084 186.699 19.5653 185.88 19.3605C185.035 19.1301 184.203 18.8741 183.384 18.5925C182.565 18.2853 181.823 17.9141 181.157 17.479C180.517 17.0182 179.992 16.455 179.583 15.7895C179.199 15.0983 179.007 14.2663 179.007 13.2936C179.007 12.1416 179.314 11.1433 179.928 10.2985C180.568 9.45379 181.413 8.80103 182.463 8.34025C183.538 7.87948 184.703 7.64909 185.957 7.64909C186.674 7.64909 187.416 7.73869 188.184 7.91788C188.978 8.07147 189.745 8.35305 190.488 8.76263C191.23 9.14661 191.883 9.68418 192.446 10.3753C192.677 10.6313 192.805 10.9513 192.83 11.3353C192.856 11.7193 192.689 12.0649 192.331 12.372C192.049 12.5768 191.729 12.6664 191.371 12.6408C191.038 12.6152 190.757 12.4872 190.526 12.2568C189.989 11.6169 189.31 11.1305 188.491 10.7977C187.698 10.4393 186.814 10.2602 185.842 10.2602C185.227 10.2602 184.626 10.3497 184.037 10.5289C183.448 10.7081 182.949 11.0153 182.539 11.4505C182.155 11.8601 181.963 12.436 181.963 13.1784C181.989 13.8696 182.219 14.4327 182.655 14.8679C183.09 15.3031 183.679 15.6615 184.421 15.943C185.163 16.199 185.982 16.455 186.878 16.711C187.698 16.9158 188.478 17.159 189.221 17.4406C189.989 17.6966 190.68 18.0421 191.294 18.4773C191.909 18.9125 192.395 19.4757 192.753 20.1668C193.112 20.8324 193.291 21.6771 193.291 22.7011C193.291 23.8786 192.958 24.9026 192.293 25.7729C191.627 26.6177 190.744 27.2704 189.643 27.7312C188.568 28.1664 187.403 28.384 186.149 28.384C184.741 28.384 183.346 28.1152 181.963 27.5776C180.607 27.0401 179.429 26.1313 178.431 24.8514Z" fill="#4B5563"/>
</svg>
