<svg width="243" height="37" viewBox="0 0 243 37" fill="none" xmlns="http://www.w3.org/2000/svg">
<path d="M10.7044 29.1318C10.2436 29.1318 9.85966 28.9782 9.55248 28.6711C9.24529 28.3639 9.0917 27.9927 9.0917 27.5575L9.0917 3.82759H12.3555L12.3555 27.5575C12.3555 27.9927 12.2019 28.3639 11.8948 28.6711C11.5876 28.9782 11.1908 29.1318 10.7044 29.1318ZM1.79609 5.17152C1.36092 5.17152 0.989735 5.04353 0.682552 4.78754C0.400967 4.50595 0.260174 4.14757 0.260174 3.7124C0.260174 3.27722 0.400967 2.93164 0.682552 2.67565C0.989735 2.39407 1.36092 2.25327 1.79609 2.25327L19.6511 2.25327C20.0863 2.25327 20.4575 2.39407 20.7647 2.67565C21.0719 2.93164 21.2255 3.27722 21.2255 3.7124C21.2255 4.17317 21.0719 4.53155 20.7647 4.78754C20.4575 5.04353 20.0863 5.17152 19.6511 5.17152L1.79609 5.17152ZM39.5494 19.1484C39.5494 21.1451 39.1014 22.9242 38.2054 24.4857C37.3351 26.0472 36.1448 27.2759 34.6344 28.1719C33.1497 29.0678 31.473 29.5158 29.6043 29.5158C27.7356 29.5158 26.0461 29.0678 24.5358 28.1719C23.0255 27.2759 21.8223 26.0472 20.9264 24.4857C20.056 22.9242 19.6208 21.1451 19.6208 19.1484C19.6208 17.1517 20.056 15.3726 20.9264 13.8111C21.8223 12.2495 23.0255 11.0208 24.5358 10.1249C26.0461 9.2289 27.7356 8.78093 29.6043 8.78093C31.473 8.78093 33.1497 9.2289 34.6344 10.1249C36.1448 11.0208 37.3351 12.2495 38.2054 13.8111C39.1014 15.3726 39.5494 17.1517 39.5494 19.1484ZM36.4775 19.1484C36.4775 17.6636 36.1703 16.3581 35.556 15.2318C34.9672 14.1054 34.1481 13.2223 33.0985 12.5823C32.0746 11.9424 30.9098 11.6224 29.6043 11.6224C28.2988 11.6224 27.1212 11.9424 26.0717 12.5823C25.0477 13.2223 24.2286 14.1054 23.6142 15.2318C22.9999 16.3581 22.6927 17.6636 22.6927 19.1484C22.6927 20.6075 22.9999 21.9002 23.6142 23.0266C24.2286 24.1529 25.0477 25.0489 26.0717 25.7144C27.1212 26.3544 28.2988 26.6744 29.6043 26.6744C30.9098 26.6744 32.0746 26.3544 33.0985 25.7144C34.1481 25.0489 34.9672 24.1529 35.556 23.0266C36.1703 21.9002 36.4775 20.6075 36.4775 19.1484ZM60.5272 0.717359C60.9624 0.717359 61.3208 0.87095 61.6024 1.17813C61.9096 1.45972 62.0632 1.8181 62.0632 2.25327L62.0632 27.5575C62.0632 27.9927 61.9096 28.3639 61.6024 28.6711C61.3208 28.9782 60.9624 29.1318 60.5272 29.1318C60.0665 29.1318 59.6953 28.9782 59.4137 28.6711C59.1321 28.3639 58.9913 27.9927 58.9913 27.5575V23.9097L59.7209 23.6409C59.7209 24.2553 59.5289 24.9081 59.1449 25.5992C58.7609 26.2648 58.2362 26.892 57.5706 27.4807C56.905 28.0695 56.1115 28.5559 55.1899 28.9398C54.294 29.3238 53.3212 29.5158 52.2717 29.5158C50.5566 29.5158 48.9951 29.0678 47.5871 28.1719C46.2048 27.2759 45.1041 26.0472 44.2849 24.4857C43.4914 22.9242 43.0946 21.1451 43.0946 19.1484C43.0946 17.1261 43.4914 15.3342 44.2849 13.7727C45.1041 12.2111 46.2048 10.9952 47.5871 10.1249C48.9695 9.2289 50.5054 8.78093 52.1949 8.78093C53.27 8.78093 54.2812 8.96012 55.2283 9.3185C56.1755 9.67688 56.9946 10.1633 57.6858 10.7776C58.4026 11.392 58.9657 12.0703 59.3753 12.8127C59.7849 13.5551 59.9897 14.2974 59.9897 15.0398L58.9913 14.8094V2.25327C58.9913 1.8181 59.1321 1.45972 59.4137 1.17813C59.6953 0.87095 60.0665 0.717359 60.5272 0.717359ZM52.6173 26.6744C53.8972 26.6744 55.0235 26.3544 55.9963 25.7144C56.9946 25.0489 57.7626 24.1529 58.3002 23.0266C58.8633 21.8746 59.1449 20.5819 59.1449 19.1484C59.1449 17.6892 58.8633 16.3965 58.3002 15.2702C57.7626 14.1438 56.9946 13.2607 55.9963 12.6207C55.0235 11.9552 53.8972 11.6224 52.6173 11.6224C51.3629 11.6224 50.2366 11.9552 49.2382 12.6207C48.2655 13.2607 47.4975 14.1438 46.9344 15.2702C46.3712 16.3965 46.0896 17.6892 46.0896 19.1484C46.0896 20.5563 46.3712 21.8362 46.9344 22.9882C47.4975 24.1145 48.2655 25.0105 49.2382 25.676C50.2366 26.3416 51.3629 26.6744 52.6173 26.6744ZM84.1135 9.08811C84.5487 9.08811 84.907 9.2417 85.1886 9.54888C85.4958 9.83047 85.6494 10.1889 85.6494 10.624V27.5575C85.6494 27.9927 85.4958 28.3639 85.1886 28.6711C84.907 28.9782 84.5487 29.1318 84.1135 29.1318C83.6527 29.1318 83.2815 28.9782 82.9999 28.6711C82.7184 28.3639 82.5776 27.9927 82.5776 27.5575V23.9097L83.3071 23.8329C83.3071 24.3961 83.1151 25.0105 82.7312 25.676C82.3472 26.3416 81.8224 26.9688 81.1568 27.5575C80.4913 28.1207 79.6977 28.5943 78.7762 28.9782C77.8802 29.3366 76.9075 29.5158 75.8579 29.5158C74.1172 29.5158 72.5557 29.0678 71.1734 28.1719C69.791 27.2503 68.6903 26.0088 67.8711 24.4473C67.0776 22.8858 66.6808 21.1067 66.6808 19.11C66.6808 17.0877 67.0776 15.3086 67.8711 13.7727C68.6903 12.2111 69.791 10.9952 71.1734 10.1249C72.5557 9.2289 74.0916 8.78093 75.7811 8.78093C76.8819 8.78093 77.9058 8.96012 78.853 9.3185C79.8001 9.67688 80.6193 10.1633 81.3104 10.7776C82.0272 11.392 82.5776 12.0703 82.9615 12.8127C83.3711 13.5551 83.5759 14.2974 83.5759 15.0398L82.5776 14.8094V10.624C82.5776 10.1889 82.7184 9.83047 82.9999 9.54888C83.2815 9.2417 83.6527 9.08811 84.1135 9.08811ZM76.2035 26.6744C77.4834 26.6744 78.6098 26.3416 79.5825 25.676C80.5809 25.0105 81.3488 24.1145 81.8864 22.9882C82.4496 21.8362 82.7312 20.5435 82.7312 19.11C82.7312 17.702 82.4496 16.4349 81.8864 15.3086C81.3488 14.1566 80.5809 13.2607 79.5825 12.6207C78.6098 11.9552 77.4834 11.6224 76.2035 11.6224C74.9492 11.6224 73.8228 11.9424 72.8245 12.5823C71.8517 13.2223 71.0838 14.1054 70.5206 15.2318C69.9574 16.3581 69.6758 17.6509 69.6758 19.11C69.6758 20.5435 69.9446 21.8362 70.4822 22.9882C71.0454 24.1145 71.8133 25.0105 72.7861 25.676C73.7844 26.3416 74.9236 26.6744 76.2035 26.6744ZM106.202 8.97292C106.637 8.97292 106.996 9.12651 107.277 9.43369C107.585 9.71528 107.738 10.0737 107.738 10.5088V27.2503C107.738 29.4006 107.316 31.1797 106.471 32.5877C105.626 34.0212 104.487 35.0835 103.054 35.7747C101.646 36.4658 100.046 36.8114 98.2538 36.8114C97.2555 36.8114 96.2955 36.709 95.374 36.5042C94.4524 36.2995 93.6973 36.0307 93.1085 35.6979C92.6221 35.4675 92.2765 35.1731 92.0717 34.8147C91.8926 34.4819 91.867 34.1236 91.995 33.7396C92.1741 33.2788 92.4301 32.9588 92.7629 32.7796C93.1213 32.6005 93.4925 32.6005 93.8765 32.7796C94.286 32.9588 94.8748 33.202 95.6428 33.5092C96.4363 33.842 97.3195 34.0084 98.2922 34.0084C99.6233 34.0084 100.762 33.7524 101.71 33.2404C102.657 32.7284 103.386 31.9733 103.898 30.9749C104.41 30.0022 104.666 28.7863 104.666 27.3271V24.6009L105.127 25.5608C104.717 26.3544 104.167 27.0455 103.476 27.6343C102.785 28.2231 101.991 28.6839 101.095 29.0166C100.199 29.3494 99.2138 29.5158 98.1386 29.5158C96.6795 29.5158 95.438 29.2086 94.414 28.5943C93.4157 27.9543 92.6477 27.0839 92.1101 25.9832C91.5982 24.8569 91.3422 23.5641 91.3422 22.105V10.5088C91.3422 10.0737 91.483 9.71528 91.7646 9.43369C92.0717 9.12651 92.4429 8.97292 92.8781 8.97292C93.3389 8.97292 93.7101 9.12651 93.9916 9.43369C94.2732 9.71528 94.414 10.0737 94.414 10.5088V21.4138C94.414 23.1546 94.798 24.4729 95.566 25.3688C96.3339 26.2392 97.5243 26.6744 99.137 26.6744C100.161 26.6744 101.082 26.444 101.902 25.9832C102.746 25.5224 103.412 24.8953 103.898 24.1017C104.41 23.2825 104.666 22.3866 104.666 21.4138V10.5088C104.666 10.0737 104.807 9.71528 105.089 9.43369C105.37 9.12651 105.741 8.97292 106.202 8.97292ZM113.006 3.52041C113.109 2.67565 113.582 2.25327 114.427 2.25327H115.656C116.116 2.25327 116.424 2.39407 116.577 2.67565C116.756 2.93164 116.769 3.27722 116.616 3.7124L114.12 11.8912C113.915 12.5311 113.493 12.8511 112.853 12.8511C112.315 12.8511 112.085 12.4543 112.161 11.6608L113.006 3.52041ZM120.002 25.9832C119.772 25.6504 119.669 25.3048 119.695 24.9465C119.72 24.5625 119.938 24.2297 120.348 23.9481C120.604 23.7689 120.898 23.6921 121.231 23.7177C121.589 23.7433 121.909 23.9097 122.191 24.2169C122.907 25.0617 123.727 25.74 124.648 26.252C125.57 26.7384 126.696 26.9816 128.027 26.9816C128.642 26.956 129.256 26.8536 129.87 26.6744C130.485 26.4952 130.997 26.188 131.406 25.7528C131.841 25.292 132.059 24.6905 132.059 23.9481C132.059 23.2314 131.841 22.6682 131.406 22.2586C130.971 21.8234 130.408 21.4778 129.717 21.2219C129.026 20.9403 128.27 20.6971 127.451 20.4923C126.607 20.2619 125.775 20.0059 124.955 19.7243C124.136 19.4172 123.394 19.046 122.728 18.6108C122.088 18.15 121.564 17.5869 121.154 16.9213C120.77 16.2301 120.578 15.3982 120.578 14.4254C120.578 13.2735 120.885 12.2751 121.5 11.4304C122.14 10.5856 122.984 9.93286 124.034 9.47209C125.109 9.01131 126.274 8.78093 127.528 8.78093C128.245 8.78093 128.987 8.87052 129.755 9.04971C130.549 9.2033 131.317 9.48489 132.059 9.89447C132.801 10.2784 133.454 10.816 134.017 11.5072C134.248 11.7632 134.376 12.0831 134.401 12.4671C134.427 12.8511 134.26 13.1967 133.902 13.5039C133.621 13.7087 133.301 13.7983 132.942 13.7727C132.609 13.7471 132.328 13.6191 132.097 13.3887C131.56 12.7487 130.881 12.2623 130.062 11.9296C129.269 11.5712 128.386 11.392 127.413 11.392C126.798 11.392 126.197 11.4816 125.608 11.6608C125.019 11.84 124.52 12.1471 124.111 12.5823C123.727 12.9919 123.535 13.5679 123.535 14.3102C123.56 15.0014 123.791 15.5646 124.226 15.9997C124.661 16.4349 125.25 16.7933 125.992 17.0749C126.734 17.3309 127.554 17.5869 128.45 17.8428C129.269 18.0476 130.05 18.2908 130.792 18.5724C131.56 18.8284 132.251 19.174 132.865 19.6091C133.48 20.0443 133.966 20.6075 134.324 21.2987C134.683 21.9642 134.862 22.809 134.862 23.8329C134.862 25.0105 134.529 26.0344 133.864 26.9048C133.198 27.7495 132.315 28.4023 131.214 28.8631C130.139 29.2982 128.974 29.5158 127.72 29.5158C126.312 29.5158 124.917 29.247 123.535 28.7095C122.178 28.1719 121 27.2631 120.002 25.9832ZM170.304 2.25327C170.739 2.25327 171.085 2.39407 171.341 2.67565C171.597 2.93164 171.725 3.26442 171.725 3.674V27.5191C171.725 28.0055 171.571 28.4023 171.264 28.7095C170.957 28.991 170.586 29.1318 170.151 29.1318C169.92 29.1318 169.69 29.0934 169.46 29.0166C169.229 28.9142 169.05 28.7863 168.922 28.6327L152.488 6.89943L153.256 6.43865V27.7111C153.256 28.1207 153.115 28.4663 152.833 28.7479C152.577 29.0038 152.232 29.1318 151.796 29.1318C151.387 29.1318 151.054 29.0038 150.798 28.7479C150.542 28.4663 150.414 28.1207 150.414 27.7111V3.78919C150.414 3.32842 150.555 2.95724 150.837 2.67565C151.144 2.39407 151.502 2.25327 151.912 2.25327C152.142 2.25327 152.372 2.30447 152.603 2.40687C152.859 2.48366 153.051 2.61166 153.179 2.79085L169.383 24.2169L168.884 24.8313V3.674C168.884 3.26442 169.012 2.93164 169.268 2.67565C169.549 2.39407 169.895 2.25327 170.304 2.25327ZM187.102 29.5158C185.054 29.5158 183.262 29.0806 181.726 28.2103C180.191 27.3399 178.987 26.1496 178.117 24.6393C177.272 23.1034 176.85 21.3371 176.85 19.3404C176.85 17.1133 177.285 15.219 178.155 13.6575C179.051 12.0703 180.203 10.8672 181.611 10.0481C183.045 9.2033 184.555 8.78093 186.142 8.78093C187.32 8.78093 188.459 8.99851 189.56 9.43369C190.66 9.86887 191.633 10.5088 192.478 11.3536C193.323 12.1727 194.001 13.1711 194.513 14.3486C195.025 15.5006 195.294 16.7933 195.319 18.2268C195.319 18.6364 195.166 18.982 194.859 19.2636C194.551 19.5451 194.193 19.6859 193.783 19.6859L178.616 19.6859L177.925 17.0365H192.708L192.094 17.5741V16.7293C191.991 15.6798 191.633 14.7838 191.019 14.0414C190.43 13.2735 189.7 12.6847 188.83 12.2751C187.985 11.8656 187.089 11.6608 186.142 11.6608C185.374 11.6608 184.606 11.8016 183.838 12.0831C183.096 12.3391 182.418 12.7743 181.803 13.3887C181.214 13.9774 180.728 14.7454 180.344 15.6926C179.986 16.6397 179.807 17.7788 179.807 19.11C179.807 20.5947 180.101 21.9002 180.69 23.0266C181.304 24.1529 182.149 25.0489 183.224 25.7144C184.299 26.3544 185.553 26.6744 186.987 26.6744C187.883 26.6744 188.664 26.5592 189.329 26.3288C189.995 26.0984 190.571 25.8168 191.057 25.484C191.544 25.1257 191.953 24.7673 192.286 24.4089C192.619 24.1785 192.939 24.0633 193.246 24.0633C193.63 24.0633 193.937 24.1913 194.167 24.4473C194.423 24.7033 194.551 25.0105 194.551 25.3688C194.551 25.804 194.347 26.188 193.937 26.5208C193.22 27.3143 192.247 28.0183 191.019 28.6327C189.79 29.2214 188.484 29.5158 187.102 29.5158ZM223.359 8.93452C223.769 8.93452 224.114 9.07531 224.396 9.35689C224.703 9.63848 224.857 10.0097 224.857 10.4704C224.857 10.5728 224.844 10.688 224.818 10.816C224.818 10.9184 224.793 11.0208 224.741 11.1232L218.828 28.1335C218.7 28.4663 218.483 28.7223 218.175 28.9014C217.894 29.0806 217.587 29.1574 217.254 29.1318C216.665 29.1062 216.217 28.7735 215.91 28.1335L211.072 15.9997L211.84 16.1149L207.462 28.1335C207.181 28.7735 206.733 29.1062 206.118 29.1318C205.786 29.1574 205.466 29.0806 205.158 28.9014C204.851 28.7223 204.647 28.4663 204.544 28.1335L198.516 11.1232C198.439 10.8928 198.4 10.6752 198.4 10.4704C198.4 10.0609 198.541 9.70248 198.823 9.39529C199.104 9.08811 199.488 8.93452 199.975 8.93452C200.282 8.93452 200.564 9.01131 200.82 9.1649C201.076 9.3185 201.255 9.56168 201.357 9.89447L206.541 25.0233L205.734 24.9849L210.227 13.4655C210.483 12.8255 210.957 12.5055 211.648 12.5055C212.006 12.5055 212.288 12.5951 212.493 12.7743C212.723 12.9279 212.889 13.1583 212.992 13.4655L217.676 24.9849L216.716 25.0617L221.9 9.89447C222.13 9.2545 222.617 8.93452 223.359 8.93452ZM227.696 25.9832C227.466 25.6504 227.363 25.3048 227.389 24.9465C227.415 24.5625 227.632 24.2297 228.042 23.9481C228.298 23.7689 228.592 23.6921 228.925 23.7177C229.283 23.7433 229.603 23.9097 229.885 24.2169C230.602 25.0617 231.421 25.74 232.342 26.252C233.264 26.7384 234.39 26.9816 235.721 26.9816C236.336 26.956 236.95 26.8536 237.565 26.6744C238.179 26.4952 238.691 26.188 239.1 25.7528C239.536 25.292 239.753 24.6905 239.753 23.9481C239.753 23.2314 239.536 22.6682 239.1 22.2586C238.665 21.8234 238.102 21.4778 237.411 21.2219C236.72 20.9403 235.965 20.6971 235.145 20.4923C234.301 20.2619 233.469 20.0059 232.65 19.7243C231.83 19.4172 231.088 19.046 230.423 18.6108C229.783 18.15 229.258 17.5869 228.848 16.9213C228.464 16.2301 228.272 15.3982 228.272 14.4254C228.272 13.2735 228.579 12.2751 229.194 11.4304C229.834 10.5856 230.679 9.93286 231.728 9.47209C232.803 9.01131 233.968 8.78093 235.222 8.78093C235.939 8.78093 236.681 8.87052 237.449 9.04971C238.243 9.2033 239.011 9.48489 239.753 9.89447C240.496 10.2784 241.148 10.816 241.712 11.5072C241.942 11.7632 242.07 12.0831 242.096 12.4671C242.121 12.8511 241.955 13.1967 241.596 13.5039C241.315 13.7087 240.995 13.7983 240.636 13.7727C240.304 13.7471 240.022 13.6191 239.792 13.3887C239.254 12.7487 238.576 12.2623 237.757 11.9296C236.963 11.5712 236.08 11.392 235.107 11.392C234.493 11.392 233.891 11.4816 233.302 11.6608C232.714 11.84 232.214 12.1471 231.805 12.5823C231.421 12.9919 231.229 13.5679 231.229 14.3102C231.254 15.0014 231.485 15.5646 231.92 15.9997C232.355 16.4349 232.944 16.7933 233.686 17.0749C234.429 17.3309 235.248 17.5869 236.144 17.8428C236.963 18.0476 237.744 18.2908 238.486 18.5724C239.254 18.8284 239.945 19.174 240.56 19.6091C241.174 20.0443 241.66 20.6075 242.019 21.2987C242.377 21.9642 242.556 22.809 242.556 23.8329C242.556 25.0105 242.223 26.0344 241.558 26.9048C240.892 27.7495 240.009 28.4023 238.908 28.8631C237.833 29.2982 236.669 29.5158 235.414 29.5158C234.006 29.5158 232.611 29.247 231.229 28.7095C229.872 28.1719 228.695 27.2631 227.696 25.9832Z" fill="#4B5563"/>
</svg>
