<svg width="245" height="78" viewBox="0 0 245 78" fill="none" xmlns="http://www.w3.org/2000/svg">
<g filter="url(#filter0_dd_839_1768)">
<path d="M30.269 55.31C37.2224 55.31 40.699 52.4867 40.699 46.84C40.699 44.0867 38.9957 41.7533 35.589 39.84C34.049 38.9533 32.3457 38.1133 30.479 37.32C28.659 36.5267 26.8157 35.6633 24.949 34.73C23.0824 33.7967 21.379 32.7933 19.839 31.72C18.3457 30.6467 17.109 29.2933 16.129 27.66C15.1957 26.0267 14.729 24.1833 14.729 22.13C14.729 18.77 16.0824 15.9233 18.789 13.59C21.5424 11.21 25.299 10.02 30.059 10.02C34.819 10.02 39.8357 11.4667 45.109 14.36C45.109 17.02 44.7824 20.3567 44.129 24.37C43.1024 24.51 41.749 24.58 40.069 24.58L37.969 16.46C37.409 16.18 36.289 15.9 34.609 15.62C32.9757 15.34 31.529 15.2 30.269 15.2C27.5624 15.2 25.4624 15.7833 23.969 16.95C22.4757 18.07 21.729 19.6567 21.729 21.71C21.729 23.7167 22.5924 25.5367 24.319 27.17C26.0924 28.7567 28.2157 30.1333 30.689 31.3C33.209 32.42 35.7057 33.5867 38.179 34.8C40.699 36.0133 42.8224 37.6 44.549 39.56C46.3224 41.4733 47.209 43.7133 47.209 46.28C47.209 50.9467 45.6457 54.5633 42.519 57.13C39.3924 59.65 35.309 60.91 30.269 60.91C27.5157 60.91 24.529 60.49 21.309 59.65C18.1357 58.7633 15.499 57.6433 13.399 56.29C13.4924 53.1633 13.8424 49.5467 14.449 45.44C15.4757 45.3 16.829 45.23 18.509 45.23L19.979 53.63C21.0057 54.05 22.5457 54.4467 24.599 54.82C26.699 55.1467 28.589 55.31 30.269 55.31ZM75.856 15.34C75.6226 23.18 75.366 36.48 75.086 55.24L80.966 55.8C80.966 57.1067 80.5693 58.5067 79.776 60H63.676L63.466 57.55C66.1726 56.57 68.3193 56.01 69.906 55.87C69.4393 37.8567 69.066 24.3467 68.786 15.34H58.566L56.886 22.48L52.826 22.2C52.126 19.3533 51.776 16.46 51.776 13.52C51.776 12.96 51.8226 12.12 51.916 11H92.236C92.3293 11.6067 92.376 12.54 92.376 13.8C92.376 16.32 92.0493 19.0733 91.396 22.06C90.3693 22.34 89.016 22.48 87.336 22.48L85.586 15.34H75.856ZM99.8589 12.47C100.699 12.19 102.986 11.8867 106.719 11.56C110.452 11.1867 113.836 11 116.869 11C119.949 11 122.329 11.14 124.009 11.42C124.056 11.6067 124.079 11.84 124.079 12.12C124.079 12.3533 123.939 12.9367 123.659 13.87C123.426 14.8033 123.239 15.41 123.099 15.69C122.726 16.0633 121.676 16.3433 119.949 16.53L133.319 55.24L139.969 55.8C139.969 57.1067 139.572 58.5067 138.779 60H122.679L122.469 57.55C123.542 56.99 125.106 56.5 127.159 56.08L123.589 46.07H104.059L100.769 55.24L106.439 55.8C106.439 57.1067 106.042 58.5067 105.249 60H89.1489L88.9389 57.55C90.7589 56.8967 92.6955 56.3833 94.7489 56.01L108.329 16.32C104.176 15.8533 101.259 15.2933 99.5789 14.64L99.8589 12.47ZM118.059 30.46L114.349 16.74C114.069 16.6933 113.672 16.67 113.159 16.67L109.379 30.95L105.319 41.59H122.329L118.059 30.46ZM167.217 16.6C165.724 16.1333 163.74 15.9 161.267 15.9H155.457L155.247 33.54L160.567 33.47C164.02 33.4233 166.774 32.7233 168.827 31.37C170.88 30.0167 171.907 27.45 171.907 23.67C171.907 19.8433 170.344 17.4867 167.217 16.6ZM155.177 38.02L154.967 55.31L160.777 55.8C160.777 57.1067 160.38 58.5067 159.587 60H143.487L143.277 57.55C145.237 56.85 147.244 56.3133 149.297 55.94C149.017 38.2067 148.784 24.6733 148.597 15.34C147.29 15.1533 145.237 14.5933 142.437 13.66C142.437 13.0533 142.554 12.1667 142.787 11H158.537C167.077 11 172.63 12.05 175.197 14.15C177.717 16.1567 178.977 19.3067 178.977 23.6C178.977 30.8333 175.01 35.5233 167.077 37.67L179.047 55.38L184.857 55.87C184.857 57.13 184.46 58.5067 183.667 60H175.057L160.357 38.02H155.177ZM211.754 15.34C211.521 23.18 211.264 36.48 210.984 55.24L216.864 55.8C216.864 57.1067 216.468 58.5067 215.674 60H199.574L199.364 57.55C202.071 56.57 204.218 56.01 205.804 55.87C205.338 37.8567 204.964 24.3467 204.684 15.34H194.464L192.784 22.48L188.724 22.2C188.024 19.3533 187.674 16.46 187.674 13.52C187.674 12.96 187.721 12.12 187.814 11H228.134C228.228 11.6067 228.274 12.54 228.274 13.8C228.274 16.32 227.948 19.0733 227.294 22.06C226.268 22.34 224.914 22.48 223.234 22.48L221.484 15.34H211.754Z" fill="#B0C6FF"/>
</g>
<defs>
<filter id="filter0_dd_839_1768" x="0.599048" y="0.220019" width="244.375" height="77.3901" filterUnits="userSpaceOnUse" color-interpolation-filters="sRGB">
<feFlood flood-opacity="0" result="BackgroundImageFix"/>
<feColorMatrix in="SourceAlpha" type="matrix" values="0 0 0 0 0 0 0 0 0 0 0 0 0 0 0 0 0 0 127 0" result="hardAlpha"/>
<feOffset dx="4" dy="4"/>
<feGaussianBlur stdDeviation="6.35"/>
<feComposite in2="hardAlpha" operator="out"/>
<feColorMatrix type="matrix" values="0 0 0 0 0.224807 0 0 0 0 0.340422 0 0 0 0 0.513846 0 0 0 0.36 0"/>
<feBlend mode="normal" in2="BackgroundImageFix" result="effect1_dropShadow_839_1768"/>
<feColorMatrix in="SourceAlpha" type="matrix" values="0 0 0 0 0 0 0 0 0 0 0 0 0 0 0 0 0 0 127 0" result="hardAlpha"/>
<feOffset dx="-3"/>
<feGaussianBlur stdDeviation="4.9"/>
<feComposite in2="hardAlpha" operator="out"/>
<feColorMatrix type="matrix" values="0 0 0 0 1 0 0 0 0 1 0 0 0 0 1 0 0 0 1 0"/>
<feBlend mode="normal" in2="effect1_dropShadow_839_1768" result="effect2_dropShadow_839_1768"/>
<feBlend mode="normal" in="SourceGraphic" in2="effect2_dropShadow_839_1768" result="shape"/>
</filter>
</defs>
</svg>
