<svg width="216" height="51" viewBox="0 0 216 51" fill="none" xmlns="http://www.w3.org/2000/svg">
<g filter="url(#filter0_ii_839_1884)">
<path d="M17.269 45.31C24.2224 45.31 27.699 42.4867 27.699 36.84C27.699 34.0867 25.9957 31.7533 22.589 29.84C21.049 28.9533 19.3457 28.1133 17.479 27.32C15.659 26.5267 13.8157 25.6633 11.949 24.73C10.0824 23.7967 8.37902 22.7933 6.83902 21.72C5.34569 20.6467 4.10902 19.2933 3.12902 17.66C2.19569 16.0267 1.72902 14.1833 1.72902 12.13C1.72902 8.77 3.08236 5.92333 5.78902 3.59C8.54236 1.21 12.299 0.0199968 17.059 0.0199968C21.819 0.0199968 26.8357 1.46666 32.109 4.36C32.109 7.02 31.7824 10.3567 31.129 14.37C30.1024 14.51 28.749 14.58 27.069 14.58L24.969 6.46C24.409 6.18 23.289 5.9 21.609 5.62C19.9757 5.34 18.529 5.2 17.269 5.2C14.5624 5.2 12.4624 5.78333 10.969 6.95C9.47569 8.07 8.72902 9.65666 8.72902 11.71C8.72902 13.7167 9.59236 15.5367 11.319 17.17C13.0924 18.7567 15.2157 20.1333 17.689 21.3C20.209 22.42 22.7057 23.5867 25.179 24.8C27.699 26.0133 29.8224 27.6 31.549 29.56C33.3224 31.4733 34.209 33.7133 34.209 36.28C34.209 40.9467 32.6457 44.5633 29.519 47.13C26.3924 49.65 22.309 50.91 17.269 50.91C14.5157 50.91 11.529 50.49 8.30902 49.65C5.13569 48.7633 2.49902 47.6433 0.399024 46.29C0.492357 43.1633 0.842357 39.5467 1.44902 35.44C2.47569 35.3 3.82902 35.23 5.50902 35.23L6.97902 43.63C8.00569 44.05 9.54569 44.4467 11.599 44.82C13.699 45.1467 15.589 45.31 17.269 45.31ZM62.856 5.34C62.6226 13.18 62.366 26.48 62.086 45.24L67.966 45.8C67.966 47.1067 67.5693 48.5067 66.776 50H50.676L50.466 47.55C53.1726 46.57 55.3193 46.01 56.906 45.87C56.4393 27.8567 56.066 14.3467 55.786 5.34H45.566L43.886 12.48L39.826 12.2C39.126 9.35333 38.776 6.46 38.776 3.52C38.776 2.96 38.8226 2.12 38.916 0.999997H79.236C79.3293 1.60666 79.376 2.54 79.376 3.8C79.376 6.32 79.0493 9.07333 78.396 12.06C77.3693 12.34 76.016 12.48 74.336 12.48L72.586 5.34H62.856ZM86.8589 2.47C87.6989 2.19 89.9855 1.88666 93.7189 1.56C97.4522 1.18666 100.836 0.999997 103.869 0.999997C106.949 0.999997 109.329 1.14 111.009 1.42C111.056 1.60666 111.079 1.84 111.079 2.12C111.079 2.35333 110.939 2.93666 110.659 3.87C110.426 4.80333 110.239 5.41 110.099 5.69C109.726 6.06333 108.676 6.34333 106.949 6.53L120.319 45.24L126.969 45.8C126.969 47.1067 126.572 48.5067 125.779 50H109.679L109.469 47.55C110.542 46.99 112.106 46.5 114.159 46.08L110.589 36.07H91.0589L87.7689 45.24L93.4389 45.8C93.4389 47.1067 93.0422 48.5067 92.2489 50H76.1489L75.9389 47.55C77.7589 46.8967 79.6955 46.3833 81.7489 46.01L95.3289 6.32C91.1755 5.85333 88.2589 5.29333 86.5789 4.64L86.8589 2.47ZM105.059 20.46L101.349 6.74C101.069 6.69333 100.672 6.67 100.159 6.67L96.3789 20.95L92.3189 31.59H109.329L105.059 20.46ZM154.217 6.6C152.724 6.13333 150.74 5.9 148.267 5.9H142.457L142.247 23.54L147.567 23.47C151.02 23.4233 153.774 22.7233 155.827 21.37C157.88 20.0167 158.907 17.45 158.907 13.67C158.907 9.84333 157.344 7.48667 154.217 6.6ZM142.177 28.02L141.967 45.31L147.777 45.8C147.777 47.1067 147.38 48.5067 146.587 50H130.487L130.277 47.55C132.237 46.85 134.244 46.3133 136.297 45.94C136.017 28.2067 135.784 14.6733 135.597 5.34C134.29 5.15333 132.237 4.59333 129.437 3.66C129.437 3.05333 129.554 2.16666 129.787 0.999997H145.537C154.077 0.999997 159.63 2.05 162.197 4.15C164.717 6.15666 165.977 9.30666 165.977 13.6C165.977 20.8333 162.01 25.5233 154.077 27.67L166.047 45.38L171.857 45.87C171.857 47.13 171.46 48.5067 170.667 50H162.057L147.357 28.02H142.177ZM198.754 5.34C198.521 13.18 198.264 26.48 197.984 45.24L203.864 45.8C203.864 47.1067 203.468 48.5067 202.674 50H186.574L186.364 47.55C189.071 46.57 191.218 46.01 192.804 45.87C192.338 27.8567 191.964 14.3467 191.684 5.34H181.464L179.784 12.48L175.724 12.2C175.024 9.35333 174.674 6.46 174.674 3.52C174.674 2.96 174.721 2.12 174.814 0.999997H215.134C215.228 1.60666 215.274 2.54 215.274 3.8C215.274 6.32 214.948 9.07333 214.294 12.06C213.268 12.34 211.914 12.48 210.234 12.48L208.484 5.34H198.754Z" fill="white"/>
</g>
<defs>
<filter id="filter0_ii_839_1884" x="-2.60107" y="0.0200195" width="221.875" height="54.8901" filterUnits="userSpaceOnUse" color-interpolation-filters="sRGB">
<feFlood flood-opacity="0" result="BackgroundImageFix"/>
<feBlend mode="normal" in="SourceGraphic" in2="BackgroundImageFix" result="shape"/>
<feColorMatrix in="SourceAlpha" type="matrix" values="0 0 0 0 0 0 0 0 0 0 0 0 0 0 0 0 0 0 127 0" result="hardAlpha"/>
<feOffset dx="4" dy="4"/>
<feGaussianBlur stdDeviation="6.35"/>
<feComposite in2="hardAlpha" operator="arithmetic" k2="-1" k3="1"/>
<feColorMatrix type="matrix" values="0 0 0 0 0.224807 0 0 0 0 0.340422 0 0 0 0 0.513846 0 0 0 0.36 0"/>
<feBlend mode="normal" in2="shape" result="effect1_innerShadow_839_1884"/>
<feColorMatrix in="SourceAlpha" type="matrix" values="0 0 0 0 0 0 0 0 0 0 0 0 0 0 0 0 0 0 127 0" result="hardAlpha"/>
<feOffset dx="-3"/>
<feGaussianBlur stdDeviation="4.9"/>
<feComposite in2="hardAlpha" operator="arithmetic" k2="-1" k3="1"/>
<feColorMatrix type="matrix" values="0 0 0 0 1 0 0 0 0 1 0 0 0 0 1 0 0 0 1 0"/>
<feBlend mode="normal" in2="effect1_innerShadow_839_1884" result="effect2_innerShadow_839_1884"/>
</filter>
</defs>
</svg>
