<svg width="220" height="94" viewBox="0 0 220 94" fill="none" xmlns="http://www.w3.org/2000/svg">
<g filter="url(#filter0_dd_839_2950)">
<path d="M30.928 16.424L30.448 39.56H45.616L46.384 32.648C48.176 32.648 50.096 33.192 52.144 34.28V52.52L48.784 52.808C47.824 50.056 47.184 47.752 46.864 45.896H30.448C30.32 51.464 30.192 59.688 30.064 70.568H52.048L54.352 61.544L59.92 61.928C60.816 65.576 61.264 68.808 61.264 71.624C61.264 74.376 61.2 76.168 61.072 77H14.416L14.128 73.64C16.944 72.616 19.664 71.88 22.288 71.432C21.904 46.472 21.584 27.912 21.328 15.752C19.92 15.624 17.104 14.856 12.88 13.448L13.36 9.8H59.632C59.76 10.632 59.824 11.912 59.824 13.64C59.824 17.16 59.376 20.968 58.48 25.064C57.072 25.384 55.216 25.544 52.912 25.544L50.608 16.424H30.928ZM88.0218 21.704L87.0618 70.472L95.1258 71.24C95.1258 73.032 94.5818 74.952 93.4938 77H71.4138L71.1258 73.64C74.5818 72.488 77.5258 71.72 79.9578 71.336C79.8298 67.176 79.6058 58.6 79.2858 45.608C79.0298 32.616 78.8058 22.568 78.6138 15.464C76.1818 15.08 73.3018 14.312 69.9738 13.16L70.2617 9.8H89.2698L124.31 65.768L122.678 15.464C120.31 15.016 117.462 14.248 114.134 13.16L114.422 9.8H138.422C139.51 11.848 140.054 13.768 140.054 15.56C136.854 15.816 134.294 15.944 132.374 15.944L131.414 77H122.102L88.0218 21.704ZM202.661 41.864C202.661 56.328 199.365 66.152 192.773 71.336C190.021 73.512 187.045 75.016 183.845 75.848C180.645 76.616 176.453 77 171.269 77H146.885L146.597 73.64C146.853 73.448 148.165 73.032 150.533 72.392C152.901 71.752 154.309 71.432 154.757 71.432C154.373 46.472 154.053 27.912 153.797 15.752C150.917 15.368 148.101 14.6 145.349 13.448C145.477 11.272 145.637 10.056 145.829 9.8H170.021C176.677 9.8 181.925 10.408 185.765 11.624C189.669 12.84 193.061 15.08 195.941 18.344C200.421 23.272 202.661 31.112 202.661 41.864ZM193.349 42.632C193.349 33.992 191.717 27.496 188.453 23.144C185.253 18.728 179.845 16.52 172.229 16.52H162.437C162.181 28.296 161.861 46.28 161.477 70.472H171.557C180.325 70.472 186.149 68.52 189.029 64.616C191.909 60.648 193.349 53.32 193.349 42.632Z" fill="#B0C6FF"/>
</g>
<defs>
<filter id="filter0_dd_839_2950" x="0.0800047" y="-0.000195503" width="219.281" height="93.7002" filterUnits="userSpaceOnUse" color-interpolation-filters="sRGB">
<feFlood flood-opacity="0" result="BackgroundImageFix"/>
<feColorMatrix in="SourceAlpha" type="matrix" values="0 0 0 0 0 0 0 0 0 0 0 0 0 0 0 0 0 0 127 0" result="hardAlpha"/>
<feOffset dx="4" dy="4"/>
<feGaussianBlur stdDeviation="6.35"/>
<feComposite in2="hardAlpha" operator="out"/>
<feColorMatrix type="matrix" values="0 0 0 0 0.224807 0 0 0 0 0.340422 0 0 0 0 0.513846 0 0 0 0.36 0"/>
<feBlend mode="normal" in2="BackgroundImageFix" result="effect1_dropShadow_839_2950"/>
<feColorMatrix in="SourceAlpha" type="matrix" values="0 0 0 0 0 0 0 0 0 0 0 0 0 0 0 0 0 0 127 0" result="hardAlpha"/>
<feOffset dx="-3"/>
<feGaussianBlur stdDeviation="4.9"/>
<feComposite in2="hardAlpha" operator="out"/>
<feColorMatrix type="matrix" values="0 0 0 0 1 0 0 0 0 1 0 0 0 0 1 0 0 0 1 0"/>
<feBlend mode="normal" in2="effect1_dropShadow_839_2950" result="effect2_dropShadow_839_2950"/>
<feBlend mode="normal" in="SourceGraphic" in2="effect2_dropShadow_839_2950" result="shape"/>
</filter>
</defs>
</svg>
