<svg width="139" height="61" viewBox="0 0 139 61" fill="none" xmlns="http://www.w3.org/2000/svg">
<g filter="url(#filter0_dd_839_2955)">
<path d="M22.464 13.712L22.224 25.28H29.808L30.192 21.824C31.088 21.824 32.048 22.096 33.072 22.64V31.76L31.392 31.904C30.912 30.528 30.592 29.376 30.432 28.448H22.224C22.16 31.232 22.096 35.344 22.032 40.784H33.024L34.176 36.272L36.96 36.464C37.408 38.288 37.632 39.904 37.632 41.312C37.632 42.688 37.6 43.584 37.536 44H14.208L14.064 42.32C15.472 41.808 16.832 41.44 18.144 41.216C17.952 28.736 17.792 19.456 17.664 13.376C16.96 13.312 15.552 12.928 13.44 12.224L13.68 10.4H36.816C36.88 10.816 36.912 11.456 36.912 12.32C36.912 14.08 36.688 15.984 36.24 18.032C35.536 18.192 34.608 18.272 33.456 18.272L32.304 13.712H22.464ZM70.2109 13.232L60.3229 26.672L70.6909 40.832L74.7709 41.12C74.7709 42.016 74.4989 42.976 73.9549 44H61.3789L61.2349 42.32C62.6749 41.808 64.0989 41.424 65.5069 41.168L57.6829 29.648L50.2429 40.832L54.3229 41.12C54.3229 42.016 54.0509 42.976 53.5069 44H41.1709L41.0269 42.32C42.4989 41.808 43.9389 41.424 45.3469 41.168L55.4749 26.672L46.0189 13.616L41.9389 13.328C41.9389 12.432 42.2109 11.472 42.7549 10.448H55.6669L55.8109 12.128C54.1789 12.736 52.6589 13.168 51.2509 13.424L58.3549 23.888L65.3149 13.568L61.2349 13.28C61.2349 12.384 61.5069 11.424 62.0509 10.4H74.3869L74.5309 12.08C73.0589 12.592 71.6189 12.976 70.2109 13.232ZM86.8995 13.472L86.4195 40.736L90.4515 41.12C90.4515 42.016 90.1795 42.976 89.6355 44H78.5955L78.4515 42.32C79.9235 41.808 81.3795 41.424 82.8195 41.168C82.7555 39.088 82.6435 34.8 82.4835 28.304C82.3555 21.808 82.2435 16.784 82.1475 13.232C80.8675 12.976 79.4275 12.592 77.8275 12.08L77.9715 10.4H89.9715C90.5155 11.424 90.7875 12.384 90.7875 13.28C89.1555 13.408 87.8595 13.472 86.8995 13.472ZM110.894 13.376C110.734 18.752 110.558 27.872 110.366 40.736L114.398 41.12C114.398 42.016 114.126 42.976 113.582 44H102.542L102.398 42.32C104.254 41.648 105.726 41.264 106.814 41.168C106.494 28.816 106.238 19.552 106.046 13.376H99.0379L97.8859 18.272L95.1019 18.08C94.6219 16.128 94.3819 14.144 94.3819 12.128C94.3819 11.744 94.4139 11.168 94.4779 10.4H122.126C122.19 10.816 122.222 11.456 122.222 12.32C122.222 14.048 121.998 15.936 121.55 17.984C120.846 18.176 119.918 18.272 118.766 18.272L117.566 13.376H110.894Z" fill="#B0C6FF"/>
</g>
<defs>
<filter id="filter0_dd_839_2955" x="0.640002" y="0.60039" width="138.282" height="60.0996" filterUnits="userSpaceOnUse" color-interpolation-filters="sRGB">
<feFlood flood-opacity="0" result="BackgroundImageFix"/>
<feColorMatrix in="SourceAlpha" type="matrix" values="0 0 0 0 0 0 0 0 0 0 0 0 0 0 0 0 0 0 127 0" result="hardAlpha"/>
<feOffset dx="4" dy="4"/>
<feGaussianBlur stdDeviation="6.35"/>
<feComposite in2="hardAlpha" operator="out"/>
<feColorMatrix type="matrix" values="0 0 0 0 0.224807 0 0 0 0 0.340422 0 0 0 0 0.513846 0 0 0 0.36 0"/>
<feBlend mode="normal" in2="BackgroundImageFix" result="effect1_dropShadow_839_2955"/>
<feColorMatrix in="SourceAlpha" type="matrix" values="0 0 0 0 0 0 0 0 0 0 0 0 0 0 0 0 0 0 127 0" result="hardAlpha"/>
<feOffset dx="-3"/>
<feGaussianBlur stdDeviation="4.9"/>
<feComposite in2="hardAlpha" operator="out"/>
<feColorMatrix type="matrix" values="0 0 0 0 1 0 0 0 0 1 0 0 0 0 1 0 0 0 1 0"/>
<feBlend mode="normal" in2="effect1_dropShadow_839_2955" result="effect2_dropShadow_839_2955"/>
<feBlend mode="normal" in="SourceGraphic" in2="effect2_dropShadow_839_2955" result="shape"/>
</filter>
</defs>
</svg>
