<svg xmlns="http://www.w3.org/2000/svg" width="110" height="34" fill="none" viewBox="0 0 110 34"><g filter="url(#filter0_ii_9067_1610)"><path fill="#fff" d="M9.84681 3.712L9.60681 15.28H17.1908L17.5748 11.824C18.4708 11.824 19.4308 12.096 20.4548 12.64V21.76L18.7748 21.904C18.2948 20.528 17.9748 19.376 17.8148 18.448H9.60681C9.54281 21.232 9.47881 25.344 9.41481 30.784H20.4068L21.5588 26.272L24.3428 26.464C24.7908 28.288 25.0148 29.904 25.0148 31.312C25.0148 32.688 24.9828 33.584 24.9188 34H1.59081L1.44681 32.32C2.85481 31.808 4.21481 31.44 5.52681 31.216C5.33481 18.736 5.17481 9.456 5.04681 3.376C4.34281 3.312 2.93481 2.928 0.822813 2.224L1.06281 0.399998H24.1988C24.2628 0.815998 24.2948 1.456 24.2948 2.32C24.2948 4.08 24.0708 5.984 23.6228 8.032C22.9188 8.192 21.9908 8.272 20.8388 8.272L19.6868 3.712H9.84681ZM57.5937 3.232L47.7057 16.672L58.0737 30.832L62.1537 31.12C62.1537 32.016 61.8817 32.976 61.3377 34H48.7617L48.6177 32.32C50.0577 31.808 51.4817 31.424 52.8897 31.168L45.0657 19.648L37.6257 30.832L41.7057 31.12C41.7057 32.016 41.4337 32.976 40.8897 34H28.5537L28.4097 32.32C29.8817 31.808 31.3217 31.424 32.7297 31.168L42.8577 16.672L33.4017 3.616L29.3217 3.328C29.3217 2.432 29.5937 1.472 30.1377 0.447997H43.0497L43.1937 2.128C41.5617 2.736 40.0417 3.168 38.6337 3.424L45.7377 13.888L52.6977 3.568L48.6177 3.28C48.6177 2.384 48.8897 1.424 49.4337 0.399998H61.7697L61.9137 2.08C60.4417 2.592 59.0017 2.976 57.5937 3.232ZM74.2823 3.472L73.8023 30.736L77.8343 31.12C77.8343 32.016 77.5623 32.976 77.0183 34H65.9783L65.8343 32.32C67.3063 31.808 68.7623 31.424 70.2023 31.168C70.1383 29.088 70.0263 24.8 69.8663 18.304C69.7383 11.808 69.6263 6.784 69.5303 3.232C68.2503 2.976 66.8103 2.592 65.2103 2.08L65.3543 0.399998H77.3543C77.8983 1.424 78.1703 2.384 78.1703 3.28C76.5383 3.408 75.2423 3.472 74.2823 3.472ZM98.2767 3.376C98.1167 8.752 97.9407 17.872 97.7487 30.736L101.781 31.12C101.781 32.016 101.509 32.976 100.965 34H89.9247L89.7807 32.32C91.6367 31.648 93.1087 31.264 94.1967 31.168C93.8767 18.816 93.6207 9.552 93.4287 3.376H86.4207L85.2687 8.272L82.4847 8.08C82.0047 6.128 81.7647 4.144 81.7647 2.128C81.7647 1.744 81.7967 1.168 81.8607 0.399998H109.509C109.573 0.815998 109.605 1.456 109.605 2.32C109.605 4.048 109.381 5.936 108.933 7.984C108.229 8.176 107.301 8.272 106.149 8.272L104.949 3.376H98.2767Z"/></g><defs><filter id="filter0_ii_9067_1610" width="115.782" height="37.6" x="-2.177" y=".4" color-interpolation-filters="sRGB" filterUnits="userSpaceOnUse"><feFlood flood-opacity="0" result="BackgroundImageFix"/><feBlend in="SourceGraphic" in2="BackgroundImageFix" mode="normal" result="shape"/><feColorMatrix in="SourceAlpha" result="hardAlpha" type="matrix" values="0 0 0 0 0 0 0 0 0 0 0 0 0 0 0 0 0 0 127 0"/><feOffset dx="4" dy="4"/><feGaussianBlur stdDeviation="6.35"/><feComposite in2="hardAlpha" k2="-1" k3="1" operator="arithmetic"/><feColorMatrix type="matrix" values="0 0 0 0 0.224807 0 0 0 0 0.340422 0 0 0 0 0.513846 0 0 0 0.36 0"/><feBlend in2="shape" mode="normal" result="effect1_innerShadow_9067_1610"/><feColorMatrix in="SourceAlpha" result="hardAlpha" type="matrix" values="0 0 0 0 0 0 0 0 0 0 0 0 0 0 0 0 0 0 127 0"/><feOffset dx="-3"/><feGaussianBlur stdDeviation="4.9"/><feComposite in2="hardAlpha" k2="-1" k3="1" operator="arithmetic"/><feColorMatrix type="matrix" values="0 0 0 0 1 0 0 0 0 1 0 0 0 0 1 0 0 0 1 0"/><feBlend in2="effect1_innerShadow_9067_1610" mode="normal" result="effect2_innerShadow_9067_1610"/></filter></defs></svg>