<svg width="209" height="36" viewBox="0 0 209 36" fill="none" xmlns="http://www.w3.org/2000/svg">
<g filter="url(#filter0_ii_9067_1613)">
<path d="M17.6508 5.24C16.6268 4.92 15.2668 4.76 13.5708 4.76H9.58675L9.44275 16.856L13.0908 16.808C15.4588 16.776 17.3468 16.296 18.7548 15.368C20.1628 14.44 20.8668 12.68 20.8668 10.088C20.8668 7.464 19.7948 5.848 17.6508 5.24ZM9.39475 19.928L9.25075 31.784L13.2348 32.12C13.2348 33.016 12.9628 33.976 12.4188 35H1.37875L1.23475 33.32C2.57875 32.84 3.95475 32.472 5.36275 32.216C5.17075 20.056 5.01075 10.776 4.88275 4.376C3.98675 4.248 2.57875 3.864 0.65875 3.224C0.65875 2.808 0.73875 2.2 0.89875 1.4H11.6988C17.5548 1.4 21.3628 2.12 23.1228 3.56C24.8508 4.936 25.7148 7.096 25.7148 10.04C25.7148 15 22.9948 18.216 17.5548 19.688L25.7628 31.832L29.7468 32.168C29.7468 33.032 29.4748 33.976 28.9308 35H23.0268L12.9468 19.928H9.39475ZM41.1828 4.712L40.9428 16.28H48.5268L48.9108 12.824C49.8068 12.824 50.7668 13.096 51.7908 13.64V22.76L50.1108 22.904C49.6308 21.528 49.3108 20.376 49.1508 19.448H40.9428C40.8788 22.232 40.8148 26.344 40.7508 31.784H51.7428L52.8948 27.272L55.6788 27.464C56.1268 29.288 56.3508 30.904 56.3508 32.312C56.3508 33.688 56.3188 34.584 56.2548 35H32.9268L32.7828 33.32C34.1908 32.808 35.5508 32.44 36.8628 32.216C36.6708 19.736 36.5108 10.456 36.3828 4.376C35.6788 4.312 34.2708 3.928 32.1588 3.224L32.3988 1.4H55.5348C55.5988 1.816 55.6308 2.456 55.6308 3.32C55.6308 5.08 55.4068 6.984 54.9587 9.032C54.2548 9.192 53.3268 9.272 52.1748 9.272L51.0228 4.712H41.1828ZM72.9936 31.784C77.7616 31.784 80.1456 29.848 80.1456 25.976C80.1456 24.088 78.9776 22.488 76.6416 21.176C75.5856 20.568 74.4176 19.992 73.1376 19.448C71.8896 18.904 70.6256 18.312 69.3456 17.672C68.0656 17.032 66.8976 16.344 65.8416 15.608C64.8176 14.872 63.9696 13.944 63.2976 12.824C62.6576 11.704 62.3376 10.44 62.3376 9.032C62.3376 6.728 63.2656 4.776 65.1216 3.176C67.0096 1.544 69.5856 0.727998 72.8496 0.727998C76.1136 0.727998 79.5536 1.72 83.1696 3.704C83.1696 5.528 82.9456 7.816 82.4976 10.568C81.7936 10.664 80.8656 10.712 79.7136 10.712L78.2736 5.144C77.8896 4.952 77.1216 4.76 75.9696 4.568C74.8496 4.376 73.8576 4.28 72.9936 4.28C71.1376 4.28 69.6976 4.68 68.6736 5.48C67.6496 6.248 67.1376 7.336 67.1376 8.744C67.1376 10.12 67.7296 11.368 68.9136 12.488C70.1296 13.576 71.5856 14.52 73.2816 15.32C75.0096 16.088 76.7216 16.888 78.4176 17.72C80.1456 18.552 81.6016 19.64 82.7856 20.984C84.0016 22.296 84.6096 23.832 84.6096 25.592C84.6096 28.792 83.5376 31.272 81.3936 33.032C79.2496 34.76 76.4496 35.624 72.9936 35.624C71.1056 35.624 69.0576 35.336 66.8496 34.76C64.6736 34.152 62.8656 33.384 61.4256 32.456C61.4896 30.312 61.7296 27.832 62.1456 25.016C62.8496 24.92 63.7776 24.872 64.9296 24.872L65.9376 30.632C66.6416 30.92 67.6976 31.192 69.1056 31.448C70.5456 31.672 71.8416 31.784 72.9936 31.784ZM104.253 4.376C104.093 9.752 103.917 18.872 103.725 31.736L107.757 32.12C107.757 33.016 107.485 33.976 106.941 35H95.9013L95.7573 33.32C97.6133 32.648 99.0853 32.264 100.173 32.168C99.8533 19.816 99.5973 10.552 99.4053 4.376H92.3973L91.2453 9.272L88.4613 9.08C87.9813 7.128 87.7413 5.144 87.7413 3.128C87.7413 2.744 87.7733 2.168 87.8373 1.4H115.485C115.549 1.816 115.581 2.456 115.581 3.32C115.581 5.048 115.357 6.936 114.909 8.984C114.205 9.176 113.277 9.272 112.125 9.272L110.925 4.376H104.253ZM120.712 2.408C121.288 2.216 122.856 2.008 125.416 1.784C127.976 1.528 130.296 1.4 132.376 1.4C134.488 1.4 136.12 1.496 137.272 1.688C137.304 1.816 137.32 1.976 137.32 2.168C137.32 2.328 137.224 2.728 137.032 3.368C136.872 4.008 136.744 4.424 136.648 4.616C136.392 4.872 135.672 5.064 134.488 5.192L143.656 31.736L148.216 32.12C148.216 33.016 147.944 33.976 147.4 35H136.36L136.216 33.32C136.952 32.936 138.024 32.6 139.432 32.312L136.984 25.448H123.592L121.336 31.736L125.224 32.12C125.224 33.016 124.952 33.976 124.408 35H113.368L113.224 33.32C114.472 32.872 115.8 32.52 117.208 32.264L126.52 5.048C123.672 4.728 121.672 4.344 120.52 3.896L120.712 2.408ZM133.192 14.744L130.648 5.336C130.456 5.304 130.184 5.288 129.832 5.288L127.24 15.08L124.456 22.376H136.12L133.192 14.744ZM166.901 5.24C165.877 4.92 164.517 4.76 162.821 4.76H158.837L158.693 16.856L162.341 16.808C164.709 16.776 166.597 16.296 168.005 15.368C169.413 14.44 170.117 12.68 170.117 10.088C170.117 7.464 169.045 5.848 166.901 5.24ZM158.645 19.928L158.501 31.784L162.485 32.12C162.485 33.016 162.213 33.976 161.669 35H150.629L150.485 33.32C151.829 32.84 153.205 32.472 154.613 32.216C154.421 20.056 154.261 10.776 154.133 4.376C153.237 4.248 151.829 3.864 149.909 3.224C149.909 2.808 149.989 2.2 150.149 1.4H160.949C166.805 1.4 170.613 2.12 172.373 3.56C174.101 4.936 174.965 7.096 174.965 10.04C174.965 15 172.245 18.216 166.805 19.688L175.013 31.832L178.997 32.168C178.997 33.032 178.725 33.976 178.181 35H172.277L162.197 19.928H158.645ZM197.441 4.376C197.281 9.752 197.105 18.872 196.913 31.736L200.945 32.12C200.945 33.016 200.673 33.976 200.129 35H189.089L188.945 33.32C190.801 32.648 192.273 32.264 193.361 32.168C193.041 19.816 192.785 10.552 192.593 4.376H185.585L184.433 9.272L181.649 9.08C181.169 7.128 180.929 5.144 180.929 3.128C180.929 2.744 180.961 2.168 181.025 1.4H208.673C208.737 1.816 208.769 2.456 208.769 3.32C208.769 5.048 208.545 6.936 208.097 8.984C207.393 9.176 206.465 9.272 205.313 9.272L204.113 4.376H197.441Z" fill="white"/>
</g>
<defs>
<filter id="filter0_ii_9067_1613" x="-2.34125" y="0.728516" width="215.11" height="38.8945" filterUnits="userSpaceOnUse" color-interpolation-filters="sRGB">
<feFlood flood-opacity="0" result="BackgroundImageFix"/>
<feBlend mode="normal" in="SourceGraphic" in2="BackgroundImageFix" result="shape"/>
<feColorMatrix in="SourceAlpha" type="matrix" values="0 0 0 0 0 0 0 0 0 0 0 0 0 0 0 0 0 0 127 0" result="hardAlpha"/>
<feOffset dx="4" dy="4"/>
<feGaussianBlur stdDeviation="6.35"/>
<feComposite in2="hardAlpha" operator="arithmetic" k2="-1" k3="1"/>
<feColorMatrix type="matrix" values="0 0 0 0 0.224807 0 0 0 0 0.340422 0 0 0 0 0.513846 0 0 0 0.36 0"/>
<feBlend mode="normal" in2="shape" result="effect1_innerShadow_9067_1613"/>
<feColorMatrix in="SourceAlpha" type="matrix" values="0 0 0 0 0 0 0 0 0 0 0 0 0 0 0 0 0 0 127 0" result="hardAlpha"/>
<feOffset dx="-3"/>
<feGaussianBlur stdDeviation="4.9"/>
<feComposite in2="hardAlpha" operator="arithmetic" k2="-1" k3="1"/>
<feColorMatrix type="matrix" values="0 0 0 0 1 0 0 0 0 1 0 0 0 0 1 0 0 0 1 0"/>
<feBlend mode="normal" in2="effect1_innerShadow_9067_1613" result="effect2_innerShadow_9067_1613"/>
</filter>
</defs>
</svg>
