<svg width="239" height="63" viewBox="0 0 239 63" fill="none" xmlns="http://www.w3.org/2000/svg">
<g filter="url(#filter0_dd_839_2954)">
<path d="M30.432 15.24C29.408 14.92 28.048 14.76 26.352 14.76H22.368L22.224 26.856L25.872 26.808C28.24 26.776 30.128 26.296 31.536 25.368C32.944 24.44 33.648 22.68 33.648 20.088C33.648 17.464 32.576 15.848 30.432 15.24ZM22.176 29.928L22.032 41.784L26.016 42.12C26.016 43.016 25.744 43.976 25.2 45H14.16L14.016 43.32C15.36 42.84 16.736 42.472 18.144 42.216C17.952 30.056 17.792 20.776 17.664 14.376C16.768 14.248 15.36 13.864 13.44 13.224C13.44 12.808 13.52 12.2 13.68 11.4H24.48C30.336 11.4 34.144 12.12 35.904 13.56C37.632 14.936 38.496 17.096 38.496 20.04C38.496 25 35.776 28.216 30.336 29.688L38.544 41.832L42.528 42.168C42.528 43.032 42.256 43.976 41.712 45H35.808L25.728 29.928H22.176ZM53.964 14.712L53.724 26.28H61.308L61.692 22.824C62.588 22.824 63.548 23.096 64.572 23.64V32.76L62.892 32.904C62.412 31.528 62.092 30.376 61.932 29.448H53.724C53.66 32.232 53.596 36.344 53.532 41.784H64.524L65.676 37.272L68.46 37.464C68.908 39.288 69.132 40.904 69.132 42.312C69.132 43.688 69.1 44.584 69.036 45H45.708L45.564 43.32C46.972 42.808 48.332 42.44 49.644 42.216C49.452 29.736 49.292 20.456 49.164 14.376C48.46 14.312 47.052 13.928 44.94 13.224L45.18 11.4H68.316C68.38 11.816 68.412 12.456 68.412 13.32C68.412 15.08 68.188 16.984 67.74 19.032C67.036 19.192 66.108 19.272 64.956 19.272L63.804 14.712H53.964ZM85.7749 41.784C90.5429 41.784 92.9269 39.848 92.9269 35.976C92.9269 34.088 91.7589 32.488 89.4229 31.176C88.3669 30.568 87.1989 29.992 85.9189 29.448C84.6709 28.904 83.4069 28.312 82.1269 27.672C80.8469 27.032 79.6789 26.344 78.6229 25.608C77.5989 24.872 76.7509 23.944 76.0789 22.824C75.4389 21.704 75.1189 20.44 75.1189 19.032C75.1189 16.728 76.0469 14.776 77.9029 13.176C79.7909 11.544 82.3669 10.728 85.6309 10.728C88.8949 10.728 92.3349 11.72 95.9509 13.704C95.9509 15.528 95.7269 17.816 95.2789 20.568C94.5749 20.664 93.6469 20.712 92.4949 20.712L91.0549 15.144C90.6709 14.952 89.9029 14.76 88.7509 14.568C87.6309 14.376 86.6389 14.28 85.7749 14.28C83.9189 14.28 82.4789 14.68 81.4549 15.48C80.4309 16.248 79.9189 17.336 79.9189 18.744C79.9189 20.12 80.5109 21.368 81.6949 22.488C82.9109 23.576 84.3669 24.52 86.0629 25.32C87.7909 26.088 89.5029 26.888 91.1989 27.72C92.9269 28.552 94.3829 29.64 95.5669 30.984C96.7829 32.296 97.3909 33.832 97.3909 35.592C97.3909 38.792 96.3189 41.272 94.1749 43.032C92.0309 44.76 89.2309 45.624 85.7749 45.624C83.8869 45.624 81.8389 45.336 79.6309 44.76C77.4549 44.152 75.6469 43.384 74.2069 42.456C74.2709 40.312 74.5109 37.832 74.9269 35.016C75.6309 34.92 76.5589 34.872 77.7109 34.872L78.7189 40.632C79.4229 40.92 80.4789 41.192 81.8869 41.448C83.3269 41.672 84.6229 41.784 85.7749 41.784ZM117.035 14.376C116.875 19.752 116.699 28.872 116.507 41.736L120.539 42.12C120.539 43.016 120.267 43.976 119.723 45H108.683L108.539 43.32C110.395 42.648 111.867 42.264 112.955 42.168C112.635 29.816 112.379 20.552 112.187 14.376H105.179L104.027 19.272L101.243 19.08C100.763 17.128 100.523 15.144 100.523 13.128C100.523 12.744 100.555 12.168 100.619 11.4H128.267C128.331 11.816 128.363 12.456 128.363 13.32C128.363 15.048 128.139 16.936 127.691 18.984C126.987 19.176 126.059 19.272 124.906 19.272L123.707 14.376H117.035ZM133.494 12.408C134.07 12.216 135.638 12.008 138.198 11.784C140.758 11.528 143.078 11.4 145.158 11.4C147.27 11.4 148.902 11.496 150.054 11.688C150.086 11.816 150.102 11.976 150.102 12.168C150.102 12.328 150.006 12.728 149.814 13.368C149.654 14.008 149.526 14.424 149.43 14.616C149.174 14.872 148.454 15.064 147.27 15.192L156.438 41.736L160.998 42.12C160.998 43.016 160.726 43.976 160.182 45H149.142L148.998 43.32C149.734 42.936 150.806 42.6 152.214 42.312L149.766 35.448H136.374L134.118 41.736L138.006 42.12C138.006 43.016 137.734 43.976 137.19 45H126.15L126.006 43.32C127.254 42.872 128.582 42.52 129.99 42.264L139.302 15.048C136.454 14.728 134.454 14.344 133.302 13.896L133.494 12.408ZM145.974 24.744L143.43 15.336C143.238 15.304 142.966 15.288 142.614 15.288L140.022 25.08L137.238 32.376H148.902L145.974 24.744ZM179.682 15.24C178.658 14.92 177.298 14.76 175.602 14.76H171.618L171.474 26.856L175.122 26.808C177.49 26.776 179.378 26.296 180.786 25.368C182.194 24.44 182.898 22.68 182.898 20.088C182.898 17.464 181.826 15.848 179.682 15.24ZM171.426 29.928L171.282 41.784L175.266 42.12C175.266 43.016 174.994 43.976 174.45 45H163.41L163.266 43.32C164.61 42.84 165.986 42.472 167.394 42.216C167.202 30.056 167.042 20.776 166.914 14.376C166.018 14.248 164.61 13.864 162.69 13.224C162.69 12.808 162.77 12.2 162.93 11.4H173.73C179.586 11.4 183.394 12.12 185.154 13.56C186.882 14.936 187.746 17.096 187.746 20.04C187.746 25 185.026 28.216 179.586 29.688L187.794 41.832L191.778 42.168C191.778 43.032 191.506 43.976 190.962 45H185.058L174.978 29.928H171.426ZM210.222 14.376C210.062 19.752 209.886 28.872 209.694 41.736L213.726 42.12C213.726 43.016 213.454 43.976 212.91 45H201.87L201.726 43.32C203.582 42.648 205.054 42.264 206.142 42.168C205.822 29.816 205.566 20.552 205.374 14.376H198.366L197.214 19.272L194.43 19.08C193.95 17.128 193.71 15.144 193.71 13.128C193.71 12.744 193.742 12.168 193.806 11.4H221.454C221.518 11.816 221.55 12.456 221.55 13.32C221.55 15.048 221.326 16.936 220.878 18.984C220.174 19.176 219.246 19.272 218.094 19.272L216.894 14.376H210.222Z" fill="#B0C6FF"/>
</g>
<defs>
<filter id="filter0_dd_839_2954" x="0.639941" y="0.927539" width="237.61" height="61.3965" filterUnits="userSpaceOnUse" color-interpolation-filters="sRGB">
<feFlood flood-opacity="0" result="BackgroundImageFix"/>
<feColorMatrix in="SourceAlpha" type="matrix" values="0 0 0 0 0 0 0 0 0 0 0 0 0 0 0 0 0 0 127 0" result="hardAlpha"/>
<feOffset dx="4" dy="4"/>
<feGaussianBlur stdDeviation="6.35"/>
<feComposite in2="hardAlpha" operator="out"/>
<feColorMatrix type="matrix" values="0 0 0 0 0.224807 0 0 0 0 0.340422 0 0 0 0 0.513846 0 0 0 0.36 0"/>
<feBlend mode="normal" in2="BackgroundImageFix" result="effect1_dropShadow_839_2954"/>
<feColorMatrix in="SourceAlpha" type="matrix" values="0 0 0 0 0 0 0 0 0 0 0 0 0 0 0 0 0 0 127 0" result="hardAlpha"/>
<feOffset dx="-3"/>
<feGaussianBlur stdDeviation="4.9"/>
<feComposite in2="hardAlpha" operator="out"/>
<feColorMatrix type="matrix" values="0 0 0 0 1 0 0 0 0 1 0 0 0 0 1 0 0 0 1 0"/>
<feBlend mode="normal" in2="effect1_dropShadow_839_2954" result="effect2_dropShadow_839_2954"/>
<feBlend mode="normal" in="SourceGraphic" in2="effect2_dropShadow_839_2954" result="shape"/>
</filter>
</defs>
</svg>
