<svg width="449" height="304" viewBox="0 0 449 304" fill="none" xmlns="http://www.w3.org/2000/svg">
<path d="M2.46591 24H0.965909L9.36364 0.727272H11L19.3977 24L17.8977 24L10.2386 2.55682H10.125L2.46591 24ZM4.59091 15.2386H15.7727V16.5568H4.59091V15.2386ZM24.5455 19.9886C24.2045 19.9886 23.9129 19.8712 23.6705 19.6364C23.4356 19.3939 23.3182 19.1023 23.3182 18.7614C23.3182 18.428 23.4356 18.1402 23.6705 17.8977C23.9129 17.6553 24.2045 17.5341 24.5455 17.5341C24.8788 17.5341 25.1667 17.6553 25.4091 17.8977C25.6515 18.1402 25.7727 18.428 25.7727 18.7614C25.7727 18.9886 25.7159 19.197 25.6023 19.3864C25.4962 19.5682 25.3485 19.7159 25.1591 19.8295C24.9773 19.9356 24.7727 19.9886 24.5455 19.9886ZM24.5455 8.15909C24.2045 8.15909 23.9129 8.03788 23.6705 7.79545C23.4356 7.55303 23.3182 7.26515 23.3182 6.93182C23.3182 6.59848 23.4356 6.31061 23.6705 6.06818C23.9129 5.82576 24.2045 5.70454 24.5455 5.70454C24.8788 5.70454 25.1667 5.82576 25.4091 6.06818C25.6515 6.31061 25.7727 6.59848 25.7727 6.93182C25.7727 7.15909 25.7159 7.36742 25.6023 7.55682C25.4962 7.73864 25.3485 7.88636 25.1591 8C24.9773 8.10606 24.7727 8.15909 24.5455 8.15909ZM41.0824 24V0.727272L48.6392 0.727272C50.0483 0.727272 51.2377 0.977272 52.2074 1.47727C53.1771 1.97727 53.9119 2.67803 54.4119 3.57954C54.9195 4.48106 55.1733 5.5303 55.1733 6.72727C55.1733 7.66667 55.0218 8.5 54.7188 9.22727C54.4157 9.95454 53.9915 10.5568 53.446 11.0341C52.9081 11.5038 52.2756 11.8295 51.5483 12.0114V12.1477C52.3513 12.2083 53.0975 12.4886 53.7869 12.9886C54.4763 13.4811 55.0294 14.1515 55.446 15C55.8703 15.8485 56.0824 16.8371 56.0824 17.9659C56.0824 19.1553 55.8248 20.2045 55.3097 21.1136C54.8021 22.0152 54.0407 22.7235 53.0256 23.2386C52.0104 23.7462 50.7528 24 49.2528 24H41.0824ZM42.5028 22.6818H49.2528C51.0028 22.6818 52.3475 22.2424 53.2869 21.3636C54.2339 20.4848 54.7074 19.3523 54.7074 17.9659C54.7074 16.9886 54.4763 16.1136 54.0142 15.3409C53.5597 14.5682 52.9271 13.9583 52.1165 13.5114C51.3059 13.0568 50.3665 12.8295 49.2983 12.8295H42.5028V22.6818ZM42.5028 11.5341H49.1278C50.1203 11.5341 50.9612 11.3182 51.6506 10.8864C52.3475 10.4545 52.8778 9.875 53.2415 9.14773C53.6127 8.42045 53.7983 7.61364 53.7983 6.72727C53.7983 5.28788 53.3513 4.14773 52.4574 3.30682C51.5634 2.46591 50.2907 2.04545 48.6392 2.04545L42.5028 2.04545V11.5341ZM69.1307 2.04545V0.727272L85.4375 0.727272V2.04545H77.9943V24H76.5739V2.04545H69.1307ZM93.6591 17.2159V16.1023C93.6667 15.1553 93.7803 14.3598 94 13.7159C94.2197 13.072 94.5682 12.5 95.0455 12C95.5227 11.4924 96.1477 10.9811 96.9205 10.4659C97.5795 10.0114 98.1174 9.56818 98.5341 9.13636C98.9508 8.69697 99.2538 8.23864 99.4432 7.76136C99.6402 7.28409 99.7386 6.76136 99.7386 6.19318C99.7386 5.30682 99.5265 4.52651 99.1023 3.85227C98.6856 3.17045 98.1174 2.64015 97.3977 2.26136C96.6856 1.875 95.8826 1.68182 94.9886 1.68182C94.0947 1.68182 93.2841 1.88258 92.5568 2.28409C91.8295 2.6856 91.2462 3.25 90.8068 3.97727C90.3674 4.70455 90.1364 5.56061 90.1136 6.54545H88.6705C88.6932 5.34091 88.9811 4.27651 89.5341 3.35227C90.0947 2.42803 90.8485 1.70833 91.7955 1.19318C92.7424 0.670454 93.8068 0.40909 94.9886 0.40909C96.178 0.40909 97.2348 0.662878 98.1591 1.17045C99.0833 1.67045 99.8068 2.35985 100.33 3.23864C100.86 4.11742 101.125 5.11742 101.125 6.23864C101.125 6.94318 101.011 7.59091 100.784 8.18182C100.557 8.76515 100.201 9.31818 99.7159 9.84091C99.2311 10.3636 98.6023 10.8939 97.8295 11.4318C97.125 11.9167 96.5682 12.3788 96.1591 12.8182C95.7576 13.2576 95.4735 13.7348 95.3068 14.25C95.1402 14.7652 95.0568 15.3826 95.0568 16.1023V17.2159H93.6591ZM94.3864 24.1477C94.0455 24.1477 93.7538 24.0303 93.5114 23.7955C93.2765 23.553 93.1591 23.2614 93.1591 22.9205C93.1591 22.5871 93.2765 22.2992 93.5114 22.0568C93.7538 21.8144 94.0455 21.6932 94.3864 21.6932C94.7273 21.6932 95.0152 21.8144 95.25 22.0568C95.4924 22.2992 95.6136 22.5871 95.6136 22.9205C95.6136 23.1477 95.5568 23.3561 95.4432 23.5455C95.3371 23.7273 95.1894 23.875 95 23.9886C94.8182 24.0947 94.6136 24.1477 94.3864 24.1477ZM3.36364 63L3.36364 39.7273H10.9205C12.3295 39.7273 13.5189 39.9773 14.4886 40.4773C15.4583 40.9773 16.1932 41.678 16.6932 42.5795C17.2008 43.4811 17.4545 44.5303 17.4545 45.7273C17.4545 46.6667 17.303 47.5 17 48.2273C16.697 48.9545 16.2727 49.5568 15.7273 50.0341C15.1894 50.5038 14.5568 50.8295 13.8295 51.0114V51.1477C14.6326 51.2083 15.3788 51.4886 16.0682 51.9886C16.7576 52.4811 17.3106 53.1515 17.7273 54C18.1515 54.8485 18.3636 55.8371 18.3636 56.9659C18.3636 58.1553 18.1061 59.2045 17.5909 60.1136C17.0833 61.0152 16.322 61.7235 15.3068 62.2386C14.2917 62.7462 13.0341 63 11.5341 63H3.36364ZM4.78409 61.6818H11.5341C13.2841 61.6818 14.6288 61.2424 15.5682 60.3636C16.5152 59.4848 16.9886 58.3523 16.9886 56.9659C16.9886 55.9886 16.7576 55.1136 16.2955 54.3409C15.8409 53.5682 15.2083 52.9583 14.3977 52.5114C13.5871 52.0568 12.6477 51.8295 11.5795 51.8295H4.78409L4.78409 61.6818ZM4.78409 50.5341H11.4091C12.4015 50.5341 13.2424 50.3182 13.9318 49.8864C14.6288 49.4545 15.1591 48.875 15.5227 48.1477C15.8939 47.4205 16.0795 46.6136 16.0795 45.7273C16.0795 44.2879 15.6326 43.1477 14.7386 42.3068C13.8447 41.4659 12.572 41.0455 10.9205 41.0455H4.78409L4.78409 50.5341ZM24.7642 58.9886C24.4233 58.9886 24.1316 58.8712 23.8892 58.6364C23.6544 58.3939 23.5369 58.1023 23.5369 57.7614C23.5369 57.428 23.6544 57.1402 23.8892 56.8977C24.1316 56.6553 24.4233 56.5341 24.7642 56.5341C25.0975 56.5341 25.3854 56.6553 25.6278 56.8977C25.8703 57.1402 25.9915 57.428 25.9915 57.7614C25.9915 57.9886 25.9347 58.197 25.821 58.3864C25.715 58.5682 25.5672 58.7159 25.3778 58.8295C25.196 58.9356 24.9915 58.9886 24.7642 58.9886ZM24.7642 47.1591C24.4233 47.1591 24.1316 47.0379 23.8892 46.7955C23.6544 46.553 23.5369 46.2652 23.5369 45.9318C23.5369 45.5985 23.6544 45.3106 23.8892 45.0682C24.1316 44.8258 24.4233 44.7045 24.7642 44.7045C25.0975 44.7045 25.3854 44.8258 25.6278 45.0682C25.8703 45.3106 25.9915 45.5985 25.9915 45.9318C25.9915 46.1591 25.9347 46.3674 25.821 46.5568C25.715 46.7386 25.5672 46.8864 25.3778 47C25.196 47.1061 24.9915 47.1591 24.7642 47.1591ZM38.9375 39.7273H40.6193L47.9489 50.9545H48.108L55.4375 39.7273H57.1193L48.7443 52.4432V63H47.3125V52.4432L38.9375 39.7273ZM62.6335 59.8182L62.429 61.0114C62.2926 61.7917 62.1184 62.6705 61.9062 63.6477C61.7017 64.6326 61.4896 65.5795 61.2699 66.4886C61.0502 67.3977 60.8494 68.1288 60.6676 68.6818H59.5881C59.6941 68.1364 59.8229 67.4659 59.9744 66.6705C60.1335 65.8826 60.2964 65.0114 60.4631 64.0568C60.6373 63.1023 60.8002 62.1136 60.9517 61.0909L61.1562 59.8182H62.6335ZM78.7614 51.6818V63H77.375V39.7273H78.7614V48.3068H78.8977C79.3068 47.3977 79.9583 46.6742 80.8523 46.1364C81.7538 45.5909 82.8333 45.3182 84.0909 45.3182C85.2652 45.3182 86.2992 45.5682 87.1932 46.0682C88.0871 46.5606 88.7841 47.2689 89.2841 48.1932C89.7917 49.1098 90.0455 50.2083 90.0455 51.4886V63H88.6705V51.5455C88.6705 50.053 88.2273 48.8561 87.3409 47.9545C86.4545 47.053 85.2841 46.6023 83.8295 46.6023C82.8523 46.6023 81.9811 46.8144 81.2159 47.2386C80.4508 47.6629 79.8485 48.2576 79.4091 49.0227C78.9773 49.7803 78.7614 50.6667 78.7614 51.6818ZM102.588 63.3636C101.012 63.3636 99.6411 62.9735 98.4744 62.1932C97.3078 61.4129 96.4063 60.3447 95.7699 58.9886C95.1335 57.6326 94.8153 56.0871 94.8153 54.3523C94.8153 52.6098 95.1335 51.0568 95.7699 49.6932C96.4138 48.3295 97.2964 47.2538 98.4176 46.4659C99.5388 45.678 100.819 45.2841 102.259 45.2841C103.236 45.2841 104.16 45.4811 105.031 45.875C105.91 46.2614 106.683 46.822 107.349 47.5568C108.024 48.2917 108.55 49.178 108.929 50.2159C109.315 51.2538 109.509 52.4205 109.509 53.7159V54.5795H95.6903V53.3182H108.122C108.122 52.053 107.865 50.9129 107.349 49.8977C106.834 48.8826 106.134 48.0758 105.247 47.4773C104.361 46.8788 103.365 46.5795 102.259 46.5795C101.099 46.5795 100.065 46.9053 99.1562 47.5568C98.2547 48.2008 97.5388 49.072 97.0085 50.1705C96.4858 51.2689 96.2131 52.4962 96.1903 53.8523V54.4205C96.1903 55.875 96.4441 57.1818 96.9517 58.3409C97.4669 59.4924 98.2017 60.4053 99.1562 61.0795C100.111 61.7462 101.255 62.0795 102.588 62.0795C103.543 62.0795 104.357 61.9205 105.031 61.6023C105.713 61.2765 106.27 60.8826 106.702 60.4205C107.134 59.9583 107.459 59.5114 107.679 59.0795L108.94 59.5909C108.675 60.1742 108.262 60.7576 107.702 61.3409C107.149 61.9167 106.444 62.3977 105.588 62.7841C104.74 63.1705 103.74 63.3636 102.588 63.3636ZM115.668 39.7273V63H114.281V39.7273L115.668 39.7273ZM121.406 69.5455V45.5455H122.759V49.4432H122.929C123.202 48.6932 123.584 48.0038 124.077 47.375C124.577 46.7462 125.194 46.2424 125.929 45.8636C126.671 45.4773 127.543 45.2841 128.543 45.2841C129.952 45.2841 131.179 45.6705 132.224 46.4432C133.27 47.2159 134.08 48.2841 134.656 49.6477C135.232 51.0038 135.52 52.5606 135.52 54.3182C135.52 56.0758 135.228 57.6364 134.645 59C134.069 60.3561 133.259 61.4242 132.213 62.2045C131.175 62.9773 129.959 63.3636 128.565 63.3636C127.573 63.3636 126.702 63.1742 125.952 62.7955C125.209 62.4167 124.584 61.9129 124.077 61.2841C123.577 60.6477 123.194 59.9508 122.929 59.1932H122.793V69.5455H121.406ZM122.77 54.3068C122.77 55.7917 122.997 57.1212 123.452 58.2955C123.906 59.4621 124.558 60.3864 125.406 61.0682C126.255 61.7424 127.266 62.0795 128.44 62.0795C129.63 62.0795 130.649 61.7386 131.497 61.0568C132.353 60.3674 133.005 59.4356 133.452 58.2614C133.906 57.0871 134.134 55.7689 134.134 54.3068C134.134 52.8447 133.91 51.5303 133.463 50.3636C133.016 49.197 132.368 48.2765 131.52 47.6023C130.671 46.9205 129.645 46.5795 128.44 46.5795C127.251 46.5795 126.232 46.9167 125.384 47.5909C124.543 48.2576 123.895 49.1742 123.44 50.3409C122.993 51.5 122.77 52.822 122.77 54.3068ZM147.119 63.3636C145.544 63.3636 144.172 62.9735 143.006 62.1932C141.839 61.4129 140.938 60.3447 140.301 58.9886C139.665 57.6326 139.347 56.0871 139.347 54.3523C139.347 52.6098 139.665 51.0568 140.301 49.6932C140.945 48.3295 141.828 47.2538 142.949 46.4659C144.07 45.678 145.35 45.2841 146.79 45.2841C147.767 45.2841 148.691 45.4811 149.562 45.875C150.441 46.2614 151.214 46.822 151.881 47.5568C152.555 48.2917 153.081 49.178 153.46 50.2159C153.847 51.2538 154.04 52.4205 154.04 53.7159V54.5795H140.222V53.3182H152.653C152.653 52.053 152.396 50.9129 151.881 49.8977C151.366 48.8826 150.665 48.0758 149.778 47.4773C148.892 46.8788 147.896 46.5795 146.79 46.5795C145.631 46.5795 144.597 46.9053 143.688 47.5568C142.786 48.2008 142.07 49.072 141.54 50.1705C141.017 51.2689 140.744 52.4962 140.722 53.8523V54.4205C140.722 55.875 140.975 57.1818 141.483 58.3409C141.998 59.4924 142.733 60.4053 143.688 61.0795C144.642 61.7462 145.786 62.0795 147.119 62.0795C148.074 62.0795 148.888 61.9205 149.562 61.6023C150.244 61.2765 150.801 60.8826 151.233 60.4205C151.665 59.9583 151.991 59.5114 152.21 59.0795L153.472 59.5909C153.206 60.1742 152.794 60.7576 152.233 61.3409C151.68 61.9167 150.975 62.3977 150.119 62.7841C149.271 63.1705 148.271 63.3636 147.119 63.3636ZM164.801 63.3636C163.4 63.3636 162.176 62.9773 161.131 62.2045C160.085 61.4318 159.275 60.3674 158.699 59.0114C158.131 57.6477 157.847 56.0833 157.847 54.3182C157.847 52.5682 158.134 51.0152 158.71 49.6591C159.294 48.2955 160.108 47.2273 161.153 46.4545C162.199 45.6742 163.419 45.2841 164.812 45.2841C165.812 45.2841 166.68 45.4773 167.415 45.8636C168.157 46.2424 168.778 46.7462 169.278 47.375C169.786 48.0038 170.172 48.6932 170.438 49.4432H170.574V39.7273H171.949V63H170.608V59.1932H170.438C170.157 59.9432 169.767 60.6364 169.267 61.2727C168.767 61.9015 168.146 62.4091 167.403 62.7955C166.661 63.1742 165.794 63.3636 164.801 63.3636ZM164.926 62.0795C166.108 62.0795 167.119 61.7424 167.96 61.0682C168.809 60.3864 169.456 59.4621 169.903 58.2955C170.358 57.1212 170.585 55.7917 170.585 54.3068C170.585 52.822 170.358 51.5 169.903 50.3409C169.456 49.1742 168.809 48.2576 167.96 47.5909C167.119 46.9167 166.108 46.5795 164.926 46.5795C163.729 46.5795 162.703 46.9205 161.847 47.6023C160.998 48.2765 160.347 49.197 159.892 50.3636C159.445 51.5303 159.222 52.8447 159.222 54.3068C159.222 55.7689 159.445 57.0871 159.892 58.2614C160.347 59.4356 160.998 60.3674 161.847 61.0568C162.703 61.7386 163.729 62.0795 164.926 62.0795ZM179.483 63.1477C179.142 63.1477 178.85 63.0303 178.608 62.7955C178.373 62.553 178.256 62.2614 178.256 61.9205C178.256 61.5871 178.373 61.2992 178.608 61.0568C178.85 60.8144 179.142 60.6932 179.483 60.6932C179.816 60.6932 180.104 60.8144 180.347 61.0568C180.589 61.2992 180.71 61.5871 180.71 61.9205C180.71 62.1477 180.653 62.3561 180.54 62.5455C180.434 62.7273 180.286 62.875 180.097 62.9886C179.915 63.0947 179.71 63.1477 179.483 63.1477ZM2.46591 102H0.965909L9.36364 78.7273H11L19.3977 102H17.8977L10.2386 80.5568H10.125L2.46591 102ZM4.59091 93.2386H15.7727V94.5568H4.59091L4.59091 93.2386ZM24.5455 97.9886C24.2045 97.9886 23.9129 97.8712 23.6705 97.6364C23.4356 97.3939 23.3182 97.1023 23.3182 96.7614C23.3182 96.428 23.4356 96.1402 23.6705 95.8977C23.9129 95.6553 24.2045 95.5341 24.5455 95.5341C24.8788 95.5341 25.1667 95.6553 25.4091 95.8977C25.6515 96.1402 25.7727 96.428 25.7727 96.7614C25.7727 96.9886 25.7159 97.197 25.6023 97.3864C25.4962 97.5682 25.3485 97.7159 25.1591 97.8295C24.9773 97.9356 24.7727 97.9886 24.5455 97.9886ZM24.5455 86.1591C24.2045 86.1591 23.9129 86.0379 23.6705 85.7955C23.4356 85.553 23.3182 85.2652 23.3182 84.9318C23.3182 84.5985 23.4356 84.3106 23.6705 84.0682C23.9129 83.8258 24.2045 83.7045 24.5455 83.7045C24.8788 83.7045 25.1667 83.8258 25.4091 84.0682C25.6515 84.3106 25.7727 84.5985 25.7727 84.9318C25.7727 85.1591 25.7159 85.3674 25.6023 85.5568C25.4962 85.7386 25.3485 85.8864 25.1591 86C24.9773 86.1061 24.7727 86.1591 24.5455 86.1591ZM40.1847 102H38.6847L47.0824 78.7273H48.7187L57.1165 102H55.6165L47.9574 80.5568H47.8437L40.1847 102ZM42.3097 93.2386H53.4915V94.5568H42.3097V93.2386ZM62.8778 78.7273V102H61.4574V78.7273H62.8778ZM72.6591 95.2159V94.1023C72.6667 93.1553 72.7803 92.3598 73 91.7159C73.2197 91.072 73.5682 90.5 74.0455 90C74.5227 89.4924 75.1477 88.9811 75.9205 88.4659C76.5795 88.0114 77.1174 87.5682 77.5341 87.1364C77.9508 86.697 78.2538 86.2386 78.4432 85.7614C78.6402 85.2841 78.7386 84.7614 78.7386 84.1932C78.7386 83.3068 78.5265 82.5265 78.1023 81.8523C77.6856 81.1705 77.1174 80.6402 76.3977 80.2614C75.6856 79.875 74.8826 79.6818 73.9886 79.6818C73.0947 79.6818 72.2841 79.8826 71.5568 80.2841C70.8295 80.6856 70.2462 81.25 69.8068 81.9773C69.3674 82.7045 69.1364 83.5606 69.1136 84.5455H67.6705C67.6932 83.3409 67.9811 82.2765 68.5341 81.3523C69.0947 80.428 69.8485 79.7083 70.7955 79.1932C71.7424 78.6705 72.8068 78.4091 73.9886 78.4091C75.178 78.4091 76.2348 78.6629 77.1591 79.1705C78.0833 79.6705 78.8068 80.3598 79.3295 81.2386C79.8598 82.1174 80.125 83.1174 80.125 84.2386C80.125 84.9432 80.0114 85.5909 79.7841 86.1818C79.5568 86.7652 79.2008 87.3182 78.7159 87.8409C78.2311 88.3636 77.6023 88.8939 76.8295 89.4318C76.125 89.9167 75.5682 90.3788 75.1591 90.8182C74.7576 91.2576 74.4735 91.7348 74.3068 92.25C74.1402 92.7652 74.0568 93.3826 74.0568 94.1023V95.2159H72.6591ZM73.3864 102.148C73.0455 102.148 72.7538 102.03 72.5114 101.795C72.2765 101.553 72.1591 101.261 72.1591 100.92C72.1591 100.587 72.2765 100.299 72.5114 100.057C72.7538 99.8144 73.0455 99.6932 73.3864 99.6932C73.7273 99.6932 74.0152 99.8144 74.25 100.057C74.4924 100.299 74.6136 100.587 74.6136 100.92C74.6136 101.148 74.5568 101.356 74.4432 101.545C74.3371 101.727 74.1894 101.875 74 101.989C73.8182 102.095 73.6136 102.148 73.3864 102.148ZM106.784 84.5455C106.663 83.0985 106.072 81.928 105.011 81.0341C103.958 80.1402 102.595 79.6932 100.92 79.6932C99.7917 79.6932 98.7879 79.9015 97.9091 80.3182C97.0303 80.7348 96.3409 81.303 95.8409 82.0227C95.3409 82.7424 95.0909 83.5682 95.0909 84.5C95.0909 85.0985 95.2045 85.6402 95.4318 86.125C95.6667 86.6023 95.9962 87.0303 96.4205 87.4091C96.8447 87.7803 97.3485 88.1061 97.9318 88.3864C98.5152 88.6667 99.1591 88.9129 99.8636 89.125L102.409 89.875C103.28 90.1402 104.083 90.447 104.818 90.7955C105.561 91.1439 106.205 91.5606 106.75 92.0455C107.303 92.5227 107.731 93.0833 108.034 93.7273C108.345 94.3712 108.5 95.1136 108.5 95.9545C108.5 97.1818 108.182 98.2803 107.545 99.25C106.917 100.22 106.019 100.985 104.852 101.545C103.693 102.098 102.326 102.375 100.75 102.375C99.25 102.375 97.9432 102.121 96.8295 101.614C95.7235 101.106 94.8485 100.402 94.2045 99.5C93.5606 98.5909 93.197 97.5455 93.1136 96.3636H94.5682C94.6439 97.3258 94.9508 98.1591 95.4886 98.8636C96.0341 99.5606 96.7576 100.098 97.6591 100.477C98.5606 100.856 99.5909 101.045 100.75 101.045C102 101.045 103.102 100.833 104.057 100.409C105.011 99.9773 105.758 99.3788 106.295 98.6136C106.833 97.8485 107.102 96.9583 107.102 95.9432C107.102 95.125 106.909 94.4242 106.523 93.8409C106.136 93.2576 105.564 92.7538 104.807 92.3295C104.057 91.9053 103.125 91.5265 102.011 91.1932L99.2955 90.375C97.4773 89.822 96.0871 89.0682 95.125 88.1136C94.1705 87.1591 93.6932 85.9697 93.6932 84.5455C93.6932 83.3485 94.0114 82.2879 94.6477 81.3636C95.2841 80.4318 96.1477 79.7008 97.2386 79.1705C98.3371 78.6402 99.5758 78.375 100.955 78.375C102.341 78.375 103.564 78.6439 104.625 79.1818C105.686 79.7121 106.527 80.4432 107.148 81.375C107.769 82.2992 108.114 83.3561 108.182 84.5455H106.784ZM120.432 102.364C118.856 102.364 117.485 101.973 116.318 101.193C115.152 100.413 114.25 99.3447 113.614 97.9886C112.977 96.6326 112.659 95.0871 112.659 93.3523C112.659 91.6098 112.977 90.0568 113.614 88.6932C114.258 87.3295 115.14 86.2538 116.261 85.4659C117.383 84.678 118.663 84.2841 120.102 84.2841C121.08 84.2841 122.004 84.4811 122.875 84.875C123.754 85.2614 124.527 85.822 125.193 86.5568C125.867 87.2917 126.394 88.178 126.773 89.2159C127.159 90.2538 127.352 91.4205 127.352 92.7159V93.5795H113.534V92.3182H125.966C125.966 91.053 125.708 89.9129 125.193 88.8977C124.678 87.8826 123.977 87.0758 123.091 86.4773C122.205 85.8788 121.208 85.5795 120.102 85.5795C118.943 85.5795 117.909 85.9053 117 86.5568C116.098 87.2008 115.383 88.072 114.852 89.1705C114.33 90.2689 114.057 91.4962 114.034 92.8523V93.4205C114.034 94.875 114.288 96.1818 114.795 97.3409C115.311 98.4924 116.045 99.4053 117 100.08C117.955 100.746 119.098 101.08 120.432 101.08C121.386 101.08 122.201 100.92 122.875 100.602C123.557 100.277 124.114 99.8826 124.545 99.4205C124.977 98.9583 125.303 98.5114 125.523 98.0795L126.784 98.5909C126.519 99.1742 126.106 99.7576 125.545 100.341C124.992 100.917 124.288 101.398 123.432 101.784C122.583 102.17 121.583 102.364 120.432 102.364ZM138.295 84.5455V85.7841H130.67V84.5455H138.295ZM133.25 80.3636H134.625V97.875C134.625 98.5871 134.761 99.1705 135.034 99.625C135.314 100.072 135.678 100.405 136.125 100.625C136.58 100.837 137.064 100.943 137.58 100.943C137.83 100.943 138.045 100.924 138.227 100.886C138.417 100.848 138.595 100.799 138.761 100.739L139.102 102C138.89 102.076 138.655 102.14 138.398 102.193C138.14 102.254 137.837 102.284 137.489 102.284C136.761 102.284 136.072 102.121 135.42 101.795C134.777 101.47 134.254 100.996 133.852 100.375C133.451 99.7538 133.25 99.0038 133.25 98.125V80.3636ZM154.619 95.8068V84.5455H156.006V102H154.619V99.1705H154.506C154.097 100.072 153.434 100.807 152.517 101.375C151.608 101.943 150.532 102.227 149.29 102.227C148.146 102.227 147.134 101.977 146.256 101.477C145.377 100.977 144.688 100.269 144.188 99.3523C143.688 98.428 143.438 97.3295 143.438 96.0568V84.5455H144.824V96C144.824 97.4545 145.263 98.6326 146.142 99.5341C147.028 100.428 148.172 100.875 149.574 100.875C150.483 100.875 151.32 100.67 152.085 100.261C152.85 99.8523 153.464 99.2689 153.926 98.5114C154.388 97.7462 154.619 96.8447 154.619 95.8068ZM161.75 108.545V84.5455H163.102V88.4432H163.273C163.545 87.6932 163.928 87.0038 164.42 86.375C164.92 85.7462 165.538 85.2424 166.273 84.8636C167.015 84.4773 167.886 84.2841 168.886 84.2841C170.295 84.2841 171.523 84.6705 172.568 85.4432C173.614 86.2159 174.424 87.2841 175 88.6477C175.576 90.0038 175.864 91.5606 175.864 93.3182C175.864 95.0758 175.572 96.6364 174.989 98C174.413 99.3561 173.602 100.424 172.557 101.205C171.519 101.977 170.303 102.364 168.909 102.364C167.917 102.364 167.045 102.174 166.295 101.795C165.553 101.417 164.928 100.913 164.42 100.284C163.92 99.6477 163.538 98.9508 163.273 98.1932H163.136V108.545H161.75ZM163.114 93.3068C163.114 94.7917 163.341 96.1212 163.795 97.2955C164.25 98.4621 164.902 99.3864 165.75 100.068C166.598 100.742 167.61 101.08 168.784 101.08C169.973 101.08 170.992 100.739 171.841 100.057C172.697 99.3674 173.348 98.4356 173.795 97.2614C174.25 96.0871 174.477 94.7689 174.477 93.3068C174.477 91.8447 174.254 90.5303 173.807 89.3636C173.36 88.197 172.712 87.2765 171.864 86.6023C171.015 85.9205 169.989 85.5795 168.784 85.5795C167.595 85.5795 166.576 85.9167 165.727 86.5909C164.886 87.2576 164.239 88.1742 163.784 89.3409C163.337 90.5 163.114 91.822 163.114 93.3068ZM184.19 95.2159V94.1023C184.198 93.1553 184.312 92.3598 184.531 91.7159C184.751 91.072 185.099 90.5 185.577 90C186.054 89.4924 186.679 88.9811 187.452 88.4659C188.111 88.0114 188.649 87.5682 189.065 87.1364C189.482 86.697 189.785 86.2386 189.974 85.7614C190.171 85.2841 190.27 84.7614 190.27 84.1932C190.27 83.3068 190.058 82.5265 189.634 81.8523C189.217 81.1705 188.649 80.6402 187.929 80.2614C187.217 79.875 186.414 79.6818 185.52 79.6818C184.626 79.6818 183.815 79.8826 183.088 80.2841C182.361 80.6856 181.777 81.25 181.338 81.9773C180.899 82.7045 180.668 83.5606 180.645 84.5455H179.202C179.224 83.3409 179.512 82.2765 180.065 81.3523C180.626 80.428 181.38 79.7083 182.327 79.1932C183.274 78.6705 184.338 78.4091 185.52 78.4091C186.709 78.4091 187.766 78.6629 188.69 79.1705C189.615 79.6705 190.338 80.3598 190.861 81.2386C191.391 82.1174 191.656 83.1174 191.656 84.2386C191.656 84.9432 191.543 85.5909 191.315 86.1818C191.088 86.7652 190.732 87.3182 190.247 87.8409C189.762 88.3636 189.134 88.8939 188.361 89.4318C187.656 89.9167 187.099 90.3788 186.69 90.8182C186.289 91.2576 186.005 91.7348 185.838 92.25C185.671 92.7652 185.588 93.3826 185.588 94.1023V95.2159H184.19ZM184.918 102.148C184.577 102.148 184.285 102.03 184.043 101.795C183.808 101.553 183.69 101.261 183.69 100.92C183.69 100.587 183.808 100.299 184.043 100.057C184.285 99.8144 184.577 99.6932 184.918 99.6932C185.259 99.6932 185.546 99.8144 185.781 100.057C186.024 100.299 186.145 100.587 186.145 100.92C186.145 101.148 186.088 101.356 185.974 101.545C185.868 101.727 185.721 101.875 185.531 101.989C185.349 102.095 185.145 102.148 184.918 102.148ZM21.0909 125H19.6364C19.4848 124.212 19.2008 123.451 18.7841 122.716C18.3674 121.973 17.8295 121.307 17.1705 120.716C16.5189 120.117 15.7614 119.644 14.8977 119.295C14.0341 118.947 13.0795 118.773 12.0341 118.773C10.5038 118.773 9.0947 119.182 7.80682 120C6.52652 120.811 5.5 122.004 4.72727 123.58C3.96212 125.155 3.57955 127.083 3.57955 129.364C3.57955 131.659 3.96212 133.595 4.72727 135.17C5.5 136.746 6.52652 137.939 7.80682 138.75C9.0947 139.553 10.5038 139.955 12.0341 139.955C13.0795 139.955 14.0341 139.784 14.8977 139.443C15.7614 139.095 16.5189 138.625 17.1705 138.034C17.8295 137.436 18.3674 136.765 18.7841 136.023C19.2008 135.28 19.4848 134.515 19.6364 133.727H21.0909C20.9242 134.667 20.6023 135.587 20.125 136.489C19.6553 137.39 19.0341 138.208 18.2614 138.943C17.4962 139.67 16.5909 140.25 15.5455 140.682C14.5076 141.106 13.3371 141.318 12.0341 141.318C10.0947 141.318 8.38636 140.826 6.90909 139.841C5.43182 138.848 4.27273 137.455 3.43182 135.659C2.59848 133.864 2.18182 131.765 2.18182 129.364C2.18182 126.962 2.59848 124.864 3.43182 123.068C4.27273 121.273 5.43182 119.883 6.90909 118.898C8.38636 117.905 10.0947 117.409 12.0341 117.409C13.3371 117.409 14.5076 117.625 15.5455 118.057C16.5909 118.481 17.4962 119.057 18.2614 119.784C19.0341 120.504 19.6553 121.314 20.125 122.216C20.6023 123.117 20.9242 124.045 21.0909 125ZM27.358 136.989C27.017 136.989 26.7254 136.871 26.483 136.636C26.2481 136.394 26.1307 136.102 26.1307 135.761C26.1307 135.428 26.2481 135.14 26.483 134.898C26.7254 134.655 27.017 134.534 27.358 134.534C27.6913 134.534 27.9792 134.655 28.2216 134.898C28.464 135.14 28.5852 135.428 28.5852 135.761C28.5852 135.989 28.5284 136.197 28.4148 136.386C28.3087 136.568 28.161 136.716 27.9716 136.83C27.7898 136.936 27.5852 136.989 27.358 136.989ZM27.358 125.159C27.017 125.159 26.7254 125.038 26.483 124.795C26.2481 124.553 26.1307 124.265 26.1307 123.932C26.1307 123.598 26.2481 123.311 26.483 123.068C26.7254 122.826 27.017 122.705 27.358 122.705C27.6913 122.705 27.9792 122.826 28.2216 123.068C28.464 123.311 28.5852 123.598 28.5852 123.932C28.5852 124.159 28.5284 124.367 28.4148 124.557C28.3087 124.739 28.161 124.886 27.9716 125C27.7898 125.106 27.5852 125.159 27.358 125.159ZM43.8949 141V117.727H56.8835V119.045H45.3153V128.693H55.804V130.011H45.3153V141H43.8949ZM82.2472 127.307L80.9631 127.648C80.7585 127.011 80.4669 126.462 80.0881 126C79.7093 125.538 79.232 125.182 78.6562 124.932C78.0881 124.674 77.4063 124.545 76.6108 124.545C75.3305 124.545 74.2813 124.864 73.4631 125.5C72.6525 126.136 72.2472 126.966 72.2472 127.989C72.2472 128.822 72.5237 129.511 73.0767 130.057C73.6297 130.595 74.4744 131.004 75.6108 131.284L78.2926 131.955C79.6714 132.295 80.7093 132.848 81.4062 133.614C82.1032 134.371 82.4517 135.314 82.4517 136.443C82.4517 137.405 82.1903 138.258 81.6676 139C81.1449 139.742 80.4214 140.322 79.4972 140.739C78.5805 141.155 77.5123 141.364 76.2926 141.364C74.6638 141.364 73.3267 140.985 72.2812 140.227C71.2358 139.462 70.5653 138.367 70.2699 136.943L71.5994 136.602C71.8494 137.739 72.3684 138.606 73.1562 139.205C73.9517 139.795 74.9934 140.091 76.2812 140.091C77.7055 140.091 78.8532 139.754 79.7244 139.08C80.6032 138.405 81.0426 137.542 81.0426 136.489C81.0426 135.686 80.785 135.008 80.2699 134.455C79.7547 133.902 78.9744 133.496 77.929 133.239L75.1449 132.557C73.7206 132.208 72.6525 131.652 71.9403 130.886C71.2282 130.114 70.8722 129.163 70.8722 128.034C70.8722 127.095 71.1184 126.269 71.6108 125.557C72.1032 124.845 72.7813 124.288 73.6449 123.886C74.5085 123.485 75.4972 123.284 76.6108 123.284C78.0881 123.284 79.2926 123.633 80.2244 124.33C81.1563 125.027 81.8305 126.019 82.2472 127.307ZM91.875 141.375C90.8674 141.375 89.9432 141.174 89.1023 140.773C88.2689 140.371 87.5985 139.784 87.0909 139.011C86.5909 138.239 86.3409 137.299 86.3409 136.193C86.3409 135.466 86.4697 134.826 86.7273 134.273C86.9848 133.72 87.3826 133.242 87.9205 132.841C88.4583 132.439 89.1477 132.11 89.9886 131.852C90.8295 131.587 91.8333 131.383 93 131.239C93.8864 131.133 94.678 131.03 95.375 130.932C96.072 130.826 96.6174 130.663 97.0114 130.443C97.4129 130.223 97.6136 129.89 97.6136 129.443V128.716C97.6136 127.443 97.2121 126.432 96.4091 125.682C95.6061 124.932 94.5 124.557 93.0909 124.557C91.8409 124.557 90.7879 124.833 89.9318 125.386C89.0833 125.932 88.4886 126.636 88.1477 127.5L86.8409 127.011C87.1742 126.178 87.6553 125.485 88.2841 124.932C88.9205 124.379 89.6477 123.966 90.4659 123.693C91.2917 123.42 92.1553 123.284 93.0568 123.284C93.8371 123.284 94.5795 123.394 95.2841 123.614C95.9962 123.833 96.6288 124.167 97.1818 124.614C97.7424 125.061 98.1856 125.633 98.5114 126.33C98.8371 127.019 99 127.845 99 128.807V141H97.6136V137.852H97.5114C97.2083 138.504 96.7917 139.098 96.2614 139.636C95.7386 140.167 95.1061 140.591 94.3636 140.909C93.6288 141.22 92.7992 141.375 91.875 141.375ZM92.0114 140.091C93.1023 140.091 94.0682 139.826 94.9091 139.295C95.7576 138.758 96.4205 138.023 96.8977 137.091C97.375 136.159 97.6136 135.102 97.6136 133.92V131.352C97.4394 131.504 97.1856 131.64 96.8523 131.761C96.5265 131.875 96.1553 131.977 95.7386 132.068C95.3295 132.152 94.8977 132.227 94.4432 132.295C93.9962 132.356 93.5606 132.413 93.1364 132.466C91.8636 132.617 90.8258 132.852 90.0227 133.17C89.2273 133.481 88.6439 133.89 88.2727 134.398C87.9091 134.905 87.7273 135.519 87.7273 136.239C87.7273 137.428 88.1364 138.367 88.9545 139.057C89.7727 139.746 90.7917 140.091 92.0114 140.091ZM105.301 147.545C104.953 147.545 104.608 147.508 104.267 147.432C103.926 147.356 103.619 147.258 103.347 147.136L103.756 145.92C104.468 146.193 105.112 146.292 105.687 146.216C106.271 146.14 106.786 145.875 107.233 145.42C107.68 144.966 108.059 144.299 108.369 143.42L109.165 141.239L102.767 123.545H104.256L109.801 139.216H109.915L115.46 123.545H116.949L109.585 143.966C109.305 144.754 108.953 145.413 108.528 145.943C108.104 146.473 107.619 146.871 107.074 147.136C106.536 147.409 105.945 147.545 105.301 147.545ZM132.372 127.307L131.088 127.648C130.884 127.011 130.592 126.462 130.213 126C129.834 125.538 129.357 125.182 128.781 124.932C128.213 124.674 127.531 124.545 126.736 124.545C125.455 124.545 124.406 124.864 123.588 125.5C122.777 126.136 122.372 126.966 122.372 127.989C122.372 128.822 122.649 129.511 123.202 130.057C123.755 130.595 124.599 131.004 125.736 131.284L128.418 131.955C129.796 132.295 130.834 132.848 131.531 133.614C132.228 134.371 132.577 135.314 132.577 136.443C132.577 137.405 132.315 138.258 131.793 139C131.27 139.742 130.546 140.322 129.622 140.739C128.705 141.155 127.637 141.364 126.418 141.364C124.789 141.364 123.452 140.985 122.406 140.227C121.361 139.462 120.69 138.367 120.395 136.943L121.724 136.602C121.974 137.739 122.493 138.606 123.281 139.205C124.077 139.795 125.118 140.091 126.406 140.091C127.83 140.091 128.978 139.754 129.849 139.08C130.728 138.405 131.168 137.542 131.168 136.489C131.168 135.686 130.91 135.008 130.395 134.455C129.88 133.902 129.099 133.496 128.054 133.239L125.27 132.557C123.846 132.208 122.777 131.652 122.065 130.886C121.353 130.114 120.997 129.163 120.997 128.034C120.997 127.095 121.243 126.269 121.736 125.557C122.228 124.845 122.906 124.288 123.77 123.886C124.634 123.485 125.622 123.284 126.736 123.284C128.213 123.284 129.418 123.633 130.349 124.33C131.281 125.027 131.955 126.019 132.372 127.307ZM152.67 147.909C151.587 147.909 150.614 147.765 149.75 147.477C148.886 147.197 148.152 146.795 147.545 146.273C146.947 145.75 146.489 145.129 146.17 144.409L147.33 143.727C147.587 144.288 147.955 144.788 148.432 145.227C148.909 145.667 149.5 146.011 150.205 146.261C150.917 146.511 151.739 146.636 152.67 146.636C154.352 146.636 155.682 146.201 156.659 145.33C157.644 144.466 158.136 143.14 158.136 141.352V137.011H158C157.735 137.769 157.341 138.443 156.818 139.034C156.303 139.617 155.67 140.076 154.92 140.409C154.17 140.742 153.318 140.909 152.364 140.909C150.985 140.909 149.773 140.553 148.727 139.841C147.682 139.129 146.867 138.129 146.284 136.841C145.701 135.545 145.409 134.023 145.409 132.273C145.409 130.523 145.693 128.973 146.261 127.625C146.837 126.269 147.648 125.208 148.693 124.443C149.739 123.67 150.966 123.284 152.375 123.284C153.383 123.284 154.254 123.477 154.989 123.864C155.731 124.242 156.352 124.746 156.852 125.375C157.352 126.004 157.739 126.693 158.011 127.443H158.17V123.545H159.511V141.409C159.511 142.864 159.223 144.072 158.648 145.034C158.08 145.996 157.28 146.716 156.25 147.193C155.227 147.67 154.034 147.909 152.67 147.909ZM152.489 139.625C153.655 139.625 154.659 139.33 155.5 138.739C156.348 138.14 157 137.292 157.455 136.193C157.917 135.087 158.148 133.777 158.148 132.261C158.148 130.792 157.924 129.477 157.477 128.318C157.03 127.159 156.383 126.246 155.534 125.58C154.686 124.913 153.67 124.58 152.489 124.58C151.284 124.58 150.258 124.92 149.409 125.602C148.561 126.277 147.909 127.193 147.455 128.352C147.008 129.511 146.784 130.814 146.784 132.261C146.784 133.716 147.011 134.996 147.466 136.102C147.92 137.201 148.572 138.064 149.42 138.693C150.269 139.314 151.292 139.625 152.489 139.625ZM165.344 141V123.545H166.696V126.273H166.821C167.2 125.379 167.84 124.663 168.741 124.125C169.643 123.58 170.67 123.307 171.821 123.307C171.942 123.307 172.063 123.307 172.185 123.307C172.306 123.307 172.42 123.311 172.526 123.318V124.716C172.435 124.708 172.325 124.697 172.196 124.682C172.075 124.659 171.923 124.648 171.741 124.648C170.772 124.648 169.908 124.856 169.151 125.273C168.401 125.689 167.81 126.265 167.378 127C166.946 127.727 166.73 128.561 166.73 129.5V141H165.344ZM183.091 141.318C181.682 141.318 180.413 141.038 179.284 140.477C178.155 139.909 177.261 139.144 176.602 138.182C175.951 137.22 175.629 136.14 175.636 134.943C175.629 133.996 175.83 133.106 176.239 132.273C176.655 131.439 177.223 130.731 177.943 130.148C178.663 129.557 179.485 129.163 180.409 128.966V128.864C179.235 128.492 178.277 127.807 177.534 126.807C176.799 125.807 176.432 124.674 176.432 123.409C176.432 122.28 176.723 121.265 177.307 120.364C177.898 119.455 178.697 118.735 179.705 118.205C180.712 117.674 181.841 117.409 183.091 117.409C184.318 117.409 185.436 117.674 186.443 118.205C187.451 118.727 188.25 119.443 188.841 120.352C189.439 121.254 189.739 122.273 189.739 123.409C189.739 124.667 189.371 125.799 188.636 126.807C187.909 127.807 186.955 128.492 185.773 128.864V128.966C186.689 129.155 187.504 129.545 188.216 130.136C188.936 130.72 189.5 131.432 189.909 132.273C190.326 133.106 190.538 133.996 190.545 134.943C190.538 136.14 190.205 137.22 189.545 138.182C188.894 139.144 188.004 139.909 186.875 140.477C185.754 141.038 184.492 141.318 183.091 141.318ZM183.091 140C184.25 140 185.284 139.773 186.193 139.318C187.102 138.864 187.818 138.25 188.341 137.477C188.864 136.697 189.129 135.826 189.136 134.864C189.129 133.886 188.856 133 188.318 132.205C187.788 131.409 187.068 130.777 186.159 130.307C185.25 129.837 184.227 129.602 183.091 129.602C181.947 129.602 180.917 129.837 180 130.307C179.091 130.777 178.367 131.409 177.83 132.205C177.299 133 177.038 133.886 177.045 134.864C177.038 135.826 177.295 136.697 177.818 137.477C178.348 138.25 179.068 138.864 179.977 139.318C180.894 139.773 181.932 140 183.091 140ZM183.091 128.375C184.068 128.375 184.951 128.155 185.739 127.716C186.534 127.277 187.167 126.686 187.636 125.943C188.106 125.201 188.341 124.375 188.341 123.466C188.341 122.557 188.106 121.746 187.636 121.034C187.174 120.314 186.545 119.75 185.75 119.341C184.962 118.924 184.076 118.716 183.091 118.716C182.098 118.716 181.205 118.924 180.409 119.341C179.614 119.75 178.985 120.314 178.523 121.034C178.061 121.746 177.83 122.557 177.83 123.466C177.83 124.375 178.061 125.201 178.523 125.943C178.992 126.686 179.625 127.277 180.42 127.716C181.216 128.155 182.106 128.375 183.091 128.375ZM195.983 141.148C195.642 141.148 195.35 141.03 195.108 140.795C194.873 140.553 194.756 140.261 194.756 139.92C194.756 139.587 194.873 139.299 195.108 139.057C195.35 138.814 195.642 138.693 195.983 138.693C196.316 138.693 196.604 138.814 196.847 139.057C197.089 139.299 197.21 139.587 197.21 139.92C197.21 140.148 197.153 140.356 197.04 140.545C196.934 140.727 196.786 140.875 196.597 140.989C196.415 141.095 196.21 141.148 195.983 141.148ZM218.974 141H212.52V117.727H219.474C221.656 117.727 223.524 118.189 225.077 119.114C226.63 120.038 227.819 121.364 228.645 123.091C229.478 124.811 229.891 126.875 229.884 129.284C229.876 131.746 229.444 133.852 228.588 135.602C227.732 137.345 226.493 138.682 224.872 139.614C223.251 140.538 221.285 141 218.974 141ZM213.94 139.682H218.918C220.993 139.682 222.743 139.269 224.168 138.443C225.592 137.61 226.668 136.417 227.395 134.864C228.13 133.311 228.493 131.451 228.486 129.284C228.486 127.148 228.134 125.318 227.429 123.795C226.724 122.265 225.698 121.091 224.349 120.273C223.009 119.455 221.365 119.045 219.418 119.045H213.94V139.682ZM243.938 141V123.545H245.29V126.273H245.415C245.794 125.379 246.434 124.663 247.335 124.125C248.237 123.58 249.263 123.307 250.415 123.307C250.536 123.307 250.657 123.307 250.778 123.307C250.9 123.307 251.013 123.311 251.119 123.318V124.716C251.028 124.708 250.919 124.697 250.79 124.682C250.669 124.659 250.517 124.648 250.335 124.648C249.366 124.648 248.502 124.856 247.744 125.273C246.994 125.689 246.403 126.265 245.972 127C245.54 127.727 245.324 128.561 245.324 129.5V141H243.938ZM265.935 127.307L264.651 127.648C264.446 127.011 264.154 126.462 263.776 126C263.397 125.538 262.92 125.182 262.344 124.932C261.776 124.674 261.094 124.545 260.298 124.545C259.018 124.545 257.969 124.864 257.151 125.5C256.34 126.136 255.935 126.966 255.935 127.989C255.935 128.822 256.211 129.511 256.764 130.057C257.317 130.595 258.162 131.004 259.298 131.284L261.98 131.955C263.359 132.295 264.397 132.848 265.094 133.614C265.791 134.371 266.139 135.314 266.139 136.443C266.139 137.405 265.878 138.258 265.355 139C264.832 139.742 264.109 140.322 263.185 140.739C262.268 141.155 261.2 141.364 259.98 141.364C258.351 141.364 257.014 140.985 255.969 140.227C254.923 139.462 254.253 138.367 253.957 136.943L255.287 136.602C255.537 137.739 256.056 138.606 256.844 139.205C257.639 139.795 258.681 140.091 259.969 140.091C261.393 140.091 262.541 139.754 263.412 139.08C264.291 138.405 264.73 137.542 264.73 136.489C264.73 135.686 264.473 135.008 263.957 134.455C263.442 133.902 262.662 133.496 261.616 133.239L258.832 132.557C257.408 132.208 256.34 131.652 255.628 130.886C254.916 130.114 254.56 129.163 254.56 128.034C254.56 127.095 254.806 126.269 255.298 125.557C255.791 124.845 256.469 124.288 257.332 123.886C258.196 123.485 259.185 123.284 260.298 123.284C261.776 123.284 262.98 123.633 263.912 124.33C264.844 125.027 265.518 126.019 265.935 127.307ZM272.324 117.727V141H270.938V117.727H272.324ZM290.824 123.545L284.517 141H282.949L276.642 123.545H278.131L283.676 139.216H283.79L289.335 123.545H290.824ZM295.156 141V123.545H296.509V126.273H296.634C297.012 125.379 297.652 124.663 298.554 124.125C299.455 123.58 300.482 123.307 301.634 123.307C301.755 123.307 301.876 123.307 301.997 123.307C302.118 123.307 302.232 123.311 302.338 123.318V124.716C302.247 124.708 302.137 124.697 302.009 124.682C301.887 124.659 301.736 124.648 301.554 124.648C300.584 124.648 299.721 124.856 298.963 125.273C298.213 125.689 297.622 126.265 297.19 127C296.759 127.727 296.543 128.561 296.543 129.5V141H295.156ZM305.358 141.148C305.017 141.148 304.725 141.03 304.483 140.795C304.248 140.553 304.131 140.261 304.131 139.92C304.131 139.587 304.248 139.299 304.483 139.057C304.725 138.814 305.017 138.693 305.358 138.693C305.691 138.693 305.979 138.814 306.222 139.057C306.464 139.299 306.585 139.587 306.585 139.92C306.585 140.148 306.528 140.356 306.415 140.545C306.309 140.727 306.161 140.875 305.972 140.989C305.79 141.095 305.585 141.148 305.358 141.148ZM339.679 117.727V141H338.293L323.452 120.307H323.315V141H321.895V117.727H323.293L338.134 138.443H338.27V117.727H339.679ZM361.077 123.545V124.784H353.452V123.545H361.077ZM356.031 119.364H357.406V136.875C357.406 137.587 357.543 138.17 357.815 138.625C358.096 139.072 358.459 139.405 358.906 139.625C359.361 139.837 359.846 139.943 360.361 139.943C360.611 139.943 360.827 139.924 361.009 139.886C361.198 139.848 361.376 139.799 361.543 139.739L361.884 141C361.671 141.076 361.437 141.14 361.179 141.193C360.921 141.254 360.618 141.284 360.27 141.284C359.543 141.284 358.853 141.121 358.202 140.795C357.558 140.47 357.035 139.996 356.634 139.375C356.232 138.754 356.031 138.004 356.031 137.125V119.364ZM366.741 123.545L371.56 131.307L376.378 123.545H377.98L372.389 132.273L377.98 141H376.378L371.56 133.364L366.741 141H365.128L370.696 132.273L365.128 123.545H366.741ZM388.795 123.545V124.784H381.17V123.545H388.795ZM383.75 119.364H385.125V136.875C385.125 137.587 385.261 138.17 385.534 138.625C385.814 139.072 386.178 139.405 386.625 139.625C387.08 139.837 387.564 139.943 388.08 139.943C388.33 139.943 388.545 139.924 388.727 139.886C388.917 139.848 389.095 139.799 389.261 139.739L389.602 141C389.39 141.076 389.155 141.14 388.898 141.193C388.64 141.254 388.337 141.284 387.989 141.284C387.261 141.284 386.572 141.121 385.92 140.795C385.277 140.47 384.754 139.996 384.352 139.375C383.951 138.754 383.75 138.004 383.75 137.125V119.364ZM395.426 129.409V128.102H407.301V129.409H395.426ZM395.426 135.716V134.409H407.301V135.716H395.426ZM419.156 141.375C418.149 141.375 417.224 141.174 416.384 140.773C415.55 140.371 414.88 139.784 414.372 139.011C413.872 138.239 413.622 137.299 413.622 136.193C413.622 135.466 413.751 134.826 414.009 134.273C414.266 133.72 414.664 133.242 415.202 132.841C415.74 132.439 416.429 132.11 417.27 131.852C418.111 131.587 419.115 131.383 420.281 131.239C421.168 131.133 421.959 131.03 422.656 130.932C423.353 130.826 423.899 130.663 424.293 130.443C424.694 130.223 424.895 129.89 424.895 129.443V128.716C424.895 127.443 424.493 126.432 423.69 125.682C422.887 124.932 421.781 124.557 420.372 124.557C419.122 124.557 418.069 124.833 417.213 125.386C416.365 125.932 415.77 126.636 415.429 127.5L414.122 127.011C414.455 126.178 414.937 125.485 415.565 124.932C416.202 124.379 416.929 123.966 417.747 123.693C418.573 123.42 419.437 123.284 420.338 123.284C421.118 123.284 421.861 123.394 422.565 123.614C423.277 123.833 423.91 124.167 424.463 124.614C425.024 125.061 425.467 125.633 425.793 126.33C426.118 127.019 426.281 127.845 426.281 128.807V141H424.895V137.852H424.793C424.49 138.504 424.073 139.098 423.543 139.636C423.02 140.167 422.387 140.591 421.645 140.909C420.91 141.22 420.08 141.375 419.156 141.375ZM419.293 140.091C420.384 140.091 421.349 139.826 422.19 139.295C423.039 138.758 423.702 138.023 424.179 137.091C424.656 136.159 424.895 135.102 424.895 133.92V131.352C424.721 131.504 424.467 131.64 424.134 131.761C423.808 131.875 423.437 131.977 423.02 132.068C422.611 132.152 422.179 132.227 421.724 132.295C421.277 132.356 420.842 132.413 420.418 132.466C419.145 132.617 418.107 132.852 417.304 133.17C416.509 133.481 415.925 133.89 415.554 134.398C415.19 134.905 415.009 135.519 415.009 136.239C415.009 137.428 415.418 138.367 416.236 139.057C417.054 139.746 418.073 140.091 419.293 140.091ZM433.48 117.727V141H432.094V117.727H433.48ZM440.605 117.727V141H439.219V117.727H440.605ZM447.639 141.148C447.298 141.148 447.007 141.03 446.764 140.795C446.529 140.553 446.412 140.261 446.412 139.92C446.412 139.587 446.529 139.299 446.764 139.057C447.007 138.814 447.298 138.693 447.639 138.693C447.973 138.693 448.26 138.814 448.503 139.057C448.745 139.299 448.866 139.587 448.866 139.92C448.866 140.148 448.81 140.356 448.696 140.545C448.59 140.727 448.442 140.875 448.253 140.989C448.071 141.095 447.866 141.148 447.639 141.148ZM3.36364 180L3.36364 156.727H10.9205C12.3295 156.727 13.5189 156.977 14.4886 157.477C15.4583 157.977 16.1932 158.678 16.6932 159.58C17.2008 160.481 17.4545 161.53 17.4545 162.727C17.4545 163.667 17.303 164.5 17 165.227C16.697 165.955 16.2727 166.557 15.7273 167.034C15.1894 167.504 14.5568 167.83 13.8295 168.011V168.148C14.6326 168.208 15.3788 168.489 16.0682 168.989C16.7576 169.481 17.3106 170.152 17.7273 171C18.1515 171.848 18.3636 172.837 18.3636 173.966C18.3636 175.155 18.1061 176.205 17.5909 177.114C17.0833 178.015 16.322 178.723 15.3068 179.239C14.2917 179.746 13.0341 180 11.5341 180H3.36364ZM4.78409 178.682H11.5341C13.2841 178.682 14.6288 178.242 15.5682 177.364C16.5152 176.485 16.9886 175.352 16.9886 173.966C16.9886 172.989 16.7576 172.114 16.2955 171.341C15.8409 170.568 15.2083 169.958 14.3977 169.511C13.5871 169.057 12.6477 168.83 11.5795 168.83H4.78409L4.78409 178.682ZM4.78409 167.534H11.4091C12.4015 167.534 13.2424 167.318 13.9318 166.886C14.6288 166.455 15.1591 165.875 15.5227 165.148C15.8939 164.42 16.0795 163.614 16.0795 162.727C16.0795 161.288 15.6326 160.148 14.7386 159.307C13.8447 158.466 12.572 158.045 10.9205 158.045H4.78409L4.78409 167.534ZM24.7642 175.989C24.4233 175.989 24.1316 175.871 23.8892 175.636C23.6544 175.394 23.5369 175.102 23.5369 174.761C23.5369 174.428 23.6544 174.14 23.8892 173.898C24.1316 173.655 24.4233 173.534 24.7642 173.534C25.0975 173.534 25.3854 173.655 25.6278 173.898C25.8703 174.14 25.9915 174.428 25.9915 174.761C25.9915 174.989 25.9347 175.197 25.821 175.386C25.715 175.568 25.5672 175.716 25.3778 175.83C25.196 175.936 24.9915 175.989 24.7642 175.989ZM24.7642 164.159C24.4233 164.159 24.1316 164.038 23.8892 163.795C23.6544 163.553 23.5369 163.265 23.5369 162.932C23.5369 162.598 23.6544 162.311 23.8892 162.068C24.1316 161.826 24.4233 161.705 24.7642 161.705C25.0975 161.705 25.3854 161.826 25.6278 162.068C25.8703 162.311 25.9915 162.598 25.9915 162.932C25.9915 163.159 25.9347 163.367 25.821 163.557C25.715 163.739 25.5672 163.886 25.3778 164C25.196 164.106 24.9915 164.159 24.7642 164.159ZM53.8466 162.545C53.7254 161.098 53.1345 159.928 52.0739 159.034C51.0208 158.14 49.6572 157.693 47.983 157.693C46.8542 157.693 45.8504 157.902 44.9716 158.318C44.0928 158.735 43.4034 159.303 42.9034 160.023C42.4034 160.742 42.1534 161.568 42.1534 162.5C42.1534 163.098 42.267 163.64 42.4943 164.125C42.7292 164.602 43.0587 165.03 43.483 165.409C43.9072 165.78 44.411 166.106 44.9943 166.386C45.5777 166.667 46.2216 166.913 46.9261 167.125L49.4716 167.875C50.3428 168.14 51.1458 168.447 51.8807 168.795C52.6231 169.144 53.267 169.561 53.8125 170.045C54.3655 170.523 54.7936 171.083 55.0966 171.727C55.4072 172.371 55.5625 173.114 55.5625 173.955C55.5625 175.182 55.2443 176.28 54.608 177.25C53.9792 178.22 53.0814 178.985 51.9148 179.545C50.7557 180.098 49.3883 180.375 47.8125 180.375C46.3125 180.375 45.0057 180.121 43.892 179.614C42.786 179.106 41.911 178.402 41.267 177.5C40.6231 176.591 40.2595 175.545 40.1761 174.364H41.6307C41.7064 175.326 42.0133 176.159 42.5511 176.864C43.0966 177.561 43.8201 178.098 44.7216 178.477C45.6231 178.856 46.6534 179.045 47.8125 179.045C49.0625 179.045 50.1648 178.833 51.1193 178.409C52.0739 177.977 52.8201 177.379 53.358 176.614C53.8958 175.848 54.1648 174.958 54.1648 173.943C54.1648 173.125 53.9716 172.424 53.5852 171.841C53.1989 171.258 52.6269 170.754 51.8693 170.33C51.1193 169.905 50.1875 169.527 49.0739 169.193L46.358 168.375C44.5398 167.822 43.1496 167.068 42.1875 166.114C41.233 165.159 40.7557 163.97 40.7557 162.545C40.7557 161.348 41.0739 160.288 41.7102 159.364C42.3466 158.432 43.2102 157.701 44.3011 157.17C45.3996 156.64 46.6383 156.375 48.017 156.375C49.4034 156.375 50.6269 156.644 51.6875 157.182C52.7481 157.712 53.589 158.443 54.2102 159.375C54.8314 160.299 55.1761 161.356 55.2443 162.545H53.8466ZM60.7557 180V162.545H62.1307V180H60.7557ZM61.4489 159.455C61.1458 159.455 60.8807 159.348 60.6534 159.136C60.4337 158.924 60.3239 158.667 60.3239 158.364C60.3239 158.061 60.4337 157.803 60.6534 157.591C60.8731 157.379 61.1383 157.273 61.4489 157.273C61.7519 157.273 62.0133 157.379 62.233 157.591C62.4602 157.803 62.5739 158.061 62.5739 158.364C62.5739 158.667 62.464 158.924 62.2443 159.136C62.0246 159.348 61.7595 159.455 61.4489 159.455ZM67.9375 180V162.545H69.2898V165.182H69.4261C69.7595 164.303 70.3352 163.606 71.1534 163.091C71.9716 162.576 72.9564 162.318 74.108 162.318C75.3731 162.318 76.392 162.621 77.1648 163.227C77.9451 163.833 78.5057 164.655 78.8466 165.693H78.9716C79.3125 164.67 79.9223 163.852 80.8011 163.239C81.6875 162.625 82.7784 162.318 84.0739 162.318C85.7633 162.318 87.0511 162.852 87.9375 163.92C88.8314 164.981 89.2784 166.436 89.2784 168.284V180H87.892V168.284C87.892 166.83 87.5436 165.686 86.8466 164.852C86.1496 164.019 85.1269 163.602 83.7784 163.602C82.339 163.602 81.233 164.053 80.4602 164.955C79.6875 165.856 79.3011 167.004 79.3011 168.398V180H77.9148V168.193C77.9148 166.837 77.5739 165.735 76.892 164.886C76.2102 164.03 75.1875 163.602 73.8239 163.602C72.8996 163.602 72.1004 163.814 71.4261 164.239C70.7595 164.663 70.2405 165.246 69.8693 165.989C69.5057 166.731 69.3239 167.583 69.3239 168.545V180H67.9375ZM96.4176 156.727V180H95.0312V156.727H96.4176ZM102.156 180V162.545H103.509V165.273H103.634C104.012 164.379 104.652 163.663 105.554 163.125C106.455 162.58 107.482 162.307 108.634 162.307C108.755 162.307 108.876 162.307 108.997 162.307C109.118 162.307 109.232 162.311 109.338 162.318V163.716C109.247 163.708 109.137 163.697 109.009 163.682C108.887 163.659 108.736 163.648 108.554 163.648C107.584 163.648 106.721 163.856 105.963 164.273C105.213 164.689 104.622 165.265 104.19 166C103.759 166.727 103.543 167.561 103.543 168.5V180H102.156ZM142.187 169.364V170.682H110.187V169.364H142.187ZM143.767 164V161.955C143.767 161.333 143.877 160.674 144.097 159.977C144.324 159.273 144.65 158.595 145.074 157.943C145.506 157.284 146.025 156.712 146.631 156.227L147.381 156.989C146.722 157.625 146.176 158.39 145.744 159.284C145.313 160.17 145.097 161.057 145.097 161.943V164H143.767ZM148.619 164V161.955C148.619 161.333 148.729 160.674 148.949 159.977C149.176 159.273 149.502 158.595 149.926 157.943C150.358 157.284 150.877 156.712 151.483 156.227L152.233 156.989C151.574 157.625 151.028 158.39 150.597 159.284C150.165 160.17 149.949 161.057 149.949 161.943V164H148.619ZM152.185 180H150.685L159.082 156.727H160.719L169.116 180H167.616L159.957 158.557H159.844L152.185 180ZM154.31 171.239H165.491V172.557H154.31V171.239ZM193.73 186.545V176.193H193.594C193.329 176.951 192.942 177.648 192.435 178.284C191.927 178.913 191.302 179.417 190.56 179.795C189.817 180.174 188.95 180.364 187.957 180.364C186.563 180.364 185.344 179.977 184.298 179.205C183.26 178.424 182.45 177.356 181.866 176C181.291 174.636 181.003 173.076 181.003 171.318C181.003 169.561 181.291 168.004 181.866 166.648C182.442 165.284 183.253 164.216 184.298 163.443C185.344 162.67 186.567 162.284 187.969 162.284C188.976 162.284 189.848 162.477 190.582 162.864C191.317 163.242 191.935 163.746 192.435 164.375C192.935 165.004 193.321 165.693 193.594 166.443H193.764V162.545H195.105V186.545H193.73ZM188.082 179.08C189.257 179.08 190.264 178.742 191.105 178.068C191.954 177.386 192.605 176.462 193.06 175.295C193.514 174.121 193.741 172.792 193.741 171.307C193.741 169.822 193.518 168.5 193.071 167.341C192.624 166.174 191.976 165.258 191.128 164.591C190.279 163.917 189.264 163.58 188.082 163.58C186.878 163.58 185.851 163.92 185.003 164.602C184.154 165.277 183.503 166.197 183.048 167.364C182.601 168.53 182.378 169.845 182.378 171.307C182.378 172.769 182.605 174.087 183.06 175.261C183.514 176.436 184.166 177.367 185.014 178.057C185.863 178.739 186.885 179.08 188.082 179.08ZM203.602 176.818L203.398 178.011C203.261 178.792 203.087 179.67 202.875 180.648C202.67 181.633 202.458 182.58 202.239 183.489C202.019 184.398 201.818 185.129 201.636 185.682H200.557C200.663 185.136 200.792 184.466 200.943 183.67C201.102 182.883 201.265 182.011 201.432 181.057C201.606 180.102 201.769 179.114 201.92 178.091L202.125 176.818H203.602ZM218.344 180V162.545H219.696V165.273H219.821C220.2 164.379 220.84 163.663 221.741 163.125C222.643 162.58 223.67 162.307 224.821 162.307C224.942 162.307 225.063 162.307 225.185 162.307C225.306 162.307 225.42 162.311 225.526 162.318V163.716C225.435 163.708 225.325 163.697 225.196 163.682C225.075 163.659 224.923 163.648 224.741 163.648C223.772 163.648 222.908 163.856 222.151 164.273C221.401 164.689 220.81 165.265 220.378 166C219.946 166.727 219.73 167.561 219.73 168.5V180H218.344ZM244.42 162.545V163.784H236.795V162.545H244.42ZM239.375 158.364H240.75V175.875C240.75 176.587 240.886 177.17 241.159 177.625C241.439 178.072 241.803 178.405 242.25 178.625C242.705 178.837 243.189 178.943 243.705 178.943C243.955 178.943 244.17 178.924 244.352 178.886C244.542 178.848 244.72 178.799 244.886 178.739L245.227 180C245.015 180.076 244.78 180.14 244.523 180.193C244.265 180.254 243.962 180.284 243.614 180.284C242.886 180.284 242.197 180.121 241.545 179.795C240.902 179.47 240.379 178.996 239.977 178.375C239.576 177.754 239.375 177.004 239.375 176.125V158.364ZM251.497 156.727V158.773C251.497 159.394 251.384 160.057 251.156 160.761C250.937 161.458 250.611 162.136 250.179 162.795C249.755 163.447 249.24 164.015 248.634 164.5L247.872 163.739C248.539 163.102 249.084 162.341 249.509 161.455C249.94 160.561 250.156 159.67 250.156 158.784V156.727H251.497ZM256.338 156.727V158.773C256.338 159.394 256.224 160.057 255.997 160.761C255.777 161.458 255.452 162.136 255.02 162.795C254.596 163.447 254.08 164.015 253.474 164.5L252.724 163.739C253.384 163.102 253.929 162.341 254.361 161.455C254.793 160.561 255.009 159.67 255.009 158.784V156.727H256.338ZM271.27 168.409V167.102H283.145V168.409H271.27ZM271.27 174.716V173.409H283.145V174.716H271.27ZM298.08 164V161.955C298.08 161.333 298.189 160.674 298.409 159.977C298.636 159.273 298.962 158.595 299.386 157.943C299.818 157.284 300.337 156.712 300.943 156.227L301.693 156.989C301.034 157.625 300.489 158.39 300.057 159.284C299.625 160.17 299.409 161.057 299.409 161.943V164H298.08ZM302.932 164V161.955C302.932 161.333 303.042 160.674 303.261 159.977C303.489 159.273 303.814 158.595 304.239 157.943C304.67 157.284 305.189 156.712 305.795 156.227L306.545 156.989C305.886 157.625 305.341 158.39 304.909 159.284C304.477 160.17 304.261 161.057 304.261 161.943V164H302.932ZM319.455 172.727H321.091L324.477 177.193L324.795 177.625L328.227 182.182H326.591L323.773 178.443L323.477 178.034L319.455 172.727ZM329 168.364C329 170.765 328.583 172.864 327.75 174.659C326.917 176.447 325.758 177.837 324.273 178.83C322.795 179.822 321.091 180.318 319.159 180.318C317.22 180.318 315.508 179.822 314.023 178.83C312.545 177.83 311.39 176.436 310.557 174.648C309.723 172.852 309.307 170.758 309.307 168.364C309.307 165.962 309.723 163.867 310.557 162.08C311.398 160.292 312.557 158.902 314.034 157.909C315.511 156.909 317.22 156.409 319.159 156.409C321.091 156.409 322.795 156.905 324.273 157.898C325.758 158.89 326.917 160.284 327.75 162.08C328.583 163.867 329 165.962 329 168.364ZM327.614 168.364C327.614 166.205 327.25 164.333 326.523 162.75C325.803 161.167 324.807 159.943 323.534 159.08C322.261 158.208 320.803 157.773 319.159 157.773C317.515 157.773 316.057 158.205 314.784 159.068C313.511 159.924 312.511 161.148 311.784 162.739C311.064 164.322 310.705 166.197 310.705 168.364C310.705 170.508 311.061 172.375 311.773 173.966C312.492 175.549 313.489 176.777 314.761 177.648C316.034 178.519 317.5 178.955 319.159 178.955C320.803 178.955 322.261 178.523 323.534 177.659C324.807 176.788 325.803 175.561 326.523 173.977C327.25 172.394 327.614 170.523 327.614 168.364ZM343.131 180V162.545H344.506V180H343.131ZM343.824 159.455C343.521 159.455 343.256 159.348 343.028 159.136C342.809 158.924 342.699 158.667 342.699 158.364C342.699 158.061 342.809 157.803 343.028 157.591C343.248 157.379 343.513 157.273 343.824 157.273C344.127 157.273 344.388 157.379 344.608 157.591C344.835 157.803 344.949 158.061 344.949 158.364C344.949 158.667 344.839 158.924 344.619 159.136C344.4 159.348 344.134 159.455 343.824 159.455ZM351.699 168.682V180H350.312V162.545H351.665V165.307H351.801C352.21 164.405 352.866 163.682 353.767 163.136C354.669 162.591 355.741 162.318 356.983 162.318C358.157 162.318 359.188 162.568 360.074 163.068C360.968 163.568 361.665 164.28 362.165 165.205C362.672 166.121 362.926 167.216 362.926 168.489V180H361.54V168.545C361.54 167.061 361.097 165.867 360.21 164.966C359.331 164.057 358.169 163.602 356.722 163.602C355.752 163.602 354.888 163.814 354.131 164.239C353.373 164.663 352.778 165.258 352.347 166.023C351.915 166.78 351.699 167.667 351.699 168.682ZM379.074 156.727V180H377.688V156.727H379.074ZM384.881 180V162.545H386.256V180H384.881ZM385.574 159.455C385.271 159.455 385.006 159.348 384.778 159.136C384.559 158.924 384.449 158.667 384.449 158.364C384.449 158.061 384.559 157.803 384.778 157.591C384.998 157.379 385.263 157.273 385.574 157.273C385.877 157.273 386.138 157.379 386.358 157.591C386.585 157.803 386.699 158.061 386.699 158.364C386.699 158.667 386.589 158.924 386.369 159.136C386.15 159.348 385.884 159.455 385.574 159.455ZM392.062 180V162.545H393.415V165.182H393.551C393.884 164.303 394.46 163.606 395.278 163.091C396.097 162.576 397.081 162.318 398.233 162.318C399.498 162.318 400.517 162.621 401.29 163.227C402.07 163.833 402.631 164.655 402.972 165.693H403.097C403.438 164.67 404.047 163.852 404.926 163.239C405.813 162.625 406.903 162.318 408.199 162.318C409.888 162.318 411.176 162.852 412.062 163.92C412.956 164.981 413.403 166.436 413.403 168.284V180H412.017V168.284C412.017 166.83 411.669 165.686 410.972 164.852C410.275 164.019 409.252 163.602 407.903 163.602C406.464 163.602 405.358 164.053 404.585 164.955C403.813 165.856 403.426 167.004 403.426 168.398V180H402.04V168.193C402.04 166.837 401.699 165.735 401.017 164.886C400.335 164.03 399.313 163.602 397.949 163.602C397.025 163.602 396.225 163.814 395.551 164.239C394.884 164.663 394.366 165.246 393.994 165.989C393.631 166.731 393.449 167.583 393.449 168.545V180H392.062ZM420.452 180.148C420.111 180.148 419.819 180.03 419.577 179.795C419.342 179.553 419.224 179.261 419.224 178.92C419.224 178.587 419.342 178.299 419.577 178.057C419.819 177.814 420.111 177.693 420.452 177.693C420.785 177.693 421.073 177.814 421.315 178.057C421.558 178.299 421.679 178.587 421.679 178.92C421.679 179.148 421.622 179.356 421.509 179.545C421.402 179.727 421.255 179.875 421.065 179.989C420.884 180.095 420.679 180.148 420.452 180.148ZM427.028 156.727V158.773C427.028 159.394 426.915 160.057 426.688 160.761C426.468 161.458 426.142 162.136 425.71 162.795C425.286 163.447 424.771 164.015 424.165 164.5L423.403 163.739C424.07 163.102 424.616 162.341 425.04 161.455C425.472 160.561 425.688 159.67 425.688 158.784V156.727H427.028ZM431.869 156.727V158.773C431.869 159.394 431.756 160.057 431.528 160.761C431.309 161.458 430.983 162.136 430.551 162.795C430.127 163.447 429.612 164.015 429.006 164.5L428.256 163.739C428.915 163.102 429.46 162.341 429.892 161.455C430.324 160.561 430.54 159.67 430.54 158.784V156.727H431.869ZM2.46591 219H0.965909L9.36364 195.727H11L19.3977 219H17.8977L10.2386 197.557H10.125L2.46591 219ZM4.59091 210.239H15.7727V211.557H4.59091V210.239ZM24.5455 214.989C24.2045 214.989 23.9129 214.871 23.6705 214.636C23.4356 214.394 23.3182 214.102 23.3182 213.761C23.3182 213.428 23.4356 213.14 23.6705 212.898C23.9129 212.655 24.2045 212.534 24.5455 212.534C24.8788 212.534 25.1667 212.655 25.4091 212.898C25.6515 213.14 25.7727 213.428 25.7727 213.761C25.7727 213.989 25.7159 214.197 25.6023 214.386C25.4962 214.568 25.3485 214.716 25.1591 214.83C24.9773 214.936 24.7727 214.989 24.5455 214.989ZM24.5455 203.159C24.2045 203.159 23.9129 203.038 23.6705 202.795C23.4356 202.553 23.3182 202.265 23.3182 201.932C23.3182 201.598 23.4356 201.311 23.6705 201.068C23.9129 200.826 24.2045 200.705 24.5455 200.705C24.8788 200.705 25.1667 200.826 25.4091 201.068C25.6515 201.311 25.7727 201.598 25.7727 201.932C25.7727 202.159 25.7159 202.367 25.6023 202.557C25.4962 202.739 25.3485 202.886 25.1591 203C24.9773 203.106 24.7727 203.159 24.5455 203.159ZM41.0824 219V195.727H42.5028V217.682H53.8665V219H41.0824ZM63.2187 219.375C62.2112 219.375 61.2869 219.174 60.446 218.773C59.6127 218.371 58.9422 217.784 58.4347 217.011C57.9347 216.239 57.6847 215.299 57.6847 214.193C57.6847 213.466 57.8134 212.826 58.071 212.273C58.3286 211.72 58.7263 211.242 59.2642 210.841C59.8021 210.439 60.4915 210.11 61.3324 209.852C62.1733 209.587 63.1771 209.383 64.3437 209.239C65.2301 209.133 66.0218 209.03 66.7187 208.932C67.4157 208.826 67.9612 208.663 68.3551 208.443C68.7566 208.223 68.9574 207.89 68.9574 207.443V206.716C68.9574 205.443 68.5559 204.432 67.7528 203.682C66.9498 202.932 65.8438 202.557 64.4347 202.557C63.1847 202.557 62.1316 202.833 61.2756 203.386C60.4271 203.932 59.8324 204.636 59.4915 205.5L58.1847 205.011C58.518 204.178 58.9991 203.485 59.6278 202.932C60.2642 202.379 60.9915 201.966 61.8097 201.693C62.6354 201.42 63.4991 201.284 64.4006 201.284C65.1809 201.284 65.9233 201.394 66.6278 201.614C67.34 201.833 67.9725 202.167 68.5256 202.614C69.0862 203.061 69.5294 203.633 69.8551 204.33C70.1809 205.019 70.3437 205.845 70.3437 206.807V219H68.9574V215.852H68.8551C68.5521 216.504 68.1354 217.098 67.6051 217.636C67.0824 218.167 66.4498 218.591 65.7074 218.909C64.9725 219.22 64.143 219.375 63.2187 219.375ZM63.3551 218.091C64.446 218.091 65.4119 217.826 66.2528 217.295C67.1013 216.758 67.7642 216.023 68.2415 215.091C68.7188 214.159 68.9574 213.102 68.9574 211.92V209.352C68.7831 209.504 68.5294 209.64 68.196 209.761C67.8703 209.875 67.4991 209.977 67.0824 210.068C66.6733 210.152 66.2415 210.227 65.7869 210.295C65.34 210.356 64.9044 210.413 64.4801 210.466C63.2074 210.617 62.1695 210.852 61.3665 211.17C60.571 211.481 59.9877 211.89 59.6165 212.398C59.2528 212.905 59.071 213.519 59.071 214.239C59.071 215.428 59.4801 216.367 60.2983 217.057C61.1165 217.746 62.1354 218.091 63.3551 218.091ZM77.5426 207.682V219H76.1562V201.545H77.5085V204.307H77.6449C78.054 203.405 78.7093 202.682 79.6108 202.136C80.5123 201.591 81.5843 201.318 82.8267 201.318C84.0009 201.318 85.0313 201.568 85.9176 202.068C86.8116 202.568 87.5085 203.28 88.0085 204.205C88.5161 205.121 88.7699 206.216 88.7699 207.489V219H87.3835V207.545C87.3835 206.061 86.9403 204.867 86.054 203.966C85.1752 203.057 84.0123 202.602 82.5653 202.602C81.5956 202.602 80.732 202.814 79.9744 203.239C79.2169 203.663 78.6222 204.258 78.1903 205.023C77.7585 205.78 77.5426 206.667 77.5426 207.682ZM100.827 225.909C99.7434 225.909 98.7699 225.765 97.9062 225.477C97.0426 225.197 96.3078 224.795 95.7017 224.273C95.1032 223.75 94.6449 223.129 94.3267 222.409L95.4858 221.727C95.7434 222.288 96.1108 222.788 96.5881 223.227C97.0653 223.667 97.6563 224.011 98.3608 224.261C99.0729 224.511 99.8949 224.636 100.827 224.636C102.509 224.636 103.838 224.201 104.815 223.33C105.8 222.466 106.293 221.14 106.293 219.352V215.011H106.156C105.891 215.769 105.497 216.443 104.974 217.034C104.459 217.617 103.827 218.076 103.077 218.409C102.327 218.742 101.474 218.909 100.52 218.909C99.1411 218.909 97.929 218.553 96.8835 217.841C95.8381 217.129 95.0237 216.129 94.4403 214.841C93.857 213.545 93.5653 212.023 93.5653 210.273C93.5653 208.523 93.8494 206.973 94.4176 205.625C94.9934 204.269 95.804 203.208 96.8494 202.443C97.8949 201.67 99.1222 201.284 100.531 201.284C101.539 201.284 102.41 201.477 103.145 201.864C103.887 202.242 104.509 202.746 105.009 203.375C105.509 204.004 105.895 204.693 106.168 205.443H106.327V201.545H107.668V219.409C107.668 220.864 107.38 222.072 106.804 223.034C106.236 223.996 105.437 224.716 104.406 225.193C103.384 225.67 102.19 225.909 100.827 225.909ZM100.645 217.625C101.812 217.625 102.815 217.33 103.656 216.739C104.505 216.14 105.156 215.292 105.611 214.193C106.073 213.087 106.304 211.777 106.304 210.261C106.304 208.792 106.08 207.477 105.634 206.318C105.187 205.159 104.539 204.246 103.69 203.58C102.842 202.913 101.827 202.58 100.645 202.58C99.4403 202.58 98.4138 202.92 97.5653 203.602C96.7169 204.277 96.0653 205.193 95.6108 206.352C95.1638 207.511 94.9403 208.814 94.9403 210.261C94.9403 211.716 95.1676 212.996 95.6222 214.102C96.0767 215.201 96.7282 216.064 97.5767 216.693C98.4252 217.314 99.4479 217.625 100.645 217.625ZM120.261 216.807V203.011H121.591V216.807H120.261ZM114.034 210.58V209.239H127.818V210.58H114.034ZM140.855 216.807V203.011H142.185V216.807H140.855ZM134.628 210.58V209.239H148.412V210.58H134.628ZM158.222 212.216V211.102C158.229 210.155 158.343 209.36 158.562 208.716C158.782 208.072 159.131 207.5 159.608 207C160.085 206.492 160.71 205.981 161.483 205.466C162.142 205.011 162.68 204.568 163.097 204.136C163.513 203.697 163.816 203.239 164.006 202.761C164.203 202.284 164.301 201.761 164.301 201.193C164.301 200.307 164.089 199.527 163.665 198.852C163.248 198.17 162.68 197.64 161.96 197.261C161.248 196.875 160.445 196.682 159.551 196.682C158.657 196.682 157.847 196.883 157.119 197.284C156.392 197.686 155.809 198.25 155.369 198.977C154.93 199.705 154.699 200.561 154.676 201.545H153.233C153.256 200.341 153.544 199.277 154.097 198.352C154.657 197.428 155.411 196.708 156.358 196.193C157.305 195.67 158.369 195.409 159.551 195.409C160.741 195.409 161.797 195.663 162.722 196.17C163.646 196.67 164.369 197.36 164.892 198.239C165.422 199.117 165.687 200.117 165.687 201.239C165.687 201.943 165.574 202.591 165.347 203.182C165.119 203.765 164.763 204.318 164.278 204.841C163.794 205.364 163.165 205.894 162.392 206.432C161.688 206.917 161.131 207.379 160.722 207.818C160.32 208.258 160.036 208.735 159.869 209.25C159.703 209.765 159.619 210.383 159.619 211.102V212.216H158.222ZM158.949 219.148C158.608 219.148 158.316 219.03 158.074 218.795C157.839 218.553 157.722 218.261 157.722 217.92C157.722 217.587 157.839 217.299 158.074 217.057C158.316 216.814 158.608 216.693 158.949 216.693C159.29 216.693 159.578 216.814 159.812 217.057C160.055 217.299 160.176 217.587 160.176 217.92C160.176 218.148 160.119 218.356 160.006 218.545C159.9 218.727 159.752 218.875 159.562 218.989C159.381 219.095 159.176 219.148 158.949 219.148ZM179.801 219V195.727H186.972C188.441 195.727 189.706 196.015 190.767 196.591C191.828 197.167 192.642 197.966 193.21 198.989C193.778 200.004 194.062 201.186 194.062 202.534C194.062 203.867 193.778 205.042 193.21 206.057C192.642 207.064 191.828 207.852 190.767 208.42C189.714 208.989 188.453 209.273 186.983 209.273H180.562V207.943H186.949C188.146 207.943 189.169 207.72 190.017 207.273C190.866 206.826 191.517 206.201 191.972 205.398C192.426 204.587 192.653 203.633 192.653 202.534C192.653 201.428 192.426 200.466 191.972 199.648C191.517 198.822 190.862 198.182 190.006 197.727C189.157 197.273 188.134 197.045 186.937 197.045H181.222V219H179.801ZM189.358 208.455L195.085 219H193.449L187.756 208.455H189.358ZM202.784 212.216V211.102C202.792 210.155 202.905 209.36 203.125 208.716C203.345 208.072 203.693 207.5 204.17 207C204.648 206.492 205.273 205.981 206.045 205.466C206.705 205.011 207.242 204.568 207.659 204.136C208.076 203.697 208.379 203.239 208.568 202.761C208.765 202.284 208.864 201.761 208.864 201.193C208.864 200.307 208.652 199.527 208.227 198.852C207.811 198.17 207.242 197.64 206.523 197.261C205.811 196.875 205.008 196.682 204.114 196.682C203.22 196.682 202.409 196.883 201.682 197.284C200.955 197.686 200.371 198.25 199.932 198.977C199.492 199.705 199.261 200.561 199.239 201.545H197.795C197.818 200.341 198.106 199.277 198.659 198.352C199.22 197.428 199.973 196.708 200.92 196.193C201.867 195.67 202.932 195.409 204.114 195.409C205.303 195.409 206.36 195.663 207.284 196.17C208.208 196.67 208.932 197.36 209.455 198.239C209.985 199.117 210.25 200.117 210.25 201.239C210.25 201.943 210.136 202.591 209.909 203.182C209.682 203.765 209.326 204.318 208.841 204.841C208.356 205.364 207.727 205.894 206.955 206.432C206.25 206.917 205.693 207.379 205.284 207.818C204.883 208.258 204.598 208.735 204.432 209.25C204.265 209.765 204.182 210.383 204.182 211.102V212.216H202.784ZM203.511 219.148C203.17 219.148 202.879 219.03 202.636 218.795C202.402 218.553 202.284 218.261 202.284 217.92C202.284 217.587 202.402 217.299 202.636 217.057C202.879 216.814 203.17 216.693 203.511 216.693C203.852 216.693 204.14 216.814 204.375 217.057C204.617 217.299 204.739 217.587 204.739 217.92C204.739 218.148 204.682 218.356 204.568 218.545C204.462 218.727 204.314 218.875 204.125 218.989C203.943 219.095 203.739 219.148 203.511 219.148ZM3.36364 258L3.36364 234.727H10.9205C12.3295 234.727 13.5189 234.977 14.4886 235.477C15.4583 235.977 16.1932 236.678 16.6932 237.58C17.2008 238.481 17.4545 239.53 17.4545 240.727C17.4545 241.667 17.303 242.5 17 243.227C16.697 243.955 16.2727 244.557 15.7273 245.034C15.1894 245.504 14.5568 245.83 13.8295 246.011V246.148C14.6326 246.208 15.3788 246.489 16.0682 246.989C16.7576 247.481 17.3106 248.152 17.7273 249C18.1515 249.848 18.3636 250.837 18.3636 251.966C18.3636 253.155 18.1061 254.205 17.5909 255.114C17.0833 256.015 16.322 256.723 15.3068 257.239C14.2917 257.746 13.0341 258 11.5341 258H3.36364ZM4.78409 256.682H11.5341C13.2841 256.682 14.6288 256.242 15.5682 255.364C16.5152 254.485 16.9886 253.352 16.9886 251.966C16.9886 250.989 16.7576 250.114 16.2955 249.341C15.8409 248.568 15.2083 247.958 14.3977 247.511C13.5871 247.057 12.6477 246.83 11.5795 246.83H4.78409L4.78409 256.682ZM4.78409 245.534H11.4091C12.4015 245.534 13.2424 245.318 13.9318 244.886C14.6288 244.455 15.1591 243.875 15.5227 243.148C15.8939 242.42 16.0795 241.614 16.0795 240.727C16.0795 239.288 15.6326 238.148 14.7386 237.307C13.8447 236.466 12.572 236.045 10.9205 236.045H4.78409L4.78409 245.534ZM24.7642 253.989C24.4233 253.989 24.1316 253.871 23.8892 253.636C23.6544 253.394 23.5369 253.102 23.5369 252.761C23.5369 252.428 23.6544 252.14 23.8892 251.898C24.1316 251.655 24.4233 251.534 24.7642 251.534C25.0975 251.534 25.3854 251.655 25.6278 251.898C25.8703 252.14 25.9915 252.428 25.9915 252.761C25.9915 252.989 25.9347 253.197 25.821 253.386C25.715 253.568 25.5672 253.716 25.3778 253.83C25.196 253.936 24.9915 253.989 24.7642 253.989ZM24.7642 242.159C24.4233 242.159 24.1316 242.038 23.8892 241.795C23.6544 241.553 23.5369 241.265 23.5369 240.932C23.5369 240.598 23.6544 240.311 23.8892 240.068C24.1316 239.826 24.4233 239.705 24.7642 239.705C25.0975 239.705 25.3854 239.826 25.6278 240.068C25.8703 240.311 25.9915 240.598 25.9915 240.932C25.9915 241.159 25.9347 241.367 25.821 241.557C25.715 241.739 25.5672 241.886 25.3778 242C25.196 242.106 24.9915 242.159 24.7642 242.159ZM59.0852 234.727V258H57.6989L42.858 237.307H42.7216V258H41.3011V234.727H42.6989L57.5398 255.443H57.6761V234.727H59.0852ZM66.608 258.148C66.267 258.148 65.9754 258.03 65.733 257.795C65.4981 257.553 65.3807 257.261 65.3807 256.92C65.3807 256.587 65.4981 256.299 65.733 256.057C65.9754 255.814 66.267 255.693 66.608 255.693C66.9413 255.693 67.2292 255.814 67.4716 256.057C67.714 256.299 67.8352 256.587 67.8352 256.92C67.8352 257.148 67.7784 257.356 67.6648 257.545C67.5587 257.727 67.411 257.875 67.2216 257.989C67.0398 258.095 66.8352 258.148 66.608 258.148ZM81.5994 236.045V234.727H97.9062V236.045H90.4631V258H89.0426V236.045H81.5994ZM100.781 258V240.545H102.134V243.273H102.259C102.637 242.379 103.277 241.663 104.179 241.125C105.08 240.58 106.107 240.307 107.259 240.307C107.38 240.307 107.501 240.307 107.622 240.307C107.743 240.307 107.857 240.311 107.963 240.318V241.716C107.872 241.708 107.762 241.697 107.634 241.682C107.512 241.659 107.361 241.648 107.179 241.648C106.209 241.648 105.346 241.856 104.588 242.273C103.838 242.689 103.247 243.265 102.815 244C102.384 244.727 102.168 245.561 102.168 246.5V258H100.781ZM113.332 264.545C112.984 264.545 112.639 264.508 112.298 264.432C111.957 264.356 111.651 264.258 111.378 264.136L111.787 262.92C112.499 263.193 113.143 263.292 113.719 263.216C114.302 263.14 114.817 262.875 115.264 262.42C115.711 261.966 116.09 261.299 116.401 260.42L117.196 258.239L110.798 240.545H112.287L117.832 256.216H117.946L123.491 240.545H124.98L117.616 260.966C117.336 261.754 116.984 262.413 116.56 262.943C116.135 263.473 115.651 263.871 115.105 264.136C114.567 264.409 113.976 264.545 113.332 264.545ZM129.514 258.148C129.173 258.148 128.882 258.03 128.639 257.795C128.404 257.553 128.287 257.261 128.287 256.92C128.287 256.587 128.404 256.299 128.639 256.057C128.882 255.814 129.173 255.693 129.514 255.693C129.848 255.693 130.135 255.814 130.378 256.057C130.62 256.299 130.741 256.587 130.741 256.92C130.741 257.148 130.685 257.356 130.571 257.545C130.465 257.727 130.317 257.875 130.128 257.989C129.946 258.095 129.741 258.148 129.514 258.148ZM21.0909 281H19.6364C19.4848 280.212 19.2008 279.451 18.7841 278.716C18.3674 277.973 17.8295 277.307 17.1705 276.716C16.5189 276.117 15.7614 275.644 14.8977 275.295C14.0341 274.947 13.0795 274.773 12.0341 274.773C10.5038 274.773 9.0947 275.182 7.80682 276C6.52652 276.811 5.5 278.004 4.72727 279.58C3.96212 281.155 3.57955 283.083 3.57955 285.364C3.57955 287.659 3.96212 289.595 4.72727 291.17C5.5 292.746 6.52652 293.939 7.80682 294.75C9.0947 295.553 10.5038 295.955 12.0341 295.955C13.0795 295.955 14.0341 295.784 14.8977 295.443C15.7614 295.095 16.5189 294.625 17.1705 294.034C17.8295 293.436 18.3674 292.765 18.7841 292.023C19.2008 291.28 19.4848 290.515 19.6364 289.727H21.0909C20.9242 290.667 20.6023 291.587 20.125 292.489C19.6553 293.39 19.0341 294.208 18.2614 294.943C17.4962 295.67 16.5909 296.25 15.5455 296.682C14.5076 297.106 13.3371 297.318 12.0341 297.318C10.0947 297.318 8.38636 296.826 6.90909 295.841C5.43182 294.848 4.27273 293.455 3.43182 291.659C2.59848 289.864 2.18182 287.765 2.18182 285.364C2.18182 282.962 2.59848 280.864 3.43182 279.068C4.27273 277.273 5.43182 275.883 6.90909 274.898C8.38636 273.905 10.0947 273.409 12.0341 273.409C13.3371 273.409 14.5076 273.625 15.5455 274.057C16.5909 274.481 17.4962 275.057 18.2614 275.784C19.0341 276.504 19.6553 277.314 20.125 278.216C20.6023 279.117 20.9242 280.045 21.0909 281ZM27.358 292.989C27.017 292.989 26.7254 292.871 26.483 292.636C26.2481 292.394 26.1307 292.102 26.1307 291.761C26.1307 291.428 26.2481 291.14 26.483 290.898C26.7254 290.655 27.017 290.534 27.358 290.534C27.6913 290.534 27.9792 290.655 28.2216 290.898C28.464 291.14 28.5852 291.428 28.5852 291.761C28.5852 291.989 28.5284 292.197 28.4148 292.386C28.3087 292.568 28.161 292.716 27.9716 292.83C27.7898 292.936 27.5852 292.989 27.358 292.989ZM27.358 281.159C27.017 281.159 26.7254 281.038 26.483 280.795C26.2481 280.553 26.1307 280.265 26.1307 279.932C26.1307 279.598 26.2481 279.311 26.483 279.068C26.7254 278.826 27.017 278.705 27.358 278.705C27.6913 278.705 27.9792 278.826 28.2216 279.068C28.464 279.311 28.5852 279.598 28.5852 279.932C28.5852 280.159 28.5284 280.367 28.4148 280.557C28.3087 280.739 28.161 280.886 27.9716 281C27.7898 281.106 27.5852 281.159 27.358 281.159ZM43.8949 273.727H45.4403L54.4062 294.955H54.5653L63.5312 273.727H65.0767V297H63.7131V277.102H63.5767L55.1562 297H53.8153L45.3949 277.102H45.2585V297H43.8949V273.727ZM74.8466 290.216V289.102C74.8542 288.155 74.9678 287.36 75.1875 286.716C75.4072 286.072 75.7557 285.5 76.233 285C76.7102 284.492 77.3352 283.981 78.108 283.466C78.767 283.011 79.3049 282.568 79.7216 282.136C80.1383 281.697 80.4413 281.239 80.6307 280.761C80.8277 280.284 80.9261 279.761 80.9261 279.193C80.9261 278.307 80.714 277.527 80.2898 276.852C79.8731 276.17 79.3049 275.64 78.5852 275.261C77.8731 274.875 77.0701 274.682 76.1761 274.682C75.2822 274.682 74.4716 274.883 73.7443 275.284C73.017 275.686 72.4337 276.25 71.9943 276.977C71.5549 277.705 71.3239 278.561 71.3011 279.545H69.858C69.8807 278.341 70.1686 277.277 70.7216 276.352C71.2822 275.428 72.036 274.708 72.983 274.193C73.9299 273.67 74.9943 273.409 76.1761 273.409C77.3655 273.409 78.4223 273.663 79.3466 274.17C80.2708 274.67 80.9943 275.36 81.517 276.239C82.0473 277.117 82.3125 278.117 82.3125 279.239C82.3125 279.943 82.1989 280.591 81.9716 281.182C81.7443 281.765 81.3883 282.318 80.9034 282.841C80.4186 283.364 79.7898 283.894 79.017 284.432C78.3125 284.917 77.7557 285.379 77.3466 285.818C76.9451 286.258 76.661 286.735 76.4943 287.25C76.3277 287.765 76.2443 288.383 76.2443 289.102V290.216H74.8466ZM75.5739 297.148C75.233 297.148 74.9413 297.03 74.6989 296.795C74.464 296.553 74.3466 296.261 74.3466 295.92C74.3466 295.587 74.464 295.299 74.6989 295.057C74.9413 294.814 75.233 294.693 75.5739 294.693C75.9148 294.693 76.2027 294.814 76.4375 295.057C76.6799 295.299 76.8011 295.587 76.8011 295.92C76.8011 296.148 76.7443 296.356 76.6307 296.545C76.5246 296.727 76.3769 296.875 76.1875 296.989C76.0057 297.095 75.8011 297.148 75.5739 297.148ZM96.4261 297V273.727H97.8466V284.693H111.869V273.727H113.29V297H111.869V286.011H97.8466V297H96.4261ZM120.918 273.727V297H119.531V273.727H120.918ZM126.656 303.545V279.545H128.009V283.443H128.179C128.452 282.693 128.834 282.004 129.327 281.375C129.827 280.746 130.444 280.242 131.179 279.864C131.921 279.477 132.793 279.284 133.793 279.284C135.202 279.284 136.429 279.67 137.474 280.443C138.52 281.216 139.33 282.284 139.906 283.648C140.482 285.004 140.77 286.561 140.77 288.318C140.77 290.076 140.478 291.636 139.895 293C139.319 294.356 138.509 295.424 137.463 296.205C136.425 296.977 135.209 297.364 133.815 297.364C132.823 297.364 131.952 297.174 131.202 296.795C130.459 296.417 129.834 295.913 129.327 295.284C128.827 294.648 128.444 293.951 128.179 293.193H128.043V303.545H126.656ZM128.02 288.307C128.02 289.792 128.247 291.121 128.702 292.295C129.156 293.462 129.808 294.386 130.656 295.068C131.505 295.742 132.516 296.08 133.69 296.08C134.88 296.08 135.899 295.739 136.747 295.057C137.603 294.367 138.255 293.436 138.702 292.261C139.156 291.087 139.384 289.769 139.384 288.307C139.384 286.845 139.16 285.53 138.713 284.364C138.266 283.197 137.618 282.277 136.77 281.602C135.921 280.92 134.895 280.58 133.69 280.58C132.501 280.58 131.482 280.917 130.634 281.591C129.793 282.258 129.145 283.174 128.69 284.341C128.243 285.5 128.02 286.822 128.02 288.307ZM149.097 290.216V289.102C149.104 288.155 149.218 287.36 149.437 286.716C149.657 286.072 150.006 285.5 150.483 285C150.96 284.492 151.585 283.981 152.358 283.466C153.017 283.011 153.555 282.568 153.972 282.136C154.388 281.697 154.691 281.239 154.881 280.761C155.078 280.284 155.176 279.761 155.176 279.193C155.176 278.307 154.964 277.527 154.54 276.852C154.123 276.17 153.555 275.64 152.835 275.261C152.123 274.875 151.32 274.682 150.426 274.682C149.532 274.682 148.722 274.883 147.994 275.284C147.267 275.686 146.684 276.25 146.244 276.977C145.805 277.705 145.574 278.561 145.551 279.545H144.108C144.131 278.341 144.419 277.277 144.972 276.352C145.532 275.428 146.286 274.708 147.233 274.193C148.18 273.67 149.244 273.409 150.426 273.409C151.616 273.409 152.672 273.663 153.597 274.17C154.521 274.67 155.244 275.36 155.767 276.239C156.297 277.117 156.562 278.117 156.562 279.239C156.562 279.943 156.449 280.591 156.222 281.182C155.994 281.765 155.638 282.318 155.153 282.841C154.669 283.364 154.04 283.894 153.267 284.432C152.563 284.917 152.006 285.379 151.597 285.818C151.195 286.258 150.911 286.735 150.744 287.25C150.578 287.765 150.494 288.383 150.494 289.102V290.216H149.097ZM149.824 297.148C149.483 297.148 149.191 297.03 148.949 296.795C148.714 296.553 148.597 296.261 148.597 295.92C148.597 295.587 148.714 295.299 148.949 295.057C149.191 294.814 149.483 294.693 149.824 294.693C150.165 294.693 150.453 294.814 150.687 295.057C150.93 295.299 151.051 295.587 151.051 295.92C151.051 296.148 150.994 296.356 150.881 296.545C150.775 296.727 150.627 296.875 150.437 296.989C150.256 297.095 150.051 297.148 149.824 297.148Z" fill="#4B5563"/>
</svg>
