<svg width="638" height="265" viewBox="0 0 638 265" fill="none" xmlns="http://www.w3.org/2000/svg">
<path d="M2.46591 24H0.965909L9.36364 0.727272H11L19.3977 24L17.8977 24L10.2386 2.55682H10.125L2.46591 24ZM4.59091 15.2386H15.7727V16.5568H4.59091V15.2386ZM24.5455 19.9886C24.2045 19.9886 23.9129 19.8712 23.6705 19.6364C23.4356 19.3939 23.3182 19.1023 23.3182 18.7614C23.3182 18.428 23.4356 18.1402 23.6705 17.8977C23.9129 17.6553 24.2045 17.5341 24.5455 17.5341C24.8788 17.5341 25.1667 17.6553 25.4091 17.8977C25.6515 18.1402 25.7727 18.428 25.7727 18.7614C25.7727 18.9886 25.7159 19.197 25.6023 19.3864C25.4962 19.5682 25.3485 19.7159 25.1591 19.8295C24.9773 19.9356 24.7727 19.9886 24.5455 19.9886ZM24.5455 8.15909C24.2045 8.15909 23.9129 8.03788 23.6705 7.79545C23.4356 7.55303 23.3182 7.26515 23.3182 6.93182C23.3182 6.59848 23.4356 6.31061 23.6705 6.06818C23.9129 5.82576 24.2045 5.70454 24.5455 5.70454C24.8788 5.70454 25.1667 5.82576 25.4091 6.06818C25.6515 6.31061 25.7727 6.59848 25.7727 6.93182C25.7727 7.15909 25.7159 7.36742 25.6023 7.55682C25.4962 7.73864 25.3485 7.88636 25.1591 8C24.9773 8.10606 24.7727 8.15909 24.5455 8.15909ZM41.0824 24V0.727272L48.6392 0.727272C50.0483 0.727272 51.2377 0.977272 52.2074 1.47727C53.1771 1.97727 53.9119 2.67803 54.4119 3.57954C54.9195 4.48106 55.1733 5.5303 55.1733 6.72727C55.1733 7.66667 55.0218 8.5 54.7188 9.22727C54.4157 9.95454 53.9915 10.5568 53.446 11.0341C52.9081 11.5038 52.2756 11.8295 51.5483 12.0114V12.1477C52.3513 12.2083 53.0975 12.4886 53.7869 12.9886C54.4763 13.4811 55.0294 14.1515 55.446 15C55.8703 15.8485 56.0824 16.8371 56.0824 17.9659C56.0824 19.1553 55.8248 20.2045 55.3097 21.1136C54.8021 22.0152 54.0407 22.7235 53.0256 23.2386C52.0104 23.7462 50.7528 24 49.2528 24H41.0824ZM42.5028 22.6818H49.2528C51.0028 22.6818 52.3475 22.2424 53.2869 21.3636C54.2339 20.4848 54.7074 19.3523 54.7074 17.9659C54.7074 16.9886 54.4763 16.1136 54.0142 15.3409C53.5597 14.5682 52.9271 13.9583 52.1165 13.5114C51.3059 13.0568 50.3665 12.8295 49.2983 12.8295H42.5028V22.6818ZM42.5028 11.5341H49.1278C50.1203 11.5341 50.9612 11.3182 51.6506 10.8864C52.3475 10.4545 52.8778 9.875 53.2415 9.14773C53.6127 8.42045 53.7983 7.61364 53.7983 6.72727C53.7983 5.28788 53.3513 4.14773 52.4574 3.30682C51.5634 2.46591 50.2907 2.04545 48.6392 2.04545L42.5028 2.04545V11.5341ZM60.1307 2.04545V0.727272L76.4375 0.727272V2.04545H68.9943V24H67.5739V2.04545L60.1307 2.04545ZM81.6136 24V0.727272H88.7841C90.2538 0.727272 91.5189 1.01515 92.5795 1.59091C93.6402 2.16667 94.4545 2.96591 95.0227 3.98864C95.5909 5.00379 95.875 6.18561 95.875 7.53409C95.875 8.86742 95.5909 10.0417 95.0227 11.0568C94.4545 12.0644 93.6402 12.8523 92.5795 13.4205C91.5265 13.9886 90.2652 14.2727 88.7955 14.2727H82.375V12.9432H88.7614C89.9583 12.9432 90.9811 12.7197 91.8295 12.2727C92.678 11.8258 93.3295 11.2008 93.7841 10.3977C94.2386 9.58712 94.4659 8.63258 94.4659 7.53409C94.4659 6.42803 94.2386 5.46591 93.7841 4.64773C93.3295 3.82197 92.6742 3.18182 91.8182 2.72727C90.9697 2.27273 89.947 2.04545 88.75 2.04545L83.0341 2.04545V24H81.6136ZM91.1705 13.4545L96.8977 24L95.2614 24L89.5682 13.4545H91.1705ZM104.597 17.2159V16.1023C104.604 15.1553 104.718 14.3598 104.938 13.7159C105.157 13.072 105.506 12.5 105.983 12C106.46 11.4924 107.085 10.9811 107.858 10.4659C108.517 10.0114 109.055 9.56818 109.472 9.13636C109.888 8.69697 110.191 8.23864 110.381 7.76136C110.578 7.28409 110.676 6.76136 110.676 6.19318C110.676 5.30682 110.464 4.52651 110.04 3.85227C109.623 3.17045 109.055 2.64015 108.335 2.26136C107.623 1.875 106.82 1.68182 105.926 1.68182C105.032 1.68182 104.222 1.88258 103.494 2.28409C102.767 2.6856 102.184 3.25 101.744 3.97727C101.305 4.70455 101.074 5.56061 101.051 6.54545H99.608C99.6307 5.34091 99.9186 4.27651 100.472 3.35227C101.032 2.42803 101.786 1.70833 102.733 1.19318C103.68 0.670454 104.744 0.40909 105.926 0.40909C107.116 0.40909 108.172 0.662878 109.097 1.17045C110.021 1.67045 110.744 2.35985 111.267 3.23864C111.797 4.11742 112.062 5.11742 112.062 6.23864C112.062 6.94318 111.949 7.59091 111.722 8.18182C111.494 8.76515 111.138 9.31818 110.653 9.84091C110.169 10.3636 109.54 10.8939 108.767 11.4318C108.063 11.9167 107.506 12.3788 107.097 12.8182C106.695 13.2576 106.411 13.7348 106.244 14.25C106.078 14.7652 105.994 15.3826 105.994 16.1023V17.2159H104.597ZM105.324 24.1477C104.983 24.1477 104.691 24.0303 104.449 23.7955C104.214 23.553 104.097 23.2614 104.097 22.9205C104.097 22.5871 104.214 22.2992 104.449 22.0568C104.691 21.8144 104.983 21.6932 105.324 21.6932C105.665 21.6932 105.953 21.8144 106.188 22.0568C106.43 22.2992 106.551 22.5871 106.551 22.9205C106.551 23.1477 106.494 23.3561 106.381 23.5455C106.275 23.7273 106.127 23.875 105.938 23.9886C105.756 24.0947 105.551 24.1477 105.324 24.1477ZM142.483 8C142.309 7.21212 142.013 6.45076 141.597 5.71591C141.18 4.97348 140.646 4.30682 139.994 3.71591C139.35 3.11742 138.593 2.64394 137.722 2.29545C136.858 1.94697 135.888 1.77273 134.812 1.77273C133.169 1.77273 131.71 2.20454 130.438 3.06818C129.172 3.92424 128.18 5.14773 127.46 6.73864C126.748 8.32197 126.392 10.197 126.392 12.3636C126.392 14.5076 126.748 16.375 127.46 17.9659C128.172 19.5568 129.169 20.7879 130.449 21.6591C131.737 22.5227 133.233 22.9545 134.938 22.9545C136.46 22.9545 137.809 22.6023 138.983 21.8977C140.165 21.1932 141.085 20.1856 141.744 18.875C142.403 17.5644 142.725 15.9962 142.71 14.1705L143.21 14.4091H135.301V13.0909H144.097V14.4091C144.097 16.4621 143.703 18.2311 142.915 19.7159C142.134 21.1932 141.051 22.3295 139.665 23.125C138.286 23.9205 136.71 24.3182 134.938 24.3182C132.938 24.3182 131.191 23.822 129.699 22.8295C128.206 21.8371 127.047 20.447 126.222 18.6591C125.403 16.8636 124.994 14.7652 124.994 12.3636C124.994 10.5606 125.229 8.92424 125.699 7.45454C126.169 5.98485 126.839 4.72727 127.71 3.68182C128.581 2.62879 129.619 1.82197 130.824 1.26136C132.028 0.693181 133.358 0.40909 134.812 0.40909C136.131 0.40909 137.316 0.628787 138.369 1.06818C139.422 1.5 140.331 2.08333 141.097 2.81818C141.869 3.54545 142.494 4.35985 142.972 5.26136C143.449 6.1553 143.771 7.06818 143.938 8L142.483 8ZM155.864 24.3636C154.424 24.3636 153.144 23.9773 152.023 23.2045C150.902 22.4242 150.019 21.3523 149.375 19.9886C148.731 18.625 148.409 17.072 148.409 15.3295C148.409 13.5795 148.731 12.0265 149.375 10.6705C150.019 9.30682 150.902 8.23485 152.023 7.45454C153.144 6.67424 154.424 6.28409 155.864 6.28409C157.303 6.28409 158.583 6.67424 159.705 7.45454C160.826 8.23485 161.708 9.30682 162.352 10.6705C162.996 12.0341 163.318 13.5871 163.318 15.3295C163.318 17.072 162.996 18.625 162.352 19.9886C161.708 21.3523 160.826 22.4242 159.705 23.2045C158.583 23.9773 157.303 24.3636 155.864 24.3636ZM155.864 23.0795C157.083 23.0795 158.148 22.7348 159.057 22.0455C159.973 21.3561 160.682 20.4242 161.182 19.25C161.689 18.0758 161.943 16.7689 161.943 15.3295C161.943 13.8902 161.689 12.5871 161.182 11.4205C160.674 10.2462 159.966 9.31439 159.057 8.625C158.148 7.92803 157.083 7.57954 155.864 7.57954C154.644 7.57954 153.58 7.92803 152.67 8.625C151.761 9.31439 151.053 10.2462 150.545 11.4205C150.038 12.5871 149.784 13.8902 149.784 15.3295C149.784 16.7689 150.034 18.0758 150.534 19.25C151.042 20.4242 151.75 21.3561 152.659 22.0455C153.576 22.7348 154.644 23.0795 155.864 23.0795ZM180.23 6.54545L173.923 24H172.355L166.048 6.54545H167.537L173.082 22.2159H173.196L178.741 6.54545H180.23ZM191.324 21.8068V8.01136H192.653V21.8068H191.324ZM185.097 15.5795V14.2386H198.881V15.5795H185.097ZM218.19 6.54545C218.069 5.09848 217.478 3.92803 216.418 3.03409C215.365 2.14015 214.001 1.69318 212.327 1.69318C211.198 1.69318 210.194 1.90152 209.315 2.31818C208.437 2.73485 207.747 3.30303 207.247 4.02273C206.747 4.74242 206.497 5.56818 206.497 6.5C206.497 7.09848 206.611 7.64015 206.838 8.125C207.073 8.60227 207.402 9.0303 207.827 9.40909C208.251 9.7803 208.755 10.1061 209.338 10.3864C209.921 10.6667 210.565 10.9129 211.27 11.125L213.815 11.875C214.687 12.1402 215.49 12.447 216.224 12.7955C216.967 13.1439 217.611 13.5606 218.156 14.0455C218.709 14.5227 219.137 15.0833 219.44 15.7273C219.751 16.3712 219.906 17.1136 219.906 17.9545C219.906 19.1818 219.588 20.2803 218.952 21.25C218.323 22.2197 217.425 22.9848 216.259 23.5455C215.099 24.0985 213.732 24.375 212.156 24.375C210.656 24.375 209.349 24.1212 208.236 23.6136C207.13 23.1061 206.255 22.4015 205.611 21.5C204.967 20.5909 204.603 19.5455 204.52 18.3636H205.974C206.05 19.3258 206.357 20.1591 206.895 20.8636C207.44 21.5606 208.164 22.0985 209.065 22.4773C209.967 22.8561 210.997 23.0455 212.156 23.0455C213.406 23.0455 214.509 22.8333 215.463 22.4091C216.418 21.9773 217.164 21.3788 217.702 20.6136C218.24 19.8485 218.509 18.9583 218.509 17.9432C218.509 17.125 218.315 16.4242 217.929 15.8409C217.543 15.2576 216.971 14.7538 216.213 14.3295C215.463 13.9053 214.531 13.5265 213.418 13.1932L210.702 12.375C208.884 11.822 207.493 11.0682 206.531 10.1136C205.577 9.15909 205.099 7.9697 205.099 6.54545C205.099 5.34848 205.418 4.28788 206.054 3.36364C206.69 2.43182 207.554 1.70076 208.645 1.17045C209.743 0.640151 210.982 0.375 212.361 0.375C213.747 0.375 214.971 0.643939 216.031 1.18182C217.092 1.71212 217.933 2.44318 218.554 3.375C219.175 4.29924 219.52 5.35606 219.588 6.54545L218.19 6.54545ZM225.52 24V0.727272H226.94V22.6818H238.304V24H225.52ZM252.031 30.5455V6.54545H253.384V10.4432H253.554C253.827 9.69318 254.209 9.00379 254.702 8.375C255.202 7.74621 255.819 7.24242 256.554 6.86364C257.296 6.47727 258.168 6.28409 259.168 6.28409C260.577 6.28409 261.804 6.67045 262.849 7.44318C263.895 8.21591 264.705 9.28409 265.281 10.6477C265.857 12.0038 266.145 13.5606 266.145 15.3182C266.145 17.0758 265.853 18.6364 265.27 20C264.694 21.3561 263.884 22.4242 262.838 23.2045C261.8 23.9773 260.584 24.3636 259.19 24.3636C258.198 24.3636 257.327 24.1742 256.577 23.7955C255.834 23.4167 255.209 22.9129 254.702 22.2841C254.202 21.6477 253.819 20.9508 253.554 20.1932H253.418V30.5455H252.031ZM253.395 15.3068C253.395 16.7917 253.622 18.1212 254.077 19.2955C254.531 20.4621 255.183 21.3864 256.031 22.0682C256.88 22.7424 257.891 23.0795 259.065 23.0795C260.255 23.0795 261.274 22.7386 262.122 22.0568C262.978 21.3674 263.63 20.4356 264.077 19.2614C264.531 18.0871 264.759 16.7689 264.759 15.3068C264.759 13.8447 264.535 12.5303 264.088 11.3636C263.641 10.197 262.993 9.27651 262.145 8.60227C261.296 7.92045 260.27 7.57954 259.065 7.57954C257.876 7.57954 256.857 7.91667 256.009 8.59091C255.168 9.25758 254.52 10.1742 254.065 11.3409C253.618 12.5 253.395 13.822 253.395 15.3068ZM277.426 24.3636C275.987 24.3636 274.706 23.9773 273.585 23.2045C272.464 22.4242 271.581 21.3523 270.938 19.9886C270.294 18.625 269.972 17.072 269.972 15.3295C269.972 13.5795 270.294 12.0265 270.938 10.6705C271.581 9.30682 272.464 8.23485 273.585 7.45454C274.706 6.67424 275.987 6.28409 277.426 6.28409C278.866 6.28409 280.146 6.67424 281.267 7.45454C282.388 8.23485 283.271 9.30682 283.915 10.6705C284.559 12.0341 284.881 13.5871 284.881 15.3295C284.881 17.072 284.559 18.625 283.915 19.9886C283.271 21.3523 282.388 22.4242 281.267 23.2045C280.146 23.9773 278.866 24.3636 277.426 24.3636ZM277.426 23.0795C278.646 23.0795 279.71 22.7348 280.619 22.0455C281.536 21.3561 282.244 20.4242 282.744 19.25C283.252 18.0758 283.506 16.7689 283.506 15.3295C283.506 13.8902 283.252 12.5871 282.744 11.4205C282.237 10.2462 281.528 9.31439 280.619 8.625C279.71 7.92803 278.646 7.57954 277.426 7.57954C276.206 7.57954 275.142 7.92803 274.233 8.625C273.324 9.31439 272.616 10.2462 272.108 11.4205C271.6 12.5871 271.347 13.8902 271.347 15.3295C271.347 16.7689 271.597 18.0758 272.097 19.25C272.604 20.4242 273.312 21.3561 274.222 22.0455C275.138 22.7348 276.206 23.0795 277.426 23.0795ZM289.656 30.5455V6.54545H291.009V10.4432H291.179C291.452 9.69318 291.834 9.00379 292.327 8.375C292.827 7.74621 293.444 7.24242 294.179 6.86364C294.921 6.47727 295.793 6.28409 296.793 6.28409C298.202 6.28409 299.429 6.67045 300.474 7.44318C301.52 8.21591 302.33 9.28409 302.906 10.6477C303.482 12.0038 303.77 13.5606 303.77 15.3182C303.77 17.0758 303.478 18.6364 302.895 20C302.319 21.3561 301.509 22.4242 300.463 23.2045C299.425 23.9773 298.209 24.3636 296.815 24.3636C295.823 24.3636 294.952 24.1742 294.202 23.7955C293.459 23.4167 292.834 22.9129 292.327 22.2841C291.827 21.6477 291.444 20.9508 291.179 20.1932H291.043V30.5455H289.656ZM291.02 15.3068C291.02 16.7917 291.247 18.1212 291.702 19.2955C292.156 20.4621 292.808 21.3864 293.656 22.0682C294.505 22.7424 295.516 23.0795 296.69 23.0795C297.88 23.0795 298.899 22.7386 299.747 22.0568C300.603 21.3674 301.255 20.4356 301.702 19.2614C302.156 18.0871 302.384 16.7689 302.384 15.3068C302.384 13.8447 302.16 12.5303 301.713 11.3636C301.266 10.197 300.618 9.27651 299.77 8.60227C298.921 7.92045 297.895 7.57954 296.69 7.57954C295.501 7.57954 294.482 7.91667 293.634 8.59091C292.793 9.25758 292.145 10.1742 291.69 11.3409C291.243 12.5 291.02 13.822 291.02 15.3068ZM309.858 24.1477C309.517 24.1477 309.225 24.0303 308.983 23.7955C308.748 23.553 308.631 23.2614 308.631 22.9205C308.631 22.5871 308.748 22.2992 308.983 22.0568C309.225 21.8144 309.517 21.6932 309.858 21.6932C310.191 21.6932 310.479 21.8144 310.722 22.0568C310.964 22.2992 311.085 22.5871 311.085 22.9205C311.085 23.1477 311.028 23.3561 310.915 23.5455C310.809 23.7273 310.661 23.875 310.472 23.9886C310.29 24.0947 310.085 24.1477 309.858 24.1477ZM3.36364 63L3.36364 39.7273H10.9205C12.3295 39.7273 13.5189 39.9773 14.4886 40.4773C15.4583 40.9773 16.1932 41.678 16.6932 42.5795C17.2008 43.4811 17.4545 44.5303 17.4545 45.7273C17.4545 46.6667 17.303 47.5 17 48.2273C16.697 48.9545 16.2727 49.5568 15.7273 50.0341C15.1894 50.5038 14.5568 50.8295 13.8295 51.0114V51.1477C14.6326 51.2083 15.3788 51.4886 16.0682 51.9886C16.7576 52.4811 17.3106 53.1515 17.7273 54C18.1515 54.8485 18.3636 55.8371 18.3636 56.9659C18.3636 58.1553 18.1061 59.2045 17.5909 60.1136C17.0833 61.0152 16.322 61.7235 15.3068 62.2386C14.2917 62.7462 13.0341 63 11.5341 63H3.36364ZM4.78409 61.6818H11.5341C13.2841 61.6818 14.6288 61.2424 15.5682 60.3636C16.5152 59.4848 16.9886 58.3523 16.9886 56.9659C16.9886 55.9886 16.7576 55.1136 16.2955 54.3409C15.8409 53.5682 15.2083 52.9583 14.3977 52.5114C13.5871 52.0568 12.6477 51.8295 11.5795 51.8295H4.78409L4.78409 61.6818ZM4.78409 50.5341H11.4091C12.4015 50.5341 13.2424 50.3182 13.9318 49.8864C14.6288 49.4545 15.1591 48.875 15.5227 48.1477C15.8939 47.4205 16.0795 46.6136 16.0795 45.7273C16.0795 44.2879 15.6326 43.1477 14.7386 42.3068C13.8447 41.4659 12.572 41.0455 10.9205 41.0455H4.78409L4.78409 50.5341ZM24.7642 58.9886C24.4233 58.9886 24.1316 58.8712 23.8892 58.6364C23.6544 58.3939 23.5369 58.1023 23.5369 57.7614C23.5369 57.428 23.6544 57.1402 23.8892 56.8977C24.1316 56.6553 24.4233 56.5341 24.7642 56.5341C25.0975 56.5341 25.3854 56.6553 25.6278 56.8977C25.8703 57.1402 25.9915 57.428 25.9915 57.7614C25.9915 57.9886 25.9347 58.197 25.821 58.3864C25.715 58.5682 25.5672 58.7159 25.3778 58.8295C25.196 58.9356 24.9915 58.9886 24.7642 58.9886ZM24.7642 47.1591C24.4233 47.1591 24.1316 47.0379 23.8892 46.7955C23.6544 46.553 23.5369 46.2652 23.5369 45.9318C23.5369 45.5985 23.6544 45.3106 23.8892 45.0682C24.1316 44.8258 24.4233 44.7045 24.7642 44.7045C25.0975 44.7045 25.3854 44.8258 25.6278 45.0682C25.8703 45.3106 25.9915 45.5985 25.9915 45.9318C25.9915 46.1591 25.9347 46.3674 25.821 46.5568C25.715 46.7386 25.5672 46.8864 25.3778 47C25.196 47.1061 24.9915 47.1591 24.7642 47.1591ZM38.9375 39.7273H40.6193L47.9489 50.9545H48.108L55.4375 39.7273H57.1193L48.7443 52.4432V63H47.3125V52.4432L38.9375 39.7273ZM62.6335 59.8182L62.429 61.0114C62.2926 61.7917 62.1184 62.6705 61.9062 63.6477C61.7017 64.6326 61.4896 65.5795 61.2699 66.4886C61.0502 67.3977 60.8494 68.1288 60.6676 68.6818H59.5881C59.6941 68.1364 59.8229 67.4659 59.9744 66.6705C60.1335 65.8826 60.2964 65.0114 60.4631 64.0568C60.6373 63.1023 60.8002 62.1136 60.9517 61.0909L61.1562 59.8182H62.6335ZM77.8636 63V39.7273H79.2386V49.4432H79.375C79.6477 48.6932 80.0341 48.0038 80.5341 47.375C81.0341 46.7462 81.6553 46.2424 82.3977 45.8636C83.1402 45.4773 84.0076 45.2841 85 45.2841C86.4015 45.2841 87.625 45.6742 88.6705 46.4545C89.7159 47.2273 90.5265 48.2955 91.1023 49.6591C91.678 51.0152 91.9659 52.5682 91.9659 54.3182C91.9659 56.0833 91.678 57.6477 91.1023 59.0114C90.5265 60.3674 89.7197 61.4318 88.6818 62.2045C87.6439 62.9773 86.4205 63.3636 85.0114 63.3636C84.0189 63.3636 83.1515 63.1742 82.4091 62.7955C81.6667 62.4091 81.0455 61.9015 80.5455 61.2727C80.0455 60.6364 79.6553 59.9432 79.375 59.1932H79.2159V63H77.8636ZM79.2273 54.3068C79.2273 55.7917 79.4508 57.1212 79.8977 58.2955C80.3523 59.4621 81.0038 60.3864 81.8523 61.0682C82.7008 61.7424 83.7159 62.0795 84.8977 62.0795C86.0947 62.0795 87.1174 61.7386 87.9659 61.0568C88.8144 60.3674 89.4621 59.4356 89.9091 58.2614C90.3636 57.0871 90.5909 55.7689 90.5909 54.3068C90.5909 52.8447 90.3636 51.5303 89.9091 50.3636C89.4621 49.197 88.8144 48.2765 87.9659 47.6023C87.1174 46.9205 86.0947 46.5795 84.8977 46.5795C83.7159 46.5795 82.7008 46.9167 81.8523 47.5909C81.0038 48.2576 80.3523 49.1742 79.8977 50.3409C79.4508 51.5 79.2273 52.822 79.2273 54.3068ZM103.239 63.3636C101.799 63.3636 100.519 62.9773 99.3977 62.2045C98.2765 61.4242 97.3939 60.3523 96.75 58.9886C96.1061 57.625 95.7841 56.072 95.7841 54.3295C95.7841 52.5795 96.1061 51.0265 96.75 49.6705C97.3939 48.3068 98.2765 47.2348 99.3977 46.4545C100.519 45.6742 101.799 45.2841 103.239 45.2841C104.678 45.2841 105.958 45.6742 107.08 46.4545C108.201 47.2348 109.083 48.3068 109.727 49.6705C110.371 51.0341 110.693 52.5871 110.693 54.3295C110.693 56.072 110.371 57.625 109.727 58.9886C109.083 60.3523 108.201 61.4242 107.08 62.2045C105.958 62.9773 104.678 63.3636 103.239 63.3636ZM103.239 62.0795C104.458 62.0795 105.523 61.7348 106.432 61.0455C107.348 60.3561 108.057 59.4242 108.557 58.25C109.064 57.0758 109.318 55.7689 109.318 54.3295C109.318 52.8902 109.064 51.5871 108.557 50.4205C108.049 49.2462 107.341 48.3144 106.432 47.625C105.523 46.928 104.458 46.5795 103.239 46.5795C102.019 46.5795 100.955 46.928 100.045 47.625C99.1364 48.3144 98.428 49.2462 97.9205 50.4205C97.4129 51.5871 97.1591 52.8902 97.1591 54.3295C97.1591 55.7689 97.4091 57.0758 97.9091 58.25C98.4167 59.4242 99.125 60.3561 100.034 61.0455C100.951 61.7348 102.019 62.0795 103.239 62.0795ZM126.56 49.3068L125.276 49.6477C125.071 49.0114 124.779 48.4621 124.401 48C124.022 47.5379 123.545 47.1818 122.969 46.9318C122.401 46.6742 121.719 46.5455 120.923 46.5455C119.643 46.5455 118.594 46.8636 117.776 47.5C116.965 48.1364 116.56 48.9659 116.56 49.9886C116.56 50.822 116.836 51.5114 117.389 52.0568C117.942 52.5947 118.787 53.0038 119.923 53.2841L122.605 53.9545C123.984 54.2955 125.022 54.8485 125.719 55.6136C126.416 56.3712 126.764 57.3144 126.764 58.4432C126.764 59.4053 126.503 60.2576 125.98 61C125.457 61.7424 124.734 62.322 123.81 62.7386C122.893 63.1553 121.825 63.3636 120.605 63.3636C118.976 63.3636 117.639 62.9848 116.594 62.2273C115.548 61.4621 114.878 60.3674 114.582 58.9432L115.912 58.6023C116.162 59.7386 116.681 60.6061 117.469 61.2045C118.264 61.7955 119.306 62.0909 120.594 62.0909C122.018 62.0909 123.166 61.7538 124.037 61.0795C124.916 60.4053 125.355 59.5417 125.355 58.4886C125.355 57.6856 125.098 57.0076 124.582 56.4545C124.067 55.9015 123.287 55.4962 122.241 55.2386L119.457 54.5568C118.033 54.2083 116.965 53.6515 116.253 52.8864C115.541 52.1136 115.185 51.1629 115.185 50.0341C115.185 49.0947 115.431 48.2689 115.923 47.5568C116.416 46.8447 117.094 46.2879 117.957 45.8864C118.821 45.4848 119.81 45.2841 120.923 45.2841C122.401 45.2841 123.605 45.6326 124.537 46.3295C125.469 47.0265 126.143 48.0189 126.56 49.3068ZM142.653 49.3068L141.369 49.6477C141.165 49.0114 140.873 48.4621 140.494 48C140.116 47.5379 139.638 47.1818 139.062 46.9318C138.494 46.6742 137.813 46.5455 137.017 46.5455C135.737 46.5455 134.688 46.8636 133.869 47.5C133.059 48.1364 132.653 48.9659 132.653 49.9886C132.653 50.822 132.93 51.5114 133.483 52.0568C134.036 52.5947 134.881 53.0038 136.017 53.2841L138.699 53.9545C140.078 54.2955 141.116 54.8485 141.812 55.6136C142.509 56.3712 142.858 57.3144 142.858 58.4432C142.858 59.4053 142.597 60.2576 142.074 61C141.551 61.7424 140.828 62.322 139.903 62.7386C138.987 63.1553 137.919 63.3636 136.699 63.3636C135.07 63.3636 133.733 62.9848 132.688 62.2273C131.642 61.4621 130.972 60.3674 130.676 58.9432L132.006 58.6023C132.256 59.7386 132.775 60.6061 133.562 61.2045C134.358 61.7955 135.4 62.0909 136.688 62.0909C138.112 62.0909 139.259 61.7538 140.131 61.0795C141.009 60.4053 141.449 59.5417 141.449 58.4886C141.449 57.6856 141.191 57.0076 140.676 56.4545C140.161 55.9015 139.381 55.4962 138.335 55.2386L135.551 54.5568C134.127 54.2083 133.059 53.6515 132.347 52.8864C131.634 52.1136 131.278 51.1629 131.278 50.0341C131.278 49.0947 131.525 48.2689 132.017 47.5568C132.509 46.8447 133.188 46.2879 134.051 45.8864C134.915 45.4848 135.903 45.2841 137.017 45.2841C138.494 45.2841 139.699 45.6326 140.631 46.3295C141.563 47.0265 142.237 48.0189 142.653 49.3068ZM148.952 61.9432C148.611 61.9432 148.319 61.822 148.077 61.5795C147.842 61.3371 147.724 61.0492 147.724 60.7159C147.724 60.375 147.842 60.0871 148.077 59.8523C148.319 59.6098 148.611 59.4886 148.952 59.4886C149.285 59.4886 149.573 59.6098 149.815 59.8523C150.058 60.0871 150.179 60.375 150.179 60.7159C150.179 60.9356 150.122 61.1402 150.009 61.3295C149.902 61.5189 149.755 61.6705 149.565 61.7841C149.384 61.8902 149.179 61.9432 148.952 61.9432ZM148.952 49.7159C148.611 49.7159 148.319 49.5947 148.077 49.3523C147.842 49.1098 147.724 48.822 147.724 48.4886C147.724 48.1477 147.842 47.8598 148.077 47.625C148.319 47.3826 148.611 47.2614 148.952 47.2614C149.285 47.2614 149.573 47.3826 149.815 47.625C150.058 47.8598 150.179 48.1477 150.179 48.4886C150.179 48.7083 150.122 48.9129 150.009 49.1023C149.902 49.2917 149.755 49.4432 149.565 49.5568C149.384 49.6629 149.179 49.7159 148.952 49.7159ZM166.136 39.7273V47.2386H164.818V39.7273H166.136ZM170.989 39.7273V47.2386H169.67V39.7273H170.989ZM193.389 47C193.215 46.2121 192.92 45.4508 192.503 44.7159C192.086 43.9735 191.552 43.3068 190.901 42.7159C190.257 42.1174 189.499 41.6439 188.628 41.2955C187.764 40.947 186.795 40.7727 185.719 40.7727C184.075 40.7727 182.616 41.2045 181.344 42.0682C180.079 42.9242 179.086 44.1477 178.366 45.7386C177.654 47.322 177.298 49.197 177.298 51.3636C177.298 53.5076 177.654 55.375 178.366 56.9659C179.079 58.5568 180.075 59.7879 181.355 60.6591C182.643 61.5227 184.139 61.9545 185.844 61.9545C187.366 61.9545 188.715 61.6023 189.889 60.8977C191.071 60.1932 191.991 59.1856 192.651 57.875C193.31 56.5644 193.632 54.9962 193.616 53.1705L194.116 53.4091L186.207 53.4091V52.0909L195.003 52.0909V53.4091C195.003 55.4621 194.609 57.2311 193.821 58.7159C193.041 60.1932 191.957 61.3295 190.571 62.125C189.192 62.9205 187.616 63.3182 185.844 63.3182C183.844 63.3182 182.098 62.822 180.605 61.8295C179.113 60.8371 177.954 59.447 177.128 57.6591C176.31 55.8636 175.901 53.7652 175.901 51.3636C175.901 49.5606 176.135 47.9242 176.605 46.4545C177.075 44.9848 177.745 43.7273 178.616 42.6818C179.488 41.6288 180.526 40.822 181.73 40.2614C182.935 39.6932 184.264 39.4091 185.719 39.4091C187.037 39.4091 188.223 39.6288 189.276 40.0682C190.329 40.5 191.238 41.0833 192.003 41.8182C192.776 42.5455 193.401 43.3598 193.878 44.2614C194.355 45.1553 194.677 46.0682 194.844 47H193.389ZM206.77 63.3636C205.33 63.3636 204.05 62.9773 202.929 62.2045C201.808 61.4242 200.925 60.3523 200.281 58.9886C199.637 57.625 199.315 56.072 199.315 54.3295C199.315 52.5795 199.637 51.0265 200.281 49.6705C200.925 48.3068 201.808 47.2348 202.929 46.4545C204.05 45.6742 205.33 45.2841 206.77 45.2841C208.209 45.2841 209.49 45.6742 210.611 46.4545C211.732 47.2348 212.615 48.3068 213.259 49.6705C213.902 51.0341 214.224 52.5871 214.224 54.3295C214.224 56.072 213.902 57.625 213.259 58.9886C212.615 60.3523 211.732 61.4242 210.611 62.2045C209.49 62.9773 208.209 63.3636 206.77 63.3636ZM206.77 62.0795C207.99 62.0795 209.054 61.7348 209.963 61.0455C210.88 60.3561 211.588 59.4242 212.088 58.25C212.596 57.0758 212.849 55.7689 212.849 54.3295C212.849 52.8902 212.596 51.5871 212.088 50.4205C211.58 49.2462 210.872 48.3144 209.963 47.625C209.054 46.928 207.99 46.5795 206.77 46.5795C205.55 46.5795 204.486 46.928 203.577 47.625C202.668 48.3144 201.959 49.2462 201.452 50.4205C200.944 51.5871 200.69 52.8902 200.69 54.3295C200.69 55.7689 200.94 57.0758 201.44 58.25C201.948 59.4242 202.656 60.3561 203.565 61.0455C204.482 61.7348 205.55 62.0795 206.77 62.0795ZM220.295 63.1477C219.955 63.1477 219.663 63.0303 219.42 62.7955C219.186 62.553 219.068 62.2614 219.068 61.9205C219.068 61.5871 219.186 61.2992 219.42 61.0568C219.663 60.8144 219.955 60.6932 220.295 60.6932C220.629 60.6932 220.917 60.8144 221.159 61.0568C221.402 61.2992 221.523 61.5871 221.523 61.9205C221.523 62.1477 221.466 62.3561 221.352 62.5455C221.246 62.7273 221.098 62.875 220.909 62.9886C220.727 63.0947 220.523 63.1477 220.295 63.1477ZM225.48 39.7273V47.2386H224.162V39.7273H225.48ZM230.332 39.7273V47.2386H229.014V39.7273H230.332ZM21.0909 86H19.6364C19.4848 85.2121 19.2008 84.4508 18.7841 83.7159C18.3674 82.9735 17.8295 82.3068 17.1705 81.7159C16.5189 81.1174 15.7614 80.6439 14.8977 80.2955C14.0341 79.947 13.0795 79.7727 12.0341 79.7727C10.5038 79.7727 9.0947 80.1818 7.80682 81C6.52652 81.8106 5.5 83.0038 4.72727 84.5795C3.96212 86.1553 3.57955 88.0833 3.57955 90.3636C3.57955 92.6591 3.96212 94.5947 4.72727 96.1705C5.5 97.7462 6.52652 98.9394 7.80682 99.75C9.0947 100.553 10.5038 100.955 12.0341 100.955C13.0795 100.955 14.0341 100.784 14.8977 100.443C15.7614 100.095 16.5189 99.625 17.1705 99.0341C17.8295 98.4356 18.3674 97.7652 18.7841 97.0227C19.2008 96.2803 19.4848 95.5152 19.6364 94.7273H21.0909C20.9242 95.6667 20.6023 96.5871 20.125 97.4886C19.6553 98.3902 19.0341 99.2083 18.2614 99.9432C17.4962 100.67 16.5909 101.25 15.5455 101.682C14.5076 102.106 13.3371 102.318 12.0341 102.318C10.0947 102.318 8.38636 101.826 6.90909 100.841C5.43182 99.8485 4.27273 98.4545 3.43182 96.6591C2.59848 94.8636 2.18182 92.7652 2.18182 90.3636C2.18182 87.9621 2.59848 85.8636 3.43182 84.0682C4.27273 82.2727 5.43182 80.8826 6.90909 79.8977C8.38636 78.9053 10.0947 78.4091 12.0341 78.4091C13.3371 78.4091 14.5076 78.625 15.5455 79.0568C16.5909 79.4811 17.4962 80.0568 18.2614 80.7841C19.0341 81.5038 19.6553 82.3144 20.125 83.2159C20.6023 84.1174 20.9242 85.0455 21.0909 86ZM27.358 97.9886C27.017 97.9886 26.7254 97.8712 26.483 97.6364C26.2481 97.3939 26.1307 97.1023 26.1307 96.7614C26.1307 96.428 26.2481 96.1402 26.483 95.8977C26.7254 95.6553 27.017 95.5341 27.358 95.5341C27.6913 95.5341 27.9792 95.6553 28.2216 95.8977C28.464 96.1402 28.5852 96.428 28.5852 96.7614C28.5852 96.9886 28.5284 97.197 28.4148 97.3864C28.3087 97.5682 28.161 97.7159 27.9716 97.8295C27.7898 97.9356 27.5852 97.9886 27.358 97.9886ZM27.358 86.1591C27.017 86.1591 26.7254 86.0379 26.483 85.7955C26.2481 85.553 26.1307 85.2652 26.1307 84.9318C26.1307 84.5985 26.2481 84.3106 26.483 84.0682C26.7254 83.8258 27.017 83.7045 27.358 83.7045C27.6913 83.7045 27.9792 83.8258 28.2216 84.0682C28.464 84.3106 28.5852 84.5985 28.5852 84.9318C28.5852 85.1591 28.5284 85.3674 28.4148 85.5568C28.3087 85.7386 28.161 85.8864 27.9716 86C27.7898 86.1061 27.5852 86.1591 27.358 86.1591ZM47.7585 102L41.3608 78.7273H42.8381L48.5199 99.8068H48.6562L54.2472 78.7273H55.9744L61.5653 99.8068H61.7017L67.3835 78.7273H68.8494L62.4517 102H60.8153L55.1676 81.0568H55.0426L49.3949 102H47.7585ZM77.7443 102.364C76.1686 102.364 74.7973 101.973 73.6307 101.193C72.464 100.413 71.5625 99.3447 70.9261 97.9886C70.2898 96.6326 69.9716 95.0871 69.9716 93.3523C69.9716 91.6098 70.2898 90.0568 70.9261 88.6932C71.5701 87.3295 72.4527 86.2538 73.5739 85.4659C74.6951 84.678 75.9754 84.2841 77.4148 84.2841C78.392 84.2841 79.3163 84.4811 80.1875 84.875C81.0663 85.2614 81.839 85.822 82.5057 86.5568C83.1799 87.2917 83.7064 88.178 84.0852 89.2159C84.4716 90.2538 84.6648 91.4205 84.6648 92.7159V93.5795L70.8466 93.5795V92.3182L83.2784 92.3182C83.2784 91.053 83.0208 89.9129 82.5057 88.8977C81.9905 87.8826 81.2898 87.0758 80.4034 86.4773C79.517 85.8788 78.5208 85.5795 77.4148 85.5795C76.2557 85.5795 75.2216 85.9053 74.3125 86.5568C73.411 87.2008 72.6951 88.072 72.1648 89.1705C71.642 90.2689 71.3693 91.4962 71.3466 92.8523V93.4205C71.3466 94.875 71.6004 96.1818 72.108 97.3409C72.6231 98.4924 73.358 99.4053 74.3125 100.08C75.267 100.746 76.411 101.08 77.7443 101.08C78.6989 101.08 79.5133 100.92 80.1875 100.602C80.8693 100.277 81.4261 99.8826 81.858 99.4205C82.2898 98.9583 82.6155 98.5114 82.8352 98.0795L84.0966 98.5909C83.8314 99.1742 83.4186 99.7576 82.858 100.341C82.3049 100.917 81.6004 101.398 80.7443 101.784C79.8958 102.17 78.8958 102.364 77.7443 102.364ZM90.8239 90.6818V102H89.4375V84.5455H90.7898V87.3068H90.9261C91.3352 86.4053 91.9905 85.6818 92.892 85.1364C93.7936 84.5909 94.8655 84.3182 96.108 84.3182C97.2822 84.3182 98.3125 84.5682 99.1989 85.0682C100.093 85.5682 100.79 86.2803 101.29 87.2045C101.797 88.1212 102.051 89.2159 102.051 90.4886V102H100.665V90.5455C100.665 89.0606 100.222 87.8674 99.3352 86.9659C98.4564 86.0568 97.2936 85.6023 95.8466 85.6023C94.8769 85.6023 94.0133 85.8144 93.2557 86.2386C92.4981 86.6629 91.9034 87.2576 91.4716 88.0227C91.0398 88.7803 90.8239 89.6667 90.8239 90.6818ZM113.983 84.5455V85.7841H106.358V84.5455H113.983ZM108.937 80.3636H110.312V97.875C110.312 98.5871 110.449 99.1705 110.722 99.625C111.002 100.072 111.366 100.405 111.812 100.625C112.267 100.837 112.752 100.943 113.267 100.943C113.517 100.943 113.733 100.924 113.915 100.886C114.104 100.848 114.282 100.799 114.449 100.739L114.79 102C114.578 102.076 114.343 102.14 114.085 102.193C113.828 102.254 113.525 102.284 113.176 102.284C112.449 102.284 111.759 102.121 111.108 101.795C110.464 101.47 109.941 100.996 109.54 100.375C109.138 99.7538 108.937 99.0038 108.937 98.125V80.3636ZM120.42 102.148C120.08 102.148 119.788 102.03 119.545 101.795C119.311 101.553 119.193 101.261 119.193 100.92C119.193 100.587 119.311 100.299 119.545 100.057C119.788 99.8144 120.08 99.6932 120.42 99.6932C120.754 99.6932 121.042 99.8144 121.284 100.057C121.527 100.299 121.648 100.587 121.648 100.92C121.648 101.148 121.591 101.356 121.477 101.545C121.371 101.727 121.223 101.875 121.034 101.989C120.852 102.095 120.648 102.148 120.42 102.148ZM136.06 102H134.56L142.957 78.7273H144.594L152.991 102H151.491L143.832 80.5568H143.719L136.06 102ZM138.185 93.2386H149.366V94.5568H138.185V93.2386ZM158.753 78.7273V102H157.332V78.7273H158.753ZM174.489 102V78.7273H175.864V88.4432H176C176.273 87.6932 176.659 87.0038 177.159 86.375C177.659 85.7462 178.28 85.2424 179.023 84.8636C179.765 84.4773 180.633 84.2841 181.625 84.2841C183.027 84.2841 184.25 84.6742 185.295 85.4545C186.341 86.2273 187.152 87.2955 187.727 88.6591C188.303 90.0152 188.591 91.5682 188.591 93.3182C188.591 95.0833 188.303 96.6477 187.727 98.0114C187.152 99.3674 186.345 100.432 185.307 101.205C184.269 101.977 183.045 102.364 181.636 102.364C180.644 102.364 179.777 102.174 179.034 101.795C178.292 101.409 177.67 100.902 177.17 100.273C176.67 99.6364 176.28 98.9432 176 98.1932H175.841V102H174.489ZM175.852 93.3068C175.852 94.7917 176.076 96.1212 176.523 97.2955C176.977 98.4621 177.629 99.3864 178.477 100.068C179.326 100.742 180.341 101.08 181.523 101.08C182.72 101.08 183.742 100.739 184.591 100.057C185.439 99.3674 186.087 98.4356 186.534 97.2614C186.989 96.0871 187.216 94.7689 187.216 93.3068C187.216 91.8447 186.989 90.5303 186.534 89.3636C186.087 88.197 185.439 87.2765 184.591 86.6023C183.742 85.9205 182.72 85.5795 181.523 85.5795C180.341 85.5795 179.326 85.9167 178.477 86.5909C177.629 87.2576 176.977 88.1742 176.523 89.3409C176.076 90.5 175.852 91.822 175.852 93.3068ZM193.443 102V84.5455H194.818V102H193.443ZM194.136 81.4545C193.833 81.4545 193.568 81.3485 193.341 81.1364C193.121 80.9242 193.011 80.6667 193.011 80.3636C193.011 80.0606 193.121 79.803 193.341 79.5909C193.561 79.3788 193.826 79.2727 194.136 79.2727C194.439 79.2727 194.701 79.3788 194.92 79.5909C195.148 79.803 195.261 80.0606 195.261 80.3636C195.261 80.6667 195.152 80.9242 194.932 81.1364C194.712 81.3485 194.447 81.4545 194.136 81.4545ZM200.034 102V100.83L210.307 85.9886V85.8636H200.602V84.5455H212.068V85.7386L201.886 100.557V100.682H212.477V102H200.034ZM237.341 88.3068L236.057 88.6477C235.852 88.0114 235.561 87.4621 235.182 87C234.803 86.5379 234.326 86.1818 233.75 85.9318C233.182 85.6742 232.5 85.5455 231.705 85.5455C230.424 85.5455 229.375 85.8636 228.557 86.5C227.746 87.1364 227.341 87.9659 227.341 88.9886C227.341 89.822 227.617 90.5114 228.17 91.0568C228.723 91.5947 229.568 92.0038 230.705 92.2841L233.386 92.9545C234.765 93.2955 235.803 93.8485 236.5 94.6136C237.197 95.3712 237.545 96.3144 237.545 97.4432C237.545 98.4053 237.284 99.2576 236.761 100C236.239 100.742 235.515 101.322 234.591 101.739C233.674 102.155 232.606 102.364 231.386 102.364C229.758 102.364 228.42 101.985 227.375 101.227C226.33 100.462 225.659 99.3674 225.364 97.9432L226.693 97.6023C226.943 98.7386 227.462 99.6061 228.25 100.205C229.045 100.795 230.087 101.091 231.375 101.091C232.799 101.091 233.947 100.754 234.818 100.08C235.697 99.4053 236.136 98.5417 236.136 97.4886C236.136 96.6856 235.879 96.0076 235.364 95.4545C234.848 94.9015 234.068 94.4962 233.023 94.2386L230.239 93.5568C228.814 93.2083 227.746 92.6515 227.034 91.8864C226.322 91.1136 225.966 90.1629 225.966 89.0341C225.966 88.0947 226.212 87.2689 226.705 86.5568C227.197 85.8447 227.875 85.2879 228.739 84.8864C229.602 84.4848 230.591 84.2841 231.705 84.2841C233.182 84.2841 234.386 84.6326 235.318 85.3295C236.25 86.0265 236.924 87.0189 237.341 88.3068ZM242.412 102V84.5455H243.787V102H242.412ZM243.105 81.4545C242.802 81.4545 242.537 81.3485 242.31 81.1364C242.09 80.9242 241.98 80.6667 241.98 80.3636C241.98 80.0606 242.09 79.803 242.31 79.5909C242.529 79.3788 242.795 79.2727 243.105 79.2727C243.408 79.2727 243.67 79.3788 243.889 79.5909C244.116 79.803 244.23 80.0606 244.23 80.3636C244.23 80.6667 244.12 80.9242 243.901 81.1364C243.681 81.3485 243.416 81.4545 243.105 81.4545ZM249.594 102V84.5455H250.946V87.1818H251.082C251.416 86.303 251.991 85.6061 252.81 85.0909C253.628 84.5758 254.613 84.3182 255.764 84.3182C257.029 84.3182 258.048 84.6212 258.821 85.2273C259.601 85.8333 260.162 86.6553 260.503 87.6932H260.628C260.969 86.6705 261.579 85.8523 262.457 85.2386C263.344 84.625 264.435 84.3182 265.73 84.3182C267.42 84.3182 268.707 84.8523 269.594 85.9205C270.488 86.9811 270.935 88.4356 270.935 90.2841V102H269.548V90.2841C269.548 88.8295 269.2 87.6856 268.503 86.8523C267.806 86.0189 266.783 85.6023 265.435 85.6023C263.995 85.6023 262.889 86.053 262.116 86.9545C261.344 87.8561 260.957 89.0038 260.957 90.3977V102H259.571V90.1932C259.571 88.8371 259.23 87.7348 258.548 86.8864C257.866 86.0303 256.844 85.6023 255.48 85.6023C254.556 85.6023 253.757 85.8144 253.082 86.2386C252.416 86.6629 251.897 87.2462 251.526 87.9886C251.162 88.7311 250.98 89.5833 250.98 90.5455V102H249.594ZM277.983 102.148C277.642 102.148 277.35 102.03 277.108 101.795C276.873 101.553 276.756 101.261 276.756 100.92C276.756 100.587 276.873 100.299 277.108 100.057C277.35 99.8144 277.642 99.6932 277.983 99.6932C278.316 99.6932 278.604 99.8144 278.847 100.057C279.089 100.299 279.21 100.587 279.21 100.92C279.21 101.148 279.153 101.356 279.04 101.545C278.934 101.727 278.786 101.875 278.597 101.989C278.415 102.095 278.21 102.148 277.983 102.148ZM300.259 102.318C299.016 102.318 297.906 102.057 296.929 101.534C295.959 101.004 295.19 100.277 294.622 99.3523C294.062 98.428 293.774 97.3712 293.759 96.1818H295.156C295.187 97.5909 295.675 98.7462 296.622 99.6477C297.569 100.549 298.781 101 300.259 101C301.395 101 302.395 100.727 303.259 100.182C304.13 99.6288 304.812 98.8788 305.304 97.9318C305.796 96.9848 306.039 95.9167 306.031 94.7273C306.031 93.4697 305.766 92.3712 305.236 91.4318C304.705 90.4924 303.997 89.7652 303.111 89.25C302.224 88.7348 301.243 88.4735 300.168 88.4659C299.319 88.4659 298.524 88.6212 297.781 88.9318C297.039 89.2348 296.406 89.625 295.884 90.1023L294.281 89.875L295.656 78.7273H306.565V80.0455H296.872L295.804 88.7614H295.918C296.463 88.2765 297.111 87.8864 297.861 87.5909C298.618 87.2879 299.44 87.1364 300.327 87.1364C301.63 87.1364 302.819 87.4545 303.895 88.0909C304.978 88.7273 305.838 89.6136 306.474 90.75C307.118 91.8864 307.437 93.2083 307.429 94.7159C307.421 96.1705 307.111 97.4697 306.497 98.6136C305.884 99.7576 305.035 100.663 303.952 101.33C302.876 101.989 301.645 102.318 300.259 102.318ZM312.688 102V84.5455H314.04V87.1818H314.176C314.509 86.303 315.085 85.6061 315.903 85.0909C316.722 84.5758 317.706 84.3182 318.858 84.3182C320.123 84.3182 321.142 84.6212 321.915 85.2273C322.695 85.8333 323.256 86.6553 323.597 87.6932H323.722C324.063 86.6705 324.672 85.8523 325.551 85.2386C326.438 84.625 327.528 84.3182 328.824 84.3182C330.513 84.3182 331.801 84.8523 332.688 85.9205C333.581 86.9811 334.028 88.4356 334.028 90.2841V102H332.642V90.2841C332.642 88.8295 332.294 87.6856 331.597 86.8523C330.9 86.0189 329.877 85.6023 328.528 85.6023C327.089 85.6023 325.983 86.053 325.21 86.9545C324.438 87.8561 324.051 89.0038 324.051 90.3977V102H322.665V90.1932C322.665 88.8371 322.324 87.7348 321.642 86.8864C320.96 86.0303 319.938 85.6023 318.574 85.6023C317.65 85.6023 316.85 85.8144 316.176 86.2386C315.509 86.6629 314.991 87.2462 314.619 87.9886C314.256 88.7311 314.074 89.5833 314.074 90.5455V102H312.688ZM341.077 100.943C340.736 100.943 340.444 100.822 340.202 100.58C339.967 100.337 339.849 100.049 339.849 99.7159C339.849 99.375 339.967 99.0871 340.202 98.8523C340.444 98.6098 340.736 98.4886 341.077 98.4886C341.41 98.4886 341.698 98.6098 341.94 98.8523C342.183 99.0871 342.304 99.375 342.304 99.7159C342.304 99.9356 342.247 100.14 342.134 100.33C342.027 100.519 341.88 100.67 341.69 100.784C341.509 100.89 341.304 100.943 341.077 100.943ZM341.077 88.7159C340.736 88.7159 340.444 88.5947 340.202 88.3523C339.967 88.1098 339.849 87.822 339.849 87.4886C339.849 87.1477 339.967 86.8598 340.202 86.625C340.444 86.3826 340.736 86.2614 341.077 86.2614C341.41 86.2614 341.698 86.3826 341.94 86.625C342.183 86.8598 342.304 87.1477 342.304 87.4886C342.304 87.7083 342.247 87.9129 342.134 88.1023C342.027 88.2917 341.88 88.4432 341.69 88.5568C341.509 88.6629 341.304 88.7159 341.077 88.7159ZM368.216 88.3068L366.932 88.6477C366.727 88.0114 366.436 87.4621 366.057 87C365.678 86.5379 365.201 86.1818 364.625 85.9318C364.057 85.6742 363.375 85.5455 362.58 85.5455C361.299 85.5455 360.25 85.8636 359.432 86.5C358.621 87.1364 358.216 87.9659 358.216 88.9886C358.216 89.822 358.492 90.5114 359.045 91.0568C359.598 91.5947 360.443 92.0038 361.58 92.2841L364.261 92.9545C365.64 93.2955 366.678 93.8485 367.375 94.6136C368.072 95.3712 368.42 96.3144 368.42 97.4432C368.42 98.4053 368.159 99.2576 367.636 100C367.114 100.742 366.39 101.322 365.466 101.739C364.549 102.155 363.481 102.364 362.261 102.364C360.633 102.364 359.295 101.985 358.25 101.227C357.205 100.462 356.534 99.3674 356.239 97.9432L357.568 97.6023C357.818 98.7386 358.337 99.6061 359.125 100.205C359.92 100.795 360.962 101.091 362.25 101.091C363.674 101.091 364.822 100.754 365.693 100.08C366.572 99.4053 367.011 98.5417 367.011 97.4886C367.011 96.6856 366.754 96.0076 366.239 95.4545C365.723 94.9015 364.943 94.4962 363.898 94.2386L361.114 93.5568C359.689 93.2083 358.621 92.6515 357.909 91.8864C357.197 91.1136 356.841 90.1629 356.841 89.0341C356.841 88.0947 357.087 87.2689 357.58 86.5568C358.072 85.8447 358.75 85.2879 359.614 84.8864C360.477 84.4848 361.466 84.2841 362.58 84.2841C364.057 84.2841 365.261 84.6326 366.193 85.3295C367.125 86.0265 367.799 87.0189 368.216 88.3068ZM384.401 95.8068V84.5455H385.787V102H384.401V99.1705H384.287C383.878 100.072 383.215 100.807 382.298 101.375C381.389 101.943 380.313 102.227 379.071 102.227C377.927 102.227 376.916 101.977 376.037 101.477C375.158 100.977 374.469 100.269 373.969 99.3523C373.469 98.428 373.219 97.3295 373.219 96.0568V84.5455H374.605V96C374.605 97.4545 375.045 98.6326 375.923 99.5341C376.81 100.428 377.954 100.875 379.355 100.875C380.264 100.875 381.101 100.67 381.866 100.261C382.632 99.8523 383.245 99.2689 383.707 98.5114C384.17 97.7462 384.401 96.8447 384.401 95.8068ZM391.531 102V84.5455H392.884V87.1818H393.02C393.353 86.303 393.929 85.6061 394.747 85.0909C395.565 84.5758 396.55 84.3182 397.702 84.3182C398.967 84.3182 399.986 84.6212 400.759 85.2273C401.539 85.8333 402.099 86.6553 402.44 87.6932H402.565C402.906 86.6705 403.516 85.8523 404.395 85.2386C405.281 84.625 406.372 84.3182 407.668 84.3182C409.357 84.3182 410.645 84.8523 411.531 85.9205C412.425 86.9811 412.872 88.4356 412.872 90.2841V102H411.486V90.2841C411.486 88.8295 411.137 87.6856 410.44 86.8523C409.743 86.0189 408.721 85.6023 407.372 85.6023C405.933 85.6023 404.827 86.053 404.054 86.9545C403.281 87.8561 402.895 89.0038 402.895 90.3977V102H401.509V90.1932C401.509 88.8371 401.168 87.7348 400.486 86.8864C399.804 86.0303 398.781 85.6023 397.418 85.6023C396.493 85.6023 395.694 85.8144 395.02 86.2386C394.353 86.6629 393.834 87.2462 393.463 87.9886C393.099 88.7311 392.918 89.5833 392.918 90.5455V102H391.531ZM425.386 99.8068V86.0114H426.716V99.8068H425.386ZM419.159 93.5795V92.2386H432.943V93.5795H419.159ZM445.298 78.7273V102H443.878V80.2273H443.741L438.514 83.6932V82.1705L443.696 78.7273H445.298ZM454.261 78.7273V102H452.875V78.7273H454.261ZM464.625 102.375C463.617 102.375 462.693 102.174 461.852 101.773C461.019 101.371 460.348 100.784 459.841 100.011C459.341 99.2386 459.091 98.2992 459.091 97.1932C459.091 96.4659 459.22 95.8258 459.477 95.2727C459.735 94.7197 460.133 94.2424 460.67 93.8409C461.208 93.4394 461.898 93.1098 462.739 92.8523C463.58 92.5871 464.583 92.3826 465.75 92.2386C466.636 92.1326 467.428 92.0303 468.125 91.9318C468.822 91.8258 469.367 91.6629 469.761 91.4432C470.163 91.2235 470.364 90.8902 470.364 90.4432V89.7159C470.364 88.4432 469.962 87.4318 469.159 86.6818C468.356 85.9318 467.25 85.5568 465.841 85.5568C464.591 85.5568 463.538 85.8333 462.682 86.3864C461.833 86.9318 461.239 87.6364 460.898 88.5L459.591 88.0114C459.924 87.178 460.405 86.4848 461.034 85.9318C461.67 85.3788 462.398 84.9659 463.216 84.6932C464.042 84.4205 464.905 84.2841 465.807 84.2841C466.587 84.2841 467.33 84.3939 468.034 84.6136C468.746 84.8333 469.379 85.1667 469.932 85.6136C470.492 86.0606 470.936 86.6326 471.261 87.3295C471.587 88.0189 471.75 88.8447 471.75 89.8068V102H470.364V98.8523H470.261C469.958 99.5038 469.542 100.098 469.011 100.636C468.489 101.167 467.856 101.591 467.114 101.909C466.379 102.22 465.549 102.375 464.625 102.375ZM464.761 101.091C465.852 101.091 466.818 100.826 467.659 100.295C468.508 99.7576 469.17 99.0227 469.648 98.0909C470.125 97.1591 470.364 96.1023 470.364 94.9205V92.3523C470.189 92.5038 469.936 92.6402 469.602 92.7614C469.277 92.875 468.905 92.9773 468.489 93.0682C468.08 93.1515 467.648 93.2273 467.193 93.2955C466.746 93.3561 466.311 93.4129 465.886 93.4659C464.614 93.6174 463.576 93.8523 462.773 94.1705C461.977 94.4811 461.394 94.8902 461.023 95.3977C460.659 95.9053 460.477 96.5189 460.477 97.2386C460.477 98.428 460.886 99.3674 461.705 100.057C462.523 100.746 463.542 101.091 464.761 101.091ZM478.949 90.6818V102H477.562V84.5455H478.915V87.3068H479.051C479.46 86.4053 480.116 85.6818 481.017 85.1364C481.919 84.5909 482.991 84.3182 484.233 84.3182C485.407 84.3182 486.438 84.5682 487.324 85.0682C488.218 85.5682 488.915 86.2803 489.415 87.2045C489.922 88.1212 490.176 89.2159 490.176 90.4886V102H488.79V90.5455C488.79 89.0606 488.347 87.8674 487.46 86.9659C486.581 86.0568 485.419 85.6023 483.972 85.6023C483.002 85.6023 482.138 85.8144 481.381 86.2386C480.623 86.6629 480.028 87.2576 479.597 88.0227C479.165 88.7803 478.949 89.6667 478.949 90.6818ZM502.233 108.909C501.15 108.909 500.176 108.765 499.312 108.477C498.449 108.197 497.714 107.795 497.108 107.273C496.509 106.75 496.051 106.129 495.733 105.409L496.892 104.727C497.15 105.288 497.517 105.788 497.994 106.227C498.472 106.667 499.063 107.011 499.767 107.261C500.479 107.511 501.301 107.636 502.233 107.636C503.915 107.636 505.244 107.201 506.222 106.33C507.206 105.466 507.699 104.14 507.699 102.352V98.0114H507.562C507.297 98.7689 506.903 99.4432 506.381 100.034C505.866 100.617 505.233 101.076 504.483 101.409C503.733 101.742 502.881 101.909 501.926 101.909C500.547 101.909 499.335 101.553 498.29 100.841C497.244 100.129 496.43 99.1288 495.847 97.8409C495.263 96.5455 494.972 95.0227 494.972 93.2727C494.972 91.5227 495.256 89.9735 495.824 88.625C496.4 87.2689 497.21 86.2083 498.256 85.4432C499.301 84.6705 500.528 84.2841 501.938 84.2841C502.945 84.2841 503.816 84.4773 504.551 84.8636C505.294 85.2424 505.915 85.7462 506.415 86.375C506.915 87.0038 507.301 87.6932 507.574 88.4432H507.733V84.5455H509.074V102.409C509.074 103.864 508.786 105.072 508.21 106.034C507.642 106.996 506.843 107.716 505.812 108.193C504.79 108.67 503.597 108.909 502.233 108.909ZM502.051 100.625C503.218 100.625 504.222 100.33 505.062 99.7386C505.911 99.1402 506.563 98.2917 507.017 97.1932C507.479 96.0871 507.71 94.7765 507.71 93.2614C507.71 91.7917 507.487 90.4773 507.04 89.3182C506.593 88.1591 505.945 87.2462 505.097 86.5795C504.248 85.9129 503.233 85.5795 502.051 85.5795C500.847 85.5795 499.82 85.9205 498.972 86.6023C498.123 87.2765 497.472 88.1932 497.017 89.3523C496.57 90.5114 496.347 91.8144 496.347 93.2614C496.347 94.7159 496.574 95.9962 497.028 97.1023C497.483 98.2008 498.134 99.0644 498.983 99.6932C499.831 100.314 500.854 100.625 502.051 100.625ZM517.634 98.8182L517.429 100.011C517.293 100.792 517.118 101.67 516.906 102.648C516.702 103.633 516.49 104.58 516.27 105.489C516.05 106.398 515.849 107.129 515.668 107.682H514.588C514.694 107.136 514.823 106.466 514.974 105.67C515.134 104.883 515.296 104.011 515.463 103.057C515.637 102.102 515.8 101.114 515.952 100.091L516.156 98.8182H517.634ZM533.761 90.6818V102L532.375 102V84.5455L533.727 84.5455V87.3068H533.864C534.273 86.4053 534.928 85.6818 535.83 85.1364C536.731 84.5909 537.803 84.3182 539.045 84.3182C540.22 84.3182 541.25 84.5682 542.136 85.0682C543.03 85.5682 543.727 86.2803 544.227 87.2045C544.735 88.1212 544.989 89.2159 544.989 90.4886V102H543.602V90.5455C543.602 89.0606 543.159 87.8674 542.273 86.9659C541.394 86.0568 540.231 85.6023 538.784 85.6023C537.814 85.6023 536.951 85.8144 536.193 86.2386C535.436 86.6629 534.841 87.2576 534.409 88.0227C533.977 88.7803 533.761 89.6667 533.761 90.6818ZM557.239 102.364C555.799 102.364 554.519 101.977 553.398 101.205C552.277 100.424 551.394 99.3523 550.75 97.9886C550.106 96.625 549.784 95.072 549.784 93.3295C549.784 91.5795 550.106 90.0265 550.75 88.6705C551.394 87.3068 552.277 86.2348 553.398 85.4545C554.519 84.6742 555.799 84.2841 557.239 84.2841C558.678 84.2841 559.958 84.6742 561.08 85.4545C562.201 86.2348 563.083 87.3068 563.727 88.6705C564.371 90.0341 564.693 91.5871 564.693 93.3295C564.693 95.072 564.371 96.625 563.727 97.9886C563.083 99.3523 562.201 100.424 561.08 101.205C559.958 101.977 558.678 102.364 557.239 102.364ZM557.239 101.08C558.458 101.08 559.523 100.735 560.432 100.045C561.348 99.3561 562.057 98.4242 562.557 97.25C563.064 96.0758 563.318 94.7689 563.318 93.3295C563.318 91.8902 563.064 90.5871 562.557 89.4205C562.049 88.2462 561.341 87.3144 560.432 86.625C559.523 85.928 558.458 85.5795 557.239 85.5795C556.019 85.5795 554.955 85.928 554.045 86.625C553.136 87.3144 552.428 88.2462 551.92 89.4205C551.413 90.5871 551.159 91.8902 551.159 93.3295C551.159 94.7689 551.409 96.0758 551.909 97.25C552.417 98.4242 553.125 99.3561 554.034 100.045C554.951 100.735 556.019 101.08 557.239 101.08ZM585.06 84.5455V85.7841H577.321V84.5455H585.06ZM579.866 102V81.8295C579.866 80.9508 580.067 80.2008 580.469 79.5795C580.87 78.9583 581.397 78.4848 582.048 78.1591C582.707 77.8333 583.416 77.6705 584.173 77.6705C584.575 77.6705 584.916 77.7045 585.196 77.7727C585.484 77.8333 585.734 77.9053 585.946 77.9886L585.537 79.2159C585.363 79.1553 585.173 79.1023 584.969 79.0568C584.772 79.0114 584.537 78.9886 584.264 78.9886C583.385 78.9886 582.662 79.2576 582.094 79.7955C581.526 80.3333 581.241 81.0833 581.241 82.0455L581.23 102H579.866ZM590.761 78.7273V102H589.375V78.7273H590.761ZM607.682 95.8068V84.5455H609.068V102H607.682V99.1705H607.568C607.159 100.072 606.496 100.807 605.58 101.375C604.67 101.943 603.595 102.227 602.352 102.227C601.208 102.227 600.197 101.977 599.318 101.477C598.439 100.977 597.75 100.269 597.25 99.3523C596.75 98.428 596.5 97.3295 596.5 96.0568V84.5455H597.886V96C597.886 97.4545 598.326 98.6326 599.205 99.5341C600.091 100.428 601.235 100.875 602.636 100.875C603.545 100.875 604.383 100.67 605.148 100.261C605.913 99.8523 606.527 99.2689 606.989 98.5114C607.451 97.7462 607.682 96.8447 607.682 95.8068ZM621.403 84.5455V85.7841H613.665V84.5455H621.403ZM616.21 102V81.8295C616.21 80.9508 616.411 80.2008 616.812 79.5795C617.214 78.9583 617.741 78.4848 618.392 78.1591C619.051 77.8333 619.759 77.6705 620.517 77.6705C620.919 77.6705 621.259 77.7045 621.54 77.7727C621.828 77.8333 622.078 77.9053 622.29 77.9886L621.881 79.2159C621.706 79.1553 621.517 79.1023 621.312 79.0568C621.116 79.0114 620.881 78.9886 620.608 78.9886C619.729 78.9886 619.006 79.2576 618.438 79.7955C617.869 80.3333 617.585 81.0833 617.585 82.0455L617.574 102H616.21ZM632.31 84.5455V85.7841H624.571V84.5455H632.31ZM627.116 102V81.8295C627.116 80.9508 627.317 80.2008 627.719 79.5795C628.12 78.9583 628.647 78.4848 629.298 78.1591C629.957 77.8333 630.666 77.6705 631.423 77.6705C631.825 77.6705 632.166 77.7045 632.446 77.7727C632.734 77.8333 632.984 77.9053 633.196 77.9886L632.787 79.2159C632.613 79.1553 632.423 79.1023 632.219 79.0568C632.022 79.0114 631.787 78.9886 631.514 78.9886C630.635 78.9886 629.912 79.2576 629.344 79.7955C628.776 80.3333 628.491 81.0833 628.491 82.0455L628.48 102H627.116ZM636.108 102.148C635.767 102.148 635.475 102.03 635.233 101.795C634.998 101.553 634.881 101.261 634.881 100.92C634.881 100.587 634.998 100.299 635.233 100.057C635.475 99.8144 635.767 99.6932 636.108 99.6932C636.441 99.6932 636.729 99.8144 636.972 100.057C637.214 100.299 637.335 100.587 637.335 100.92C637.335 101.148 637.278 101.356 637.165 101.545C637.059 101.727 636.911 101.875 636.722 101.989C636.54 102.095 636.335 102.148 636.108 102.148ZM3.36364 141L3.36364 117.727H10.9205C12.3295 117.727 13.5189 117.977 14.4886 118.477C15.4583 118.977 16.1932 119.678 16.6932 120.58C17.2008 121.481 17.4545 122.53 17.4545 123.727C17.4545 124.667 17.303 125.5 17 126.227C16.697 126.955 16.2727 127.557 15.7273 128.034C15.1894 128.504 14.5568 128.83 13.8295 129.011V129.148C14.6326 129.208 15.3788 129.489 16.0682 129.989C16.7576 130.481 17.3106 131.152 17.7273 132C18.1515 132.848 18.3636 133.837 18.3636 134.966C18.3636 136.155 18.1061 137.205 17.5909 138.114C17.0833 139.015 16.322 139.723 15.3068 140.239C14.2917 140.746 13.0341 141 11.5341 141H3.36364ZM4.78409 139.682H11.5341C13.2841 139.682 14.6288 139.242 15.5682 138.364C16.5152 137.485 16.9886 136.352 16.9886 134.966C16.9886 133.989 16.7576 133.114 16.2955 132.341C15.8409 131.568 15.2083 130.958 14.3977 130.511C13.5871 130.057 12.6477 129.83 11.5795 129.83H4.78409L4.78409 139.682ZM4.78409 128.534H11.4091C12.4015 128.534 13.2424 128.318 13.9318 127.886C14.6288 127.455 15.1591 126.875 15.5227 126.148C15.8939 125.42 16.0795 124.614 16.0795 123.727C16.0795 122.288 15.6326 121.148 14.7386 120.307C13.8447 119.466 12.572 119.045 10.9205 119.045H4.78409L4.78409 128.534ZM24.7642 136.989C24.4233 136.989 24.1316 136.871 23.8892 136.636C23.6544 136.394 23.5369 136.102 23.5369 135.761C23.5369 135.428 23.6544 135.14 23.8892 134.898C24.1316 134.655 24.4233 134.534 24.7642 134.534C25.0975 134.534 25.3854 134.655 25.6278 134.898C25.8703 135.14 25.9915 135.428 25.9915 135.761C25.9915 135.989 25.9347 136.197 25.821 136.386C25.715 136.568 25.5672 136.716 25.3778 136.83C25.196 136.936 24.9915 136.989 24.7642 136.989ZM24.7642 125.159C24.4233 125.159 24.1316 125.038 23.8892 124.795C23.6544 124.553 23.5369 124.265 23.5369 123.932C23.5369 123.598 23.6544 123.311 23.8892 123.068C24.1316 122.826 24.4233 122.705 24.7642 122.705C25.0975 122.705 25.3854 122.826 25.6278 123.068C25.8703 123.311 25.9915 123.598 25.9915 123.932C25.9915 124.159 25.9347 124.367 25.821 124.557C25.715 124.739 25.5672 124.886 25.3778 125C25.196 125.106 24.9915 125.159 24.7642 125.159ZM41.3011 141V117.727H48.4716C49.9413 117.727 51.2064 118.015 52.267 118.591C53.3277 119.167 54.142 119.966 54.7102 120.989C55.2784 122.004 55.5625 123.186 55.5625 124.534C55.5625 125.867 55.2784 127.042 54.7102 128.057C54.142 129.064 53.3277 129.852 52.267 130.42C51.214 130.989 49.9527 131.273 48.483 131.273H42.0625V129.943H48.4489C49.6458 129.943 50.6686 129.72 51.517 129.273C52.3655 128.826 53.017 128.201 53.4716 127.398C53.9261 126.587 54.1534 125.633 54.1534 124.534C54.1534 123.428 53.9261 122.466 53.4716 121.648C53.017 120.822 52.3617 120.182 51.5057 119.727C50.6572 119.273 49.6345 119.045 48.4375 119.045H42.7216V141H41.3011ZM50.858 130.455L56.5852 141H54.9489L49.2557 130.455H50.858ZM71.8409 127.307L70.5568 127.648C70.3523 127.011 70.0606 126.462 69.6818 126C69.303 125.538 68.8258 125.182 68.25 124.932C67.6818 124.674 67 124.545 66.2045 124.545C64.9242 124.545 63.875 124.864 63.0568 125.5C62.2462 126.136 61.8409 126.966 61.8409 127.989C61.8409 128.822 62.1174 129.511 62.6705 130.057C63.2235 130.595 64.0682 131.004 65.2045 131.284L67.8864 131.955C69.2652 132.295 70.303 132.848 71 133.614C71.697 134.371 72.0455 135.314 72.0455 136.443C72.0455 137.405 71.7841 138.258 71.2614 139C70.7386 139.742 70.0152 140.322 69.0909 140.739C68.1742 141.155 67.1061 141.364 65.8864 141.364C64.2576 141.364 62.9205 140.985 61.875 140.227C60.8295 139.462 60.1591 138.367 59.8636 136.943L61.1932 136.602C61.4432 137.739 61.9621 138.606 62.75 139.205C63.5455 139.795 64.5871 140.091 65.875 140.091C67.2992 140.091 68.447 139.754 69.3182 139.08C70.197 138.405 70.6364 137.542 70.6364 136.489C70.6364 135.686 70.3788 135.008 69.8636 134.455C69.3485 133.902 68.5682 133.496 67.5227 133.239L64.7386 132.557C63.3144 132.208 62.2462 131.652 61.5341 130.886C60.822 130.114 60.4659 129.163 60.4659 128.034C60.4659 127.095 60.7121 126.269 61.2045 125.557C61.697 124.845 62.375 124.288 63.2386 123.886C64.1023 123.485 65.0909 123.284 66.2045 123.284C67.6818 123.284 68.8864 123.633 69.8182 124.33C70.75 125.027 71.4242 126.019 71.8409 127.307ZM78.2301 117.727V141H76.8437V117.727H78.2301ZM96.7301 123.545L90.4233 141H88.8551L82.5483 123.545H84.0369L89.5824 139.216H89.696L95.2415 123.545H96.7301ZM101.062 141V123.545H102.415V126.273H102.54C102.919 125.379 103.559 124.663 104.46 124.125C105.362 123.58 106.388 123.307 107.54 123.307C107.661 123.307 107.782 123.307 107.903 123.307C108.025 123.307 108.138 123.311 108.244 123.318V124.716C108.153 124.708 108.044 124.697 107.915 124.682C107.794 124.659 107.642 124.648 107.46 124.648C106.491 124.648 105.627 124.856 104.869 125.273C104.119 125.689 103.528 126.265 103.097 127C102.665 127.727 102.449 128.561 102.449 129.5V141H101.062ZM133.73 123.545L127.423 141H125.855L119.548 123.545H121.037L126.582 139.216H126.696L132.241 123.545H133.73ZM138.131 141V123.545H139.506V141H138.131ZM138.824 120.455C138.521 120.455 138.256 120.348 138.028 120.136C137.809 119.924 137.699 119.667 137.699 119.364C137.699 119.061 137.809 118.803 138.028 118.591C138.248 118.379 138.513 118.273 138.824 118.273C139.127 118.273 139.388 118.379 139.608 118.591C139.835 118.803 139.949 119.061 139.949 119.364C139.949 119.667 139.839 119.924 139.619 120.136C139.4 120.348 139.134 120.455 138.824 120.455ZM145.801 141V117.727H147.176V127.443H147.312C147.585 126.693 147.972 126.004 148.472 125.375C148.972 124.746 149.593 124.242 150.335 123.864C151.078 123.477 151.945 123.284 152.938 123.284C154.339 123.284 155.563 123.674 156.608 124.455C157.653 125.227 158.464 126.295 159.04 127.659C159.616 129.015 159.903 130.568 159.903 132.318C159.903 134.083 159.616 135.648 159.04 137.011C158.464 138.367 157.657 139.432 156.619 140.205C155.581 140.977 154.358 141.364 152.949 141.364C151.956 141.364 151.089 141.174 150.347 140.795C149.604 140.409 148.983 139.902 148.483 139.273C147.983 138.636 147.593 137.943 147.312 137.193H147.153V141H145.801ZM147.165 132.307C147.165 133.792 147.388 135.121 147.835 136.295C148.29 137.462 148.941 138.386 149.79 139.068C150.638 139.742 151.653 140.08 152.835 140.08C154.032 140.08 155.055 139.739 155.903 139.057C156.752 138.367 157.4 137.436 157.847 136.261C158.301 135.087 158.528 133.769 158.528 132.307C158.528 130.845 158.301 129.53 157.847 128.364C157.4 127.197 156.752 126.277 155.903 125.602C155.055 124.92 154.032 124.58 152.835 124.58C151.653 124.58 150.638 124.917 149.79 125.591C148.941 126.258 148.29 127.174 147.835 128.341C147.388 129.5 147.165 130.822 147.165 132.307ZM171.494 141.364C169.919 141.364 168.547 140.973 167.381 140.193C166.214 139.413 165.313 138.345 164.676 136.989C164.04 135.633 163.722 134.087 163.722 132.352C163.722 130.61 164.04 129.057 164.676 127.693C165.32 126.33 166.203 125.254 167.324 124.466C168.445 123.678 169.725 123.284 171.165 123.284C172.142 123.284 173.066 123.481 173.938 123.875C174.816 124.261 175.589 124.822 176.256 125.557C176.93 126.292 177.456 127.178 177.835 128.216C178.222 129.254 178.415 130.42 178.415 131.716V132.58H164.597V131.318H177.028C177.028 130.053 176.771 128.913 176.256 127.898C175.741 126.883 175.04 126.076 174.153 125.477C173.267 124.879 172.271 124.58 171.165 124.58C170.006 124.58 168.972 124.905 168.062 125.557C167.161 126.201 166.445 127.072 165.915 128.17C165.392 129.269 165.119 130.496 165.097 131.852V132.42C165.097 133.875 165.35 135.182 165.858 136.341C166.373 137.492 167.108 138.405 168.062 139.08C169.017 139.746 170.161 140.08 171.494 140.08C172.449 140.08 173.263 139.92 173.938 139.602C174.619 139.277 175.176 138.883 175.608 138.42C176.04 137.958 176.366 137.511 176.585 137.08L177.847 137.591C177.581 138.174 177.169 138.758 176.608 139.341C176.055 139.917 175.35 140.398 174.494 140.784C173.646 141.17 172.646 141.364 171.494 141.364ZM194.278 127.307L192.994 127.648C192.79 127.011 192.498 126.462 192.119 126C191.741 125.538 191.263 125.182 190.688 124.932C190.119 124.674 189.438 124.545 188.642 124.545C187.362 124.545 186.313 124.864 185.494 125.5C184.684 126.136 184.278 126.966 184.278 127.989C184.278 128.822 184.555 129.511 185.108 130.057C185.661 130.595 186.506 131.004 187.642 131.284L190.324 131.955C191.703 132.295 192.741 132.848 193.438 133.614C194.134 134.371 194.483 135.314 194.483 136.443C194.483 137.405 194.222 138.258 193.699 139C193.176 139.742 192.453 140.322 191.528 140.739C190.612 141.155 189.544 141.364 188.324 141.364C186.695 141.364 185.358 140.985 184.312 140.227C183.267 139.462 182.597 138.367 182.301 136.943L183.631 136.602C183.881 137.739 184.4 138.606 185.188 139.205C185.983 139.795 187.025 140.091 188.312 140.091C189.737 140.091 190.884 139.754 191.756 139.08C192.634 138.405 193.074 137.542 193.074 136.489C193.074 135.686 192.816 135.008 192.301 134.455C191.786 133.902 191.006 133.496 189.96 133.239L187.176 132.557C185.752 132.208 184.684 131.652 183.972 130.886C183.259 130.114 182.903 129.163 182.903 128.034C182.903 127.095 183.15 126.269 183.642 125.557C184.134 124.845 184.813 124.288 185.676 123.886C186.54 123.485 187.528 123.284 188.642 123.284C190.119 123.284 191.324 123.633 192.256 124.33C193.188 125.027 193.862 126.019 194.278 127.307ZM200.577 141.148C200.236 141.148 199.944 141.03 199.702 140.795C199.467 140.553 199.349 140.261 199.349 139.92C199.349 139.587 199.467 139.299 199.702 139.057C199.944 138.814 200.236 138.693 200.577 138.693C200.91 138.693 201.198 138.814 201.44 139.057C201.683 139.299 201.804 139.587 201.804 139.92C201.804 140.148 201.747 140.356 201.634 140.545C201.527 140.727 201.38 140.875 201.19 140.989C201.009 141.095 200.804 141.148 200.577 141.148ZM2.46591 180H0.965909L9.36364 156.727H11L19.3977 180H17.8977L10.2386 158.557H10.125L2.46591 180ZM4.59091 171.239H15.7727V172.557H4.59091V171.239ZM24.5455 175.989C24.2045 175.989 23.9129 175.871 23.6705 175.636C23.4356 175.394 23.3182 175.102 23.3182 174.761C23.3182 174.428 23.4356 174.14 23.6705 173.898C23.9129 173.655 24.2045 173.534 24.5455 173.534C24.8788 173.534 25.1667 173.655 25.4091 173.898C25.6515 174.14 25.7727 174.428 25.7727 174.761C25.7727 174.989 25.7159 175.197 25.6023 175.386C25.4962 175.568 25.3485 175.716 25.1591 175.83C24.9773 175.936 24.7727 175.989 24.5455 175.989ZM24.5455 164.159C24.2045 164.159 23.9129 164.038 23.6705 163.795C23.4356 163.553 23.3182 163.265 23.3182 162.932C23.3182 162.598 23.4356 162.311 23.6705 162.068C23.9129 161.826 24.2045 161.705 24.5455 161.705C24.8788 161.705 25.1667 161.826 25.4091 162.068C25.6515 162.311 25.7727 162.598 25.7727 162.932C25.7727 163.159 25.7159 163.367 25.6023 163.557C25.4962 163.739 25.3485 163.886 25.1591 164C24.9773 164.106 24.7727 164.159 24.5455 164.159ZM41.0824 180V156.727H48.6392C50.0483 156.727 51.2377 156.977 52.2074 157.477C53.1771 157.977 53.9119 158.678 54.4119 159.58C54.9195 160.481 55.1733 161.53 55.1733 162.727C55.1733 163.667 55.0218 164.5 54.7187 165.227C54.4157 165.955 53.9915 166.557 53.446 167.034C52.9081 167.504 52.2756 167.83 51.5483 168.011V168.148C52.3513 168.208 53.0975 168.489 53.7869 168.989C54.4763 169.481 55.0294 170.152 55.446 171C55.8703 171.848 56.0824 172.837 56.0824 173.966C56.0824 175.155 55.8248 176.205 55.3097 177.114C54.8021 178.015 54.0407 178.723 53.0256 179.239C52.0104 179.746 50.7528 180 49.2528 180H41.0824ZM42.5028 178.682H49.2528C51.0028 178.682 52.3475 178.242 53.2869 177.364C54.2339 176.485 54.7074 175.352 54.7074 173.966C54.7074 172.989 54.4763 172.114 54.0142 171.341C53.5597 170.568 52.9271 169.958 52.1165 169.511C51.3059 169.057 50.3665 168.83 49.2983 168.83H42.5028V178.682ZM42.5028 167.534H49.1278C50.1203 167.534 50.9612 167.318 51.6506 166.886C52.3475 166.455 52.8778 165.875 53.2415 165.148C53.6127 164.42 53.7983 163.614 53.7983 162.727C53.7983 161.288 53.3513 160.148 52.4574 159.307C51.5634 158.466 50.2907 158.045 48.6392 158.045H42.5028V167.534ZM67.6761 180.364C66.2367 180.364 64.9564 179.977 63.8352 179.205C62.714 178.424 61.8314 177.352 61.1875 175.989C60.5436 174.625 60.2216 173.072 60.2216 171.33C60.2216 169.58 60.5436 168.027 61.1875 166.67C61.8314 165.307 62.714 164.235 63.8352 163.455C64.9564 162.674 66.2367 162.284 67.6761 162.284C69.1155 162.284 70.3958 162.674 71.517 163.455C72.6383 164.235 73.5208 165.307 74.1648 166.67C74.8087 168.034 75.1307 169.587 75.1307 171.33C75.1307 173.072 74.8087 174.625 74.1648 175.989C73.5208 177.352 72.6383 178.424 71.517 179.205C70.3958 179.977 69.1155 180.364 67.6761 180.364ZM67.6761 179.08C68.8958 179.08 69.9602 178.735 70.8693 178.045C71.786 177.356 72.4943 176.424 72.9943 175.25C73.5019 174.076 73.7557 172.769 73.7557 171.33C73.7557 169.89 73.5019 168.587 72.9943 167.42C72.4867 166.246 71.7784 165.314 70.8693 164.625C69.9602 163.928 68.8958 163.58 67.6761 163.58C66.4564 163.58 65.392 163.928 64.483 164.625C63.5739 165.314 62.8655 166.246 62.358 167.42C61.8504 168.587 61.5966 169.89 61.5966 171.33C61.5966 172.769 61.8466 174.076 62.3466 175.25C62.8542 176.424 63.5625 177.356 64.4716 178.045C65.3883 178.735 66.4564 179.08 67.6761 179.08ZM90.9972 166.307L89.7131 166.648C89.5085 166.011 89.2169 165.462 88.8381 165C88.4593 164.538 87.982 164.182 87.4062 163.932C86.8381 163.674 86.1563 163.545 85.3608 163.545C84.0805 163.545 83.0313 163.864 82.2131 164.5C81.4025 165.136 80.9972 165.966 80.9972 166.989C80.9972 167.822 81.2737 168.511 81.8267 169.057C82.3797 169.595 83.2244 170.004 84.3608 170.284L87.0426 170.955C88.4214 171.295 89.4593 171.848 90.1562 172.614C90.8532 173.371 91.2017 174.314 91.2017 175.443C91.2017 176.405 90.9403 177.258 90.4176 178C89.8949 178.742 89.1714 179.322 88.2472 179.739C87.3305 180.155 86.2623 180.364 85.0426 180.364C83.4138 180.364 82.0767 179.985 81.0312 179.227C79.9858 178.462 79.3153 177.367 79.0199 175.943L80.3494 175.602C80.5994 176.739 81.1184 177.606 81.9062 178.205C82.7017 178.795 83.7434 179.091 85.0312 179.091C86.4555 179.091 87.6032 178.754 88.4744 178.08C89.3532 177.405 89.7926 176.542 89.7926 175.489C89.7926 174.686 89.535 174.008 89.0199 173.455C88.5047 172.902 87.7244 172.496 86.679 172.239L83.8949 171.557C82.4706 171.208 81.4025 170.652 80.6903 169.886C79.9782 169.114 79.6222 168.163 79.6222 167.034C79.6222 166.095 79.8684 165.269 80.3608 164.557C80.8532 163.845 81.5313 163.288 82.3949 162.886C83.2585 162.485 84.2472 162.284 85.3608 162.284C86.8381 162.284 88.0426 162.633 88.9744 163.33C89.9063 164.027 90.5805 165.019 90.9972 166.307ZM107.091 166.307L105.807 166.648C105.602 166.011 105.311 165.462 104.932 165C104.553 164.538 104.076 164.182 103.5 163.932C102.932 163.674 102.25 163.545 101.455 163.545C100.174 163.545 99.125 163.864 98.3068 164.5C97.4962 165.136 97.0909 165.966 97.0909 166.989C97.0909 167.822 97.3674 168.511 97.9205 169.057C98.4735 169.595 99.3182 170.004 100.455 170.284L103.136 170.955C104.515 171.295 105.553 171.848 106.25 172.614C106.947 173.371 107.295 174.314 107.295 175.443C107.295 176.405 107.034 177.258 106.511 178C105.989 178.742 105.265 179.322 104.341 179.739C103.424 180.155 102.356 180.364 101.136 180.364C99.5076 180.364 98.1705 179.985 97.125 179.227C96.0795 178.462 95.4091 177.367 95.1136 175.943L96.4432 175.602C96.6932 176.739 97.2121 177.606 98 178.205C98.7955 178.795 99.8371 179.091 101.125 179.091C102.549 179.091 103.697 178.754 104.568 178.08C105.447 177.405 105.886 176.542 105.886 175.489C105.886 174.686 105.629 174.008 105.114 173.455C104.598 172.902 103.818 172.496 102.773 172.239L99.9886 171.557C98.5644 171.208 97.4962 170.652 96.7841 169.886C96.072 169.114 95.7159 168.163 95.7159 167.034C95.7159 166.095 95.9621 165.269 96.4545 164.557C96.947 163.845 97.625 163.288 98.4886 162.886C99.3523 162.485 100.341 162.284 101.455 162.284C102.932 162.284 104.136 162.633 105.068 163.33C106 164.027 106.674 165.019 107.091 166.307ZM113.582 168.409V167.102H125.457V168.409H113.582ZM113.582 174.716V173.409H125.457V174.716H113.582ZM130.653 180H129.153L137.551 156.727H139.187L147.585 180H146.085L138.426 158.557H138.312L130.653 180ZM132.778 171.239H143.96V172.557H132.778V171.239ZM153.347 156.727V180L151.926 180V156.727L153.347 156.727ZM163.128 173.216V172.102C163.135 171.155 163.249 170.36 163.469 169.716C163.688 169.072 164.037 168.5 164.514 168C164.991 167.492 165.616 166.981 166.389 166.466C167.048 166.011 167.586 165.568 168.003 165.136C168.42 164.697 168.723 164.239 168.912 163.761C169.109 163.284 169.207 162.761 169.207 162.193C169.207 161.307 168.995 160.527 168.571 159.852C168.154 159.17 167.586 158.64 166.866 158.261C166.154 157.875 165.351 157.682 164.457 157.682C163.563 157.682 162.753 157.883 162.026 158.284C161.298 158.686 160.715 159.25 160.276 159.977C159.836 160.705 159.605 161.561 159.582 162.545H158.139C158.162 161.341 158.45 160.277 159.003 159.352C159.563 158.428 160.317 157.708 161.264 157.193C162.211 156.67 163.276 156.409 164.457 156.409C165.647 156.409 166.704 156.663 167.628 157.17C168.552 157.67 169.276 158.36 169.798 159.239C170.329 160.117 170.594 161.117 170.594 162.239C170.594 162.943 170.48 163.591 170.253 164.182C170.026 164.765 169.67 165.318 169.185 165.841C168.7 166.364 168.071 166.894 167.298 167.432C166.594 167.917 166.037 168.379 165.628 168.818C165.226 169.258 164.942 169.735 164.776 170.25C164.609 170.765 164.526 171.383 164.526 172.102V173.216H163.128ZM163.855 180.148C163.514 180.148 163.223 180.03 162.98 179.795C162.745 179.553 162.628 179.261 162.628 178.92C162.628 178.587 162.745 178.299 162.98 178.057C163.223 177.814 163.514 177.693 163.855 177.693C164.196 177.693 164.484 177.814 164.719 178.057C164.961 178.299 165.082 178.587 165.082 178.92C165.082 179.148 165.026 179.356 164.912 179.545C164.806 179.727 164.658 179.875 164.469 179.989C164.287 180.095 164.082 180.148 163.855 180.148ZM21.0909 203H19.6364C19.4848 202.212 19.2008 201.451 18.7841 200.716C18.3674 199.973 17.8295 199.307 17.1705 198.716C16.5189 198.117 15.7614 197.644 14.8977 197.295C14.0341 196.947 13.0795 196.773 12.0341 196.773C10.5038 196.773 9.0947 197.182 7.80682 198C6.52652 198.811 5.5 200.004 4.72727 201.58C3.96212 203.155 3.57955 205.083 3.57955 207.364C3.57955 209.659 3.96212 211.595 4.72727 213.17C5.5 214.746 6.52652 215.939 7.80682 216.75C9.0947 217.553 10.5038 217.955 12.0341 217.955C13.0795 217.955 14.0341 217.784 14.8977 217.443C15.7614 217.095 16.5189 216.625 17.1705 216.034C17.8295 215.436 18.3674 214.765 18.7841 214.023C19.2008 213.28 19.4848 212.515 19.6364 211.727H21.0909C20.9242 212.667 20.6023 213.587 20.125 214.489C19.6553 215.39 19.0341 216.208 18.2614 216.943C17.4962 217.67 16.5909 218.25 15.5455 218.682C14.5076 219.106 13.3371 219.318 12.0341 219.318C10.0947 219.318 8.38636 218.826 6.90909 217.841C5.43182 216.848 4.27273 215.455 3.43182 213.659C2.59848 211.864 2.18182 209.765 2.18182 207.364C2.18182 204.962 2.59848 202.864 3.43182 201.068C4.27273 199.273 5.43182 197.883 6.90909 196.898C8.38636 195.905 10.0947 195.409 12.0341 195.409C13.3371 195.409 14.5076 195.625 15.5455 196.057C16.5909 196.481 17.4962 197.057 18.2614 197.784C19.0341 198.504 19.6553 199.314 20.125 200.216C20.6023 201.117 20.9242 202.045 21.0909 203ZM27.358 214.989C27.017 214.989 26.7254 214.871 26.483 214.636C26.2481 214.394 26.1307 214.102 26.1307 213.761C26.1307 213.428 26.2481 213.14 26.483 212.898C26.7254 212.655 27.017 212.534 27.358 212.534C27.6913 212.534 27.9792 212.655 28.2216 212.898C28.464 213.14 28.5852 213.428 28.5852 213.761C28.5852 213.989 28.5284 214.197 28.4148 214.386C28.3087 214.568 28.161 214.716 27.9716 214.83C27.7898 214.936 27.5852 214.989 27.358 214.989ZM27.358 203.159C27.017 203.159 26.7254 203.038 26.483 202.795C26.2481 202.553 26.1307 202.265 26.1307 201.932C26.1307 201.598 26.2481 201.311 26.483 201.068C26.7254 200.826 27.017 200.705 27.358 200.705C27.6913 200.705 27.9792 200.826 28.2216 201.068C28.464 201.311 28.5852 201.598 28.5852 201.932C28.5852 202.159 28.5284 202.367 28.4148 202.557C28.3087 202.739 28.161 202.886 27.9716 203C27.7898 203.106 27.5852 203.159 27.358 203.159ZM61.679 195.727V219H60.2926L45.4517 198.307H45.3153V219H43.8949V195.727H45.2926L60.1335 216.443H60.2699V195.727H61.679ZM72.5312 219.375C71.5237 219.375 70.5994 219.174 69.7585 218.773C68.9252 218.371 68.2547 217.784 67.7472 217.011C67.2472 216.239 66.9972 215.299 66.9972 214.193C66.9972 213.466 67.1259 212.826 67.3835 212.273C67.6411 211.72 68.0388 211.242 68.5767 210.841C69.1146 210.439 69.804 210.11 70.6449 209.852C71.4858 209.587 72.4896 209.383 73.6562 209.239C74.5426 209.133 75.3343 209.03 76.0312 208.932C76.7282 208.826 77.2737 208.663 77.6676 208.443C78.0691 208.223 78.2699 207.89 78.2699 207.443V206.716C78.2699 205.443 77.8684 204.432 77.0653 203.682C76.2623 202.932 75.1563 202.557 73.7472 202.557C72.4972 202.557 71.4441 202.833 70.5881 203.386C69.7396 203.932 69.1449 204.636 68.804 205.5L67.4972 205.011C67.8305 204.178 68.3116 203.485 68.9403 202.932C69.5767 202.379 70.304 201.966 71.1222 201.693C71.9479 201.42 72.8116 201.284 73.7131 201.284C74.4934 201.284 75.2358 201.394 75.9403 201.614C76.6525 201.833 77.285 202.167 77.8381 202.614C78.3987 203.061 78.8419 203.633 79.1676 204.33C79.4934 205.019 79.6562 205.845 79.6562 206.807V219H78.2699V215.852H78.1676C77.8646 216.504 77.4479 217.098 76.9176 217.636C76.3949 218.167 75.7623 218.591 75.0199 218.909C74.285 219.22 73.4555 219.375 72.5312 219.375ZM72.6676 218.091C73.7585 218.091 74.7244 217.826 75.5653 217.295C76.4138 216.758 77.0767 216.023 77.554 215.091C78.0313 214.159 78.2699 213.102 78.2699 211.92V209.352C78.0956 209.504 77.8419 209.64 77.5085 209.761C77.1828 209.875 76.8116 209.977 76.3949 210.068C75.9858 210.152 75.554 210.227 75.0994 210.295C74.6525 210.356 74.2169 210.413 73.7926 210.466C72.5199 210.617 71.482 210.852 70.679 211.17C69.8835 211.481 69.3002 211.89 68.929 212.398C68.5653 212.905 68.3835 213.519 68.3835 214.239C68.3835 215.428 68.7926 216.367 69.6108 217.057C70.429 217.746 71.4479 218.091 72.6676 218.091ZM86.8551 207.682V219H85.4687V195.727H86.8551V204.307H86.9915C87.4006 203.398 88.0521 202.674 88.946 202.136C89.8475 201.591 90.9271 201.318 92.1847 201.318C93.3589 201.318 94.393 201.568 95.2869 202.068C96.1809 202.561 96.8778 203.269 97.3778 204.193C97.8854 205.11 98.1392 206.208 98.1392 207.489V219H96.7642V207.545C96.7642 206.053 96.321 204.856 95.4347 203.955C94.5483 203.053 93.3778 202.602 91.9233 202.602C90.946 202.602 90.0748 202.814 89.3097 203.239C88.5445 203.663 87.9422 204.258 87.5028 205.023C87.071 205.78 86.8551 206.667 86.8551 207.682ZM106.602 215.818L106.398 217.011C106.261 217.792 106.087 218.67 105.875 219.648C105.67 220.633 105.458 221.58 105.239 222.489C105.019 223.398 104.818 224.129 104.636 224.682H103.557C103.663 224.136 103.792 223.466 103.943 222.67C104.102 221.883 104.265 221.011 104.432 220.057C104.606 219.102 104.769 218.114 104.92 217.091L105.125 215.818H106.602ZM122.73 195.727V219H121.344V195.727H122.73ZM133.094 219.375C132.086 219.375 131.162 219.174 130.321 218.773C129.488 218.371 128.817 217.784 128.31 217.011C127.81 216.239 127.56 215.299 127.56 214.193C127.56 213.466 127.688 212.826 127.946 212.273C128.204 211.72 128.601 211.242 129.139 210.841C129.677 210.439 130.366 210.11 131.207 209.852C132.048 209.587 133.052 209.383 134.219 209.239C135.105 209.133 135.897 209.03 136.594 208.932C137.291 208.826 137.836 208.663 138.23 208.443C138.632 208.223 138.832 207.89 138.832 207.443V206.716C138.832 205.443 138.431 204.432 137.628 203.682C136.825 202.932 135.719 202.557 134.31 202.557C133.06 202.557 132.007 202.833 131.151 203.386C130.302 203.932 129.707 204.636 129.366 205.5L128.06 205.011C128.393 204.178 128.874 203.485 129.503 202.932C130.139 202.379 130.866 201.966 131.685 201.693C132.51 201.42 133.374 201.284 134.276 201.284C135.056 201.284 135.798 201.394 136.503 201.614C137.215 201.833 137.848 202.167 138.401 202.614C138.961 203.061 139.404 203.633 139.73 204.33C140.056 205.019 140.219 205.845 140.219 206.807V219H138.832V215.852H138.73C138.427 216.504 138.01 217.098 137.48 217.636C136.957 218.167 136.325 218.591 135.582 218.909C134.848 219.22 134.018 219.375 133.094 219.375ZM133.23 218.091C134.321 218.091 135.287 217.826 136.128 217.295C136.976 216.758 137.639 216.023 138.116 215.091C138.594 214.159 138.832 213.102 138.832 211.92V209.352C138.658 209.504 138.404 209.64 138.071 209.761C137.745 209.875 137.374 209.977 136.957 210.068C136.548 210.152 136.116 210.227 135.662 210.295C135.215 210.356 134.779 210.413 134.355 210.466C133.082 210.617 132.045 210.852 131.241 211.17C130.446 211.481 129.863 211.89 129.491 212.398C129.128 212.905 128.946 213.519 128.946 214.239C128.946 215.428 129.355 216.367 130.173 217.057C130.991 217.746 132.01 218.091 133.23 218.091ZM147.418 207.682V219H146.031V201.545H147.384V204.307H147.52C147.929 203.405 148.584 202.682 149.486 202.136C150.387 201.591 151.459 201.318 152.702 201.318C153.876 201.318 154.906 201.568 155.793 202.068C156.687 202.568 157.384 203.28 157.884 204.205C158.391 205.121 158.645 206.216 158.645 207.489V219H157.259V207.545C157.259 206.061 156.815 204.867 155.929 203.966C155.05 203.057 153.887 202.602 152.44 202.602C151.471 202.602 150.607 202.814 149.849 203.239C149.092 203.663 148.497 204.258 148.065 205.023C147.634 205.78 147.418 206.667 147.418 207.682ZM170.702 225.909C169.618 225.909 168.645 225.765 167.781 225.477C166.918 225.197 166.183 224.795 165.577 224.273C164.978 223.75 164.52 223.129 164.202 222.409L165.361 221.727C165.618 222.288 165.986 222.788 166.463 223.227C166.94 223.667 167.531 224.011 168.236 224.261C168.948 224.511 169.77 224.636 170.702 224.636C172.384 224.636 173.713 224.201 174.69 223.33C175.675 222.466 176.168 221.14 176.168 219.352V215.011H176.031C175.766 215.769 175.372 216.443 174.849 217.034C174.334 217.617 173.702 218.076 172.952 218.409C172.202 218.742 171.349 218.909 170.395 218.909C169.016 218.909 167.804 218.553 166.759 217.841C165.713 217.129 164.899 216.129 164.315 214.841C163.732 213.545 163.44 212.023 163.44 210.273C163.44 208.523 163.724 206.973 164.293 205.625C164.868 204.269 165.679 203.208 166.724 202.443C167.77 201.67 168.997 201.284 170.406 201.284C171.414 201.284 172.285 201.477 173.02 201.864C173.762 202.242 174.384 202.746 174.884 203.375C175.384 204.004 175.77 204.693 176.043 205.443H176.202V201.545H177.543V219.409C177.543 220.864 177.255 222.072 176.679 223.034C176.111 223.996 175.312 224.716 174.281 225.193C173.259 225.67 172.065 225.909 170.702 225.909ZM170.52 217.625C171.687 217.625 172.69 217.33 173.531 216.739C174.38 216.14 175.031 215.292 175.486 214.193C175.948 213.087 176.179 211.777 176.179 210.261C176.179 208.792 175.955 207.477 175.509 206.318C175.062 205.159 174.414 204.246 173.565 203.58C172.717 202.913 171.702 202.58 170.52 202.58C169.315 202.58 168.289 202.92 167.44 203.602C166.592 204.277 165.94 205.193 165.486 206.352C165.039 207.511 164.815 208.814 164.815 210.261C164.815 211.716 165.043 212.996 165.497 214.102C165.952 215.201 166.603 216.064 167.452 216.693C168.3 217.314 169.323 217.625 170.52 217.625ZM192.375 219V201.545H193.727V204.273H193.852C194.231 203.379 194.871 202.663 195.773 202.125C196.674 201.58 197.701 201.307 198.852 201.307C198.973 201.307 199.095 201.307 199.216 201.307C199.337 201.307 199.451 201.311 199.557 201.318V202.716C199.466 202.708 199.356 202.697 199.227 202.682C199.106 202.659 198.955 202.648 198.773 202.648C197.803 202.648 196.939 202.856 196.182 203.273C195.432 203.689 194.841 204.265 194.409 205C193.977 205.727 193.761 206.561 193.761 207.5V219H192.375ZM209.557 219.364C207.981 219.364 206.61 218.973 205.443 218.193C204.277 217.413 203.375 216.345 202.739 214.989C202.102 213.633 201.784 212.087 201.784 210.352C201.784 208.61 202.102 207.057 202.739 205.693C203.383 204.33 204.265 203.254 205.386 202.466C206.508 201.678 207.788 201.284 209.227 201.284C210.205 201.284 211.129 201.481 212 201.875C212.879 202.261 213.652 202.822 214.318 203.557C214.992 204.292 215.519 205.178 215.898 206.216C216.284 207.254 216.477 208.42 216.477 209.716V210.58H202.659V209.318H215.091C215.091 208.053 214.833 206.913 214.318 205.898C213.803 204.883 213.102 204.076 212.216 203.477C211.33 202.879 210.333 202.58 209.227 202.58C208.068 202.58 207.034 202.905 206.125 203.557C205.223 204.201 204.508 205.072 203.977 206.17C203.455 207.269 203.182 208.496 203.159 209.852V210.42C203.159 211.875 203.413 213.182 203.92 214.341C204.436 215.492 205.17 216.405 206.125 217.08C207.08 217.746 208.223 218.08 209.557 218.08C210.511 218.08 211.326 217.92 212 217.602C212.682 217.277 213.239 216.883 213.67 216.42C214.102 215.958 214.428 215.511 214.648 215.08L215.909 215.591C215.644 216.174 215.231 216.758 214.67 217.341C214.117 217.917 213.413 218.398 212.557 218.784C211.708 219.17 210.708 219.364 209.557 219.364ZM233.48 201.545L227.173 219H225.605L219.298 201.545H220.787L226.332 217.216H226.446L231.991 201.545H233.48ZM247.301 219V195.727H248.676V205.443H248.812C249.085 204.693 249.472 204.004 249.972 203.375C250.472 202.746 251.093 202.242 251.835 201.864C252.578 201.477 253.445 201.284 254.437 201.284C255.839 201.284 257.063 201.674 258.108 202.455C259.153 203.227 259.964 204.295 260.54 205.659C261.116 207.015 261.403 208.568 261.403 210.318C261.403 212.083 261.116 213.648 260.54 215.011C259.964 216.367 259.157 217.432 258.119 218.205C257.081 218.977 255.858 219.364 254.449 219.364C253.456 219.364 252.589 219.174 251.847 218.795C251.104 218.409 250.483 217.902 249.983 217.273C249.483 216.636 249.093 215.943 248.812 215.193H248.653V219H247.301ZM248.665 210.307C248.665 211.792 248.888 213.121 249.335 214.295C249.79 215.462 250.441 216.386 251.29 217.068C252.138 217.742 253.153 218.08 254.335 218.08C255.532 218.08 256.555 217.739 257.403 217.057C258.252 216.367 258.9 215.436 259.347 214.261C259.801 213.087 260.028 211.769 260.028 210.307C260.028 208.845 259.801 207.53 259.347 206.364C258.9 205.197 258.252 204.277 257.403 203.602C256.555 202.92 255.532 202.58 254.335 202.58C253.153 202.58 252.138 202.917 251.29 203.591C250.441 204.258 249.79 205.174 249.335 206.341C248.888 207.5 248.665 208.822 248.665 210.307ZM266.256 219V201.545H267.631V219H266.256ZM266.949 198.455C266.646 198.455 266.381 198.348 266.153 198.136C265.934 197.924 265.824 197.667 265.824 197.364C265.824 197.061 265.934 196.803 266.153 196.591C266.373 196.379 266.638 196.273 266.949 196.273C267.252 196.273 267.513 196.379 267.733 196.591C267.96 196.803 268.074 197.061 268.074 197.364C268.074 197.667 267.964 197.924 267.744 198.136C267.525 198.348 267.259 198.455 266.949 198.455ZM279.733 225.909C278.65 225.909 277.676 225.765 276.812 225.477C275.949 225.197 275.214 224.795 274.608 224.273C274.009 223.75 273.551 223.129 273.233 222.409L274.392 221.727C274.65 222.288 275.017 222.788 275.494 223.227C275.972 223.667 276.563 224.011 277.267 224.261C277.979 224.511 278.801 224.636 279.733 224.636C281.415 224.636 282.744 224.201 283.722 223.33C284.706 222.466 285.199 221.14 285.199 219.352V215.011H285.062C284.797 215.769 284.403 216.443 283.881 217.034C283.366 217.617 282.733 218.076 281.983 218.409C281.233 218.742 280.381 218.909 279.426 218.909C278.047 218.909 276.835 218.553 275.79 217.841C274.744 217.129 273.93 216.129 273.347 214.841C272.763 213.545 272.472 212.023 272.472 210.273C272.472 208.523 272.756 206.973 273.324 205.625C273.9 204.269 274.71 203.208 275.756 202.443C276.801 201.67 278.028 201.284 279.438 201.284C280.445 201.284 281.316 201.477 282.051 201.864C282.794 202.242 283.415 202.746 283.915 203.375C284.415 204.004 284.801 204.693 285.074 205.443H285.233V201.545H286.574V219.409C286.574 220.864 286.286 222.072 285.71 223.034C285.142 223.996 284.343 224.716 283.312 225.193C282.29 225.67 281.097 225.909 279.733 225.909ZM279.551 217.625C280.718 217.625 281.722 217.33 282.562 216.739C283.411 216.14 284.063 215.292 284.517 214.193C284.979 213.087 285.21 211.777 285.21 210.261C285.21 208.792 284.987 207.477 284.54 206.318C284.093 205.159 283.445 204.246 282.597 203.58C281.748 202.913 280.733 202.58 279.551 202.58C278.347 202.58 277.32 202.92 276.472 203.602C275.623 204.277 274.972 205.193 274.517 206.352C274.07 207.511 273.847 208.814 273.847 210.261C273.847 211.716 274.074 212.996 274.528 214.102C274.983 215.201 275.634 216.064 276.483 216.693C277.331 217.314 278.354 217.625 279.551 217.625ZM293.702 219.148C293.361 219.148 293.069 219.03 292.827 218.795C292.592 218.553 292.474 218.261 292.474 217.92C292.474 217.587 292.592 217.299 292.827 217.057C293.069 216.814 293.361 216.693 293.702 216.693C294.035 216.693 294.323 216.814 294.565 217.057C294.808 217.299 294.929 217.587 294.929 217.92C294.929 218.148 294.872 218.356 294.759 218.545C294.652 218.727 294.505 218.875 294.315 218.989C294.134 219.095 293.929 219.148 293.702 219.148ZM310.239 219V195.727H317.409C318.886 195.727 320.152 196.03 321.205 196.636C322.265 197.242 323.08 198.072 323.648 199.125C324.216 200.178 324.5 201.379 324.5 202.727C324.5 204.061 324.216 205.254 323.648 206.307C323.08 207.36 322.265 208.193 321.205 208.807C320.152 209.413 318.89 209.716 317.42 209.716H311.239V208.398H317.386C318.583 208.398 319.606 208.155 320.455 207.67C321.303 207.178 321.955 206.508 322.409 205.659C322.864 204.803 323.091 203.826 323.091 202.727C323.091 201.621 322.864 200.64 322.409 199.784C321.955 198.928 321.299 198.258 320.443 197.773C319.595 197.288 318.572 197.045 317.375 197.045H311.659V219H310.239ZM329.469 219V201.545H330.821V204.273H330.946C331.325 203.379 331.965 202.663 332.866 202.125C333.768 201.58 334.795 201.307 335.946 201.307C336.067 201.307 336.188 201.307 336.31 201.307C336.431 201.307 336.545 201.311 336.651 201.318V202.716C336.56 202.708 336.45 202.697 336.321 202.682C336.2 202.659 336.048 202.648 335.866 202.648C334.897 202.648 334.033 202.856 333.276 203.273C332.526 203.689 331.935 204.265 331.503 205C331.071 205.727 330.855 206.561 330.855 207.5V219H329.469ZM346.332 219.364C344.893 219.364 343.613 218.977 342.491 218.205C341.37 217.424 340.488 216.352 339.844 214.989C339.2 213.625 338.878 212.072 338.878 210.33C338.878 208.58 339.2 207.027 339.844 205.67C340.488 204.307 341.37 203.235 342.491 202.455C343.613 201.674 344.893 201.284 346.332 201.284C347.772 201.284 349.052 201.674 350.173 202.455C351.295 203.235 352.177 204.307 352.821 205.67C353.465 207.034 353.787 208.587 353.787 210.33C353.787 212.072 353.465 213.625 352.821 214.989C352.177 216.352 351.295 217.424 350.173 218.205C349.052 218.977 347.772 219.364 346.332 219.364ZM346.332 218.08C347.552 218.08 348.616 217.735 349.526 217.045C350.442 216.356 351.151 215.424 351.651 214.25C352.158 213.076 352.412 211.769 352.412 210.33C352.412 208.89 352.158 207.587 351.651 206.42C351.143 205.246 350.435 204.314 349.526 203.625C348.616 202.928 347.552 202.58 346.332 202.58C345.113 202.58 344.048 202.928 343.139 203.625C342.23 204.314 341.522 205.246 341.014 206.42C340.507 207.587 340.253 208.89 340.253 210.33C340.253 211.769 340.503 213.076 341.003 214.25C341.51 215.424 342.219 216.356 343.128 217.045C344.045 217.735 345.113 218.08 346.332 218.08ZM373.733 201.545V202.784H366.108V201.545H373.733ZM368.688 197.364H370.062V214.875C370.062 215.587 370.199 216.17 370.472 216.625C370.752 217.072 371.116 217.405 371.562 217.625C372.017 217.837 372.502 217.943 373.017 217.943C373.267 217.943 373.483 217.924 373.665 217.886C373.854 217.848 374.032 217.799 374.199 217.739L374.54 219C374.328 219.076 374.093 219.14 373.835 219.193C373.578 219.254 373.275 219.284 372.926 219.284C372.199 219.284 371.509 219.121 370.858 218.795C370.214 218.47 369.691 217.996 369.29 217.375C368.888 216.754 368.688 216.004 368.688 215.125V197.364ZM378.875 219V201.545H380.227V204.273H380.352C380.731 203.379 381.371 202.663 382.273 202.125C383.174 201.58 384.201 201.307 385.352 201.307C385.473 201.307 385.595 201.307 385.716 201.307C385.837 201.307 385.951 201.311 386.057 201.318V202.716C385.966 202.708 385.856 202.697 385.727 202.682C385.606 202.659 385.455 202.648 385.273 202.648C384.303 202.648 383.439 202.856 382.682 203.273C381.932 203.689 381.341 204.265 380.909 205C380.477 205.727 380.261 206.561 380.261 207.5V219H378.875ZM394.406 219.375C393.399 219.375 392.474 219.174 391.634 218.773C390.8 218.371 390.13 217.784 389.622 217.011C389.122 216.239 388.872 215.299 388.872 214.193C388.872 213.466 389.001 212.826 389.259 212.273C389.516 211.72 389.914 211.242 390.452 210.841C390.99 210.439 391.679 210.11 392.52 209.852C393.361 209.587 394.365 209.383 395.531 209.239C396.418 209.133 397.209 209.03 397.906 208.932C398.603 208.826 399.149 208.663 399.543 208.443C399.944 208.223 400.145 207.89 400.145 207.443V206.716C400.145 205.443 399.743 204.432 398.94 203.682C398.137 202.932 397.031 202.557 395.622 202.557C394.372 202.557 393.319 202.833 392.463 203.386C391.615 203.932 391.02 204.636 390.679 205.5L389.372 205.011C389.705 204.178 390.187 203.485 390.815 202.932C391.452 202.379 392.179 201.966 392.997 201.693C393.823 201.42 394.687 201.284 395.588 201.284C396.368 201.284 397.111 201.394 397.815 201.614C398.527 201.833 399.16 202.167 399.713 202.614C400.274 203.061 400.717 203.633 401.043 204.33C401.368 205.019 401.531 205.845 401.531 206.807V219H400.145V215.852H400.043C399.74 216.504 399.323 217.098 398.793 217.636C398.27 218.167 397.637 218.591 396.895 218.909C396.16 219.22 395.33 219.375 394.406 219.375ZM394.543 218.091C395.634 218.091 396.599 217.826 397.44 217.295C398.289 216.758 398.952 216.023 399.429 215.091C399.906 214.159 400.145 213.102 400.145 211.92V209.352C399.971 209.504 399.717 209.64 399.384 209.761C399.058 209.875 398.687 209.977 398.27 210.068C397.861 210.152 397.429 210.227 396.974 210.295C396.527 210.356 396.092 210.413 395.668 210.466C394.395 210.617 393.357 210.852 392.554 211.17C391.759 211.481 391.175 211.89 390.804 212.398C390.44 212.905 390.259 213.519 390.259 214.239C390.259 215.428 390.668 216.367 391.486 217.057C392.304 217.746 393.323 218.091 394.543 218.091ZM407.412 219V201.545H408.787V219H407.412ZM408.105 198.455C407.802 198.455 407.537 198.348 407.31 198.136C407.09 197.924 406.98 197.667 406.98 197.364C406.98 197.061 407.09 196.803 407.31 196.591C407.529 196.379 407.795 196.273 408.105 196.273C408.408 196.273 408.67 196.379 408.889 196.591C409.116 196.803 409.23 197.061 409.23 197.364C409.23 197.667 409.12 197.924 408.901 198.136C408.681 198.348 408.416 198.455 408.105 198.455ZM415.98 207.682V219H414.594V201.545H415.946V204.307H416.082C416.491 203.405 417.147 202.682 418.048 202.136C418.95 201.591 420.022 201.318 421.264 201.318C422.438 201.318 423.469 201.568 424.355 202.068C425.249 202.568 425.946 203.28 426.446 204.205C426.954 205.121 427.207 206.216 427.207 207.489V219H425.821V207.545C425.821 206.061 425.378 204.867 424.491 203.966C423.613 203.057 422.45 202.602 421.003 202.602C420.033 202.602 419.17 202.814 418.412 203.239C417.654 203.663 417.06 204.258 416.628 205.023C416.196 205.78 415.98 206.667 415.98 207.682ZM439.776 219.364C438.2 219.364 436.829 218.973 435.662 218.193C434.495 217.413 433.594 216.345 432.957 214.989C432.321 213.633 432.003 212.087 432.003 210.352C432.003 208.61 432.321 207.057 432.957 205.693C433.601 204.33 434.484 203.254 435.605 202.466C436.726 201.678 438.007 201.284 439.446 201.284C440.423 201.284 441.348 201.481 442.219 201.875C443.098 202.261 443.87 202.822 444.537 203.557C445.211 204.292 445.738 205.178 446.116 206.216C446.503 207.254 446.696 208.42 446.696 209.716V210.58H432.878V209.318H445.31C445.31 208.053 445.052 206.913 444.537 205.898C444.022 204.883 443.321 204.076 442.435 203.477C441.548 202.879 440.552 202.58 439.446 202.58C438.287 202.58 437.253 202.905 436.344 203.557C435.442 204.201 434.726 205.072 434.196 206.17C433.673 207.269 433.401 208.496 433.378 209.852V210.42C433.378 211.875 433.632 213.182 434.139 214.341C434.654 215.492 435.389 216.405 436.344 217.08C437.298 217.746 438.442 218.08 439.776 218.08C440.73 218.08 441.545 217.92 442.219 217.602C442.901 217.277 443.457 216.883 443.889 216.42C444.321 215.958 444.647 215.511 444.866 215.08L446.128 215.591C445.863 216.174 445.45 216.758 444.889 217.341C444.336 217.917 443.632 218.398 442.776 218.784C441.927 219.17 440.927 219.364 439.776 219.364ZM451.469 219V201.545H452.821V204.273H452.946C453.325 203.379 453.965 202.663 454.866 202.125C455.768 201.58 456.795 201.307 457.946 201.307C458.067 201.307 458.188 201.307 458.31 201.307C458.431 201.307 458.545 201.311 458.651 201.318V202.716C458.56 202.708 458.45 202.697 458.321 202.682C458.2 202.659 458.048 202.648 457.866 202.648C456.897 202.648 456.033 202.856 455.276 203.273C454.526 203.689 453.935 204.265 453.503 205C453.071 205.727 452.855 206.561 452.855 207.5V219H451.469ZM473.466 205.307L472.182 205.648C471.977 205.011 471.686 204.462 471.307 204C470.928 203.538 470.451 203.182 469.875 202.932C469.307 202.674 468.625 202.545 467.83 202.545C466.549 202.545 465.5 202.864 464.682 203.5C463.871 204.136 463.466 204.966 463.466 205.989C463.466 206.822 463.742 207.511 464.295 208.057C464.848 208.595 465.693 209.004 466.83 209.284L469.511 209.955C470.89 210.295 471.928 210.848 472.625 211.614C473.322 212.371 473.67 213.314 473.67 214.443C473.67 215.405 473.409 216.258 472.886 217C472.364 217.742 471.64 218.322 470.716 218.739C469.799 219.155 468.731 219.364 467.511 219.364C465.883 219.364 464.545 218.985 463.5 218.227C462.455 217.462 461.784 216.367 461.489 214.943L462.818 214.602C463.068 215.739 463.587 216.606 464.375 217.205C465.17 217.795 466.212 218.091 467.5 218.091C468.924 218.091 470.072 217.754 470.943 217.08C471.822 216.405 472.261 215.542 472.261 214.489C472.261 213.686 472.004 213.008 471.489 212.455C470.973 211.902 470.193 211.496 469.148 211.239L466.364 210.557C464.939 210.208 463.871 209.652 463.159 208.886C462.447 208.114 462.091 207.163 462.091 206.034C462.091 205.095 462.337 204.269 462.83 203.557C463.322 202.845 464 202.288 464.864 201.886C465.727 201.485 466.716 201.284 467.83 201.284C469.307 201.284 470.511 201.633 471.443 202.33C472.375 203.027 473.049 204.019 473.466 205.307ZM479.764 219.148C479.423 219.148 479.132 219.03 478.889 218.795C478.654 218.553 478.537 218.261 478.537 217.92C478.537 217.587 478.654 217.299 478.889 217.057C479.132 216.814 479.423 216.693 479.764 216.693C480.098 216.693 480.385 216.814 480.628 217.057C480.87 217.299 480.991 217.587 480.991 217.92C480.991 218.148 480.935 218.356 480.821 218.545C480.715 218.727 480.567 218.875 480.378 218.989C480.196 219.095 479.991 219.148 479.764 219.148ZM2.46591 258H0.965909L9.36364 234.727H11L19.3977 258H17.8977L10.2386 236.557H10.125L2.46591 258ZM4.59091 249.239H15.7727V250.557H4.59091V249.239ZM24.5455 253.989C24.2045 253.989 23.9129 253.871 23.6705 253.636C23.4356 253.394 23.3182 253.102 23.3182 252.761C23.3182 252.428 23.4356 252.14 23.6705 251.898C23.9129 251.655 24.2045 251.534 24.5455 251.534C24.8788 251.534 25.1667 251.655 25.4091 251.898C25.6515 252.14 25.7727 252.428 25.7727 252.761C25.7727 252.989 25.7159 253.197 25.6023 253.386C25.4962 253.568 25.3485 253.716 25.1591 253.83C24.9773 253.936 24.7727 253.989 24.5455 253.989ZM24.5455 242.159C24.2045 242.159 23.9129 242.038 23.6705 241.795C23.4356 241.553 23.3182 241.265 23.3182 240.932C23.3182 240.598 23.4356 240.311 23.6705 240.068C23.9129 239.826 24.2045 239.705 24.5455 239.705C24.8788 239.705 25.1667 239.826 25.4091 240.068C25.6515 240.311 25.7727 240.598 25.7727 240.932C25.7727 241.159 25.7159 241.367 25.6023 241.557C25.4962 241.739 25.3485 241.886 25.1591 242C24.9773 242.106 24.7727 242.159 24.5455 242.159ZM41.0824 234.727H42.6278L51.5937 255.955H51.7528L60.7187 234.727H62.2642V258H60.9006V238.102H60.7642L52.3437 258H51.0028L42.5824 238.102H42.446V258H41.0824V234.727ZM73.125 258.375C72.1174 258.375 71.1932 258.174 70.3523 257.773C69.5189 257.371 68.8485 256.784 68.3409 256.011C67.8409 255.239 67.5909 254.299 67.5909 253.193C67.5909 252.466 67.7197 251.826 67.9773 251.273C68.2348 250.72 68.6326 250.242 69.1705 249.841C69.7083 249.439 70.3977 249.11 71.2386 248.852C72.0795 248.587 73.0833 248.383 74.25 248.239C75.1364 248.133 75.928 248.03 76.625 247.932C77.322 247.826 77.8674 247.663 78.2614 247.443C78.6629 247.223 78.8636 246.89 78.8636 246.443V245.716C78.8636 244.443 78.4621 243.432 77.6591 242.682C76.8561 241.932 75.75 241.557 74.3409 241.557C73.0909 241.557 72.0379 241.833 71.1818 242.386C70.3333 242.932 69.7386 243.636 69.3977 244.5L68.0909 244.011C68.4242 243.178 68.9053 242.485 69.5341 241.932C70.1705 241.379 70.8977 240.966 71.7159 240.693C72.5417 240.42 73.4053 240.284 74.3068 240.284C75.0871 240.284 75.8295 240.394 76.5341 240.614C77.2462 240.833 77.8788 241.167 78.4318 241.614C78.9924 242.061 79.4356 242.633 79.7614 243.33C80.0871 244.019 80.25 244.845 80.25 245.807V258H78.8636V254.852H78.7614C78.4583 255.504 78.0417 256.098 77.5114 256.636C76.9886 257.167 76.3561 257.591 75.6136 257.909C74.8788 258.22 74.0492 258.375 73.125 258.375ZM73.2614 257.091C74.3523 257.091 75.3182 256.826 76.1591 256.295C77.0076 255.758 77.6705 255.023 78.1477 254.091C78.625 253.159 78.8636 252.102 78.8636 250.92V248.352C78.6894 248.504 78.4356 248.64 78.1023 248.761C77.7765 248.875 77.4053 248.977 76.9886 249.068C76.5795 249.152 76.1477 249.227 75.6932 249.295C75.2462 249.356 74.8106 249.413 74.3864 249.466C73.1136 249.617 72.0758 249.852 71.2727 250.17C70.4773 250.481 69.8939 250.89 69.5227 251.398C69.1591 251.905 68.9773 252.519 68.9773 253.239C68.9773 254.428 69.3864 255.367 70.2045 256.057C71.0227 256.746 72.0417 257.091 73.2614 257.091ZM86.5511 264.545C86.2027 264.545 85.858 264.508 85.517 264.432C85.1761 264.356 84.8693 264.258 84.5966 264.136L85.0057 262.92C85.7178 263.193 86.3617 263.292 86.9375 263.216C87.5208 263.14 88.036 262.875 88.483 262.42C88.9299 261.966 89.3087 261.299 89.6193 260.42L90.4148 258.239L84.017 240.545H85.5057L91.0511 256.216H91.1648L96.7102 240.545H98.1989L90.8352 260.966C90.5549 261.754 90.2027 262.413 89.7784 262.943C89.3542 263.473 88.8693 263.871 88.3239 264.136C87.786 264.409 87.1951 264.545 86.5511 264.545ZM103.02 258V234.727H104.395V244.443H104.531C104.804 243.693 105.19 243.004 105.69 242.375C106.19 241.746 106.812 241.242 107.554 240.864C108.296 240.477 109.164 240.284 110.156 240.284C111.558 240.284 112.781 240.674 113.827 241.455C114.872 242.227 115.683 243.295 116.259 244.659C116.834 246.015 117.122 247.568 117.122 249.318C117.122 251.083 116.834 252.648 116.259 254.011C115.683 255.367 114.876 256.432 113.838 257.205C112.8 257.977 111.577 258.364 110.168 258.364C109.175 258.364 108.308 258.174 107.565 257.795C106.823 257.409 106.202 256.902 105.702 256.273C105.202 255.636 104.812 254.943 104.531 254.193H104.372V258H103.02ZM104.384 249.307C104.384 250.792 104.607 252.121 105.054 253.295C105.509 254.462 106.16 255.386 107.009 256.068C107.857 256.742 108.872 257.08 110.054 257.08C111.251 257.08 112.274 256.739 113.122 256.057C113.971 255.367 114.618 254.436 115.065 253.261C115.52 252.087 115.747 250.769 115.747 249.307C115.747 247.845 115.52 246.53 115.065 245.364C114.618 244.197 113.971 243.277 113.122 242.602C112.274 241.92 111.251 241.58 110.054 241.58C108.872 241.58 107.857 241.917 107.009 242.591C106.16 243.258 105.509 244.174 105.054 245.341C104.607 246.5 104.384 247.822 104.384 249.307ZM128.713 258.364C127.137 258.364 125.766 257.973 124.599 257.193C123.433 256.413 122.531 255.345 121.895 253.989C121.259 252.633 120.94 251.087 120.94 249.352C120.94 247.61 121.259 246.057 121.895 244.693C122.539 243.33 123.421 242.254 124.543 241.466C125.664 240.678 126.944 240.284 128.384 240.284C129.361 240.284 130.285 240.481 131.156 240.875C132.035 241.261 132.808 241.822 133.474 242.557C134.149 243.292 134.675 244.178 135.054 245.216C135.44 246.254 135.634 247.42 135.634 248.716V249.58H121.815V248.318H134.247C134.247 247.053 133.99 245.913 133.474 244.898C132.959 243.883 132.259 243.076 131.372 242.477C130.486 241.879 129.49 241.58 128.384 241.58C127.224 241.58 126.19 241.905 125.281 242.557C124.38 243.201 123.664 244.072 123.134 245.17C122.611 246.269 122.338 247.496 122.315 248.852V249.42C122.315 250.875 122.569 252.182 123.077 253.341C123.592 254.492 124.327 255.405 125.281 256.08C126.236 256.746 127.38 257.08 128.713 257.08C129.668 257.08 130.482 256.92 131.156 256.602C131.838 256.277 132.395 255.883 132.827 255.42C133.259 254.958 133.584 254.511 133.804 254.08L135.065 254.591C134.8 255.174 134.387 255.758 133.827 256.341C133.274 256.917 132.569 257.398 131.713 257.784C130.865 258.17 129.865 258.364 128.713 258.364ZM141.702 258.148C141.361 258.148 141.069 258.03 140.827 257.795C140.592 257.553 140.474 257.261 140.474 256.92C140.474 256.587 140.592 256.299 140.827 256.057C141.069 255.814 141.361 255.693 141.702 255.693C142.035 255.693 142.323 255.814 142.565 256.057C142.808 256.299 142.929 256.587 142.929 256.92C142.929 257.148 142.872 257.356 142.759 257.545C142.652 257.727 142.505 257.875 142.315 257.989C142.134 258.095 141.929 258.148 141.702 258.148Z" fill="#4B5563"/>
</svg>
